{
.appVersion = "895";
copyright = "Copyright (c) 2010, The Josefin Sans Project Authors (hi@typemade.mx), with Reserved Font Name Josefin";
customParameters = (
{
name = licenseURL;
value = "http://scripts.sil.org/OFL";
},
{
name = trademark;
value = "Josefin Sans is a trademark of Typemade.";
},
{
name = license;
value = "This Font Software is licensed under the SIL Open Font License, Version 1.1. This license is available with a FAQ at: http://scripts.sil.org/OFL";
},
{
name = fsType;
value = "0";
},
{
name = "Use Typo Metrics";
value = 1;
}
);
date = "2016-08-26 16:01:20 +0000";
designer = "Santiago Orozco";
designerURL = "http://www.typemade.mx";
familyName = "Josefin Sans";
featurePrefixes = (
{
automatic = 1;
code = "languagesystem DFLT dflt;\012";
name = Languagesystems;
}
);
features = (
{
automatic = 1;
code = "feature sups;\012feature frac;\012feature ordn;\012";
name = aalt;
},
{
automatic = 1;
code = "sub one by onesuperior;\012sub two by twosuperior;\012sub three by threesuperior;\012";
name = sups;
},
{
automatic = 1;
code = "sub one slash four by onequarter;\012sub one slash two by onehalf;\012sub three slash four by threequarters;\012";
name = frac;
},
{
automatic = 1;
code = "sub [zero one two three four five six seven eight nine] [A a]' by ordfeminine;\012sub [zero one two three four five six seven eight nine] [O o]' by ordmasculine;\012";
name = ordn;
},
{
automatic = 1;
code = "sub f i by fi;\012sub f l by fl;\012";
name = liga;
}
);
fontMaster = (
{
alignmentZones = (
"{700, 32}",
"{375, 5}",
"{0, -7}",
"{-250, 0}"
);
ascender = 750;
capHeight = 700;
customParameters = (
{
name = typoDescender;
value = -250;
},
{
name = typoLineGap;
value = 0;
},
{
name = hheaLineGap;
value = 0;
},
{
name = hheaAscender;
value = 750;
},
{
name = typoAscender;
value = 750;
},
{
name = hheaDescender;
value = -250;
},
{
name = winDescent;
value = 271;
},
{
name = winAscent;
value = 991;
}
);
descender = -180;
horizontalStems = (
126,
24,
217
);
id = UUID0;

glyphs = (
{
glyphname = A;
lastChange = "2016-08-26 20:32:07 +0000";
layers = (
{
hints = (
{
horizontal = 1;
place = "{0, 21}";
target = up;
type = BottomGhost;
},
{
horizontal = 1;
place = "{732, -20}";
target = down;
type = TopGhost;
}
);
layerId = UUID0;
paths = (
{
closed = 1;
nodes = (
"620 0 LINE",
"517 244 OFFCURVE",
"433 488 OFFCURVE",
"330 732 CURVE",
"227 488 OFFCURVE",
"143 244 OFFCURVE",
"40 0 CURVE",
"55 0 LINE",
"150 225 OFFCURVE",
"226 450 OFFCURVE",
"321 675 CURVE",
"324 683 OFFCURVE",
"327 692 OFFCURVE",
"330 700 CURVE",
"333 692 OFFCURVE",
"336 683 OFFCURVE",
"339 675 CURVE",
"434 450 OFFCURVE",
"510 225 OFFCURVE",
"605 0 CURVE"
);
},
{
closed = 1;
nodes = (
"176 318 LINE",
"485 318 LINE",
"485 332 LINE",
"176 332 LINE"
);
}
);
width = 660;
},
{
hints = (
{
horizontal = 1;
place = "{0, 21}";
target = up;
type = BottomGhost;
},
{
horizontal = 1;
place = "{732, -20}";
target = down;
type = TopGhost;
}
);
layerId = UUID1;
paths = (
{
closed = 1;
nodes = (
"704 0 LINE",
"704 0 OFFCURVE",
"368 770 OFFCURVE",
"368 770 CURVE",
"368 770 OFFCURVE",
"32 0 OFFCURVE",
"32 0 CURVE",
"180 0 LINE",
"180 0 OFFCURVE",
"357 417 OFFCURVE",
"357 417 CURVE",
"357 417 OFFCURVE",
"365 443 OFFCURVE",
"368 458 CURVE",
"371 443 OFFCURVE",
"379 417 OFFCURVE",
"379 417 CURVE",
"379 417 OFFCURVE",
"556 0 OFFCURVE",
"556 0 CURVE"
);
},
{
closed = 1;
nodes = (
"234 161 LINE",
"511 161 LINE",
"460 286 LINE",
"279 286 LINE"
);
}
);
width = 736;
}
);
unicode = 0041;
},
{
glyphname = Aring;
lastChange = "2016-08-26 20:32:07 +0000";
layers = (
{
components = (
{
name = A;
}
);
hints = (
{
place = "{308, 126}";
},
{
horizontal = 1;
place = "{775, 126}";
}
);
layerId = UUID0;
paths = (
{
closed = 1;
nodes = (
"268 834 LINE SMOOTH",
"268 798 OFFCURVE",
"295 771 OFFCURVE",
"331 771 CURVE SMOOTH",
"367 771 OFFCURVE",
"394 798 OFFCURVE",
"394 834 CURVE SMOOTH",
"394 870 OFFCURVE",
"367 897 OFFCURVE",
"331 897 CURVE SMOOTH",
"295 897 OFFCURVE",
"268 870 OFFCURVE",
"268 834 CURVE SMOOTH"
);
},
{
closed = 1;
nodes = (
"282 834 LINE SMOOTH",
"282 860 OFFCURVE",
"305 883 OFFCURVE",
"331 883 CURVE SMOOTH",
"357 883 OFFCURVE",
"380 860 OFFCURVE",
"380 834 CURVE SMOOTH",
"380 808 OFFCURVE",
"357 785 OFFCURVE",
"331 785 CURVE SMOOTH",
"305 785 OFFCURVE",
"282 808 OFFCURVE",
"282 834 CURVE SMOOTH"
);
}
);
width = 700;
},
{
components = (
{
name = A;
}
);
hints = (
{
place = "{339, 65}";
},
{
horizontal = 1;
place = "{805, 65}";
}
);
layerId = UUID1;
paths = (
{
closed = 1;
nodes = (
"274 856 LINE SMOOTH",
"274 805 OFFCURVE",
"318 761 OFFCURVE",
"369 761 CURVE SMOOTH",
"419 761 OFFCURVE",
"463 805 OFFCURVE",
"463 856 CURVE SMOOTH",
"463 906 OFFCURVE",
"419 950 OFFCURVE",
"369 950 CURVE SMOOTH",
"318 950 OFFCURVE",
"274 906 OFFCURVE",
"274 856 CURVE SMOOTH"
);
},
{
closed = 1;
nodes = (
"340 854 LINE SMOOTH",
"340 872 OFFCURVE",
"352 884 OFFCURVE",
"369 884 CURVE SMOOTH",
"386 884 OFFCURVE",
"398 872 OFFCURVE",
"398 854 CURVE SMOOTH",
"398 838 OFFCURVE",
"386 826 OFFCURVE",
"369 826 CURVE SMOOTH",
"352 826 OFFCURVE",
"340 838 OFFCURVE",
"340 854 CURVE SMOOTH"
);
}
);
width = 765;
}
);
unicode = 00C5;
},
{
glyphname = AE;
lastChange = "2016-08-26 20:32:07 +0000";
layers = (
{
hints = (
{
horizontal = 1;
place = "{0, 21}";
target = up;
type = BottomGhost;
},
{
horizontal = 1;
place = "{700, -20}";
target = down;
type = TopGhost;
}
);
layerId = UUID0;
paths = (
{
closed = 1;
nodes = (
"317 0 LINE",
"586 0 LINE",
"586 14 LINE",
"331 14 LINE",
"331 346 LINE",
"533 346 LINE",
"533 360 LINE",
"331 360 LINE",
"331 686 LINE",
"572 686 LINE",
"572 700 LINE",
"317 700 LINE"
);
},
{
closed = 1;
nodes = (
"317 700 LINE",
"214 456 OFFCURVE",
"143 244 OFFCURVE",
"40 0 CURVE",
"55 0 LINE",
"150 225 OFFCURVE",
"226 450 OFFCURVE",
"321 675 CURVE SMOOTH",
"324 683 OFFCURVE",
"327 692 OFFCURVE",
"330 700 CURVE"
);
},
{
closed = 1;
nodes = (
"176 318 LINE",
"325 318 LINE",
"325 332 LINE",
"176 332 LINE"
);
}
);
width = 655;
},
{
hints = (
{
horizontal = 1;
place = "{0, 21}";
target = up;
type = BottomGhost;
},
{
horizontal = 1;
place = "{700, -20}";
target = down;
type = TopGhost;
}
);
layerId = UUID1;
paths = (
{
closed = 1;
nodes = (
"353 0 LINE",
"779 0 LINE",
"779 139 LINE",
"493 139 LINE",
"493 299 LINE",
"724 299 LINE",
"724 437 LINE",
"493 437 LINE",
"493 601 LINE",
"765 601 LINE",
"765 736 LINE",
"353 736 LINE"
);
},
{
closed = 1;
nodes = (
"353 736 LINE",
"353 736 OFFCURVE",
"32 0 OFFCURVE",
"32 0 CURVE",
"180 0 LINE",
"180 0 OFFCURVE",
"357 417 OFFCURVE",
"357 417 CURVE SMOOTH",
"357 417 OFFCURVE",
"365 443 OFFCURVE",
"368 458 CURVE"
);
},
{
closed = 1;
nodes = (
"234 161 LINE",
"370 161 LINE",
"370 276 LINE",
"279 276 LINE"
);
}
);
width = 860;
}
);
unicode = 00C6;
},
{
glyphname = B;
lastChange = "2016-08-26 20:32:07 +0000";
layers = (
{
hints = (
{
place = "{418, 41}";
},
{
horizontal = 1;
place = "{0, 21}";
target = up;
type = BottomGhost;
},
{
horizontal = 1;
place = "{700, -20}";
target = down;
type = TopGhost;
}
);
layerId = UUID0;
paths = (
{
closed = 1;
nodes = (
"86 700 LINE",
"86 0 LINE",
"249 0 LINE SMOOTH",
"359 0 OFFCURVE",
"461 62 OFFCURVE",
"461 179 CURVE SMOOTH",
"461 278 OFFCURVE",
"388 335 OFFCURVE",
"307 352 CURVE",
"393 375 OFFCURVE",
"424 444 OFFCURVE",
"424 522 CURVE SMOOTH",
"424 650 OFFCURVE",
"342 700 OFFCURVE",
"221 700 CURVE SMOOTH"
);
},
{
closed = 1;
nodes = (
"100 358 LINE",
"100 686 LINE",
"233 686 LINE SMOOTH",
"337 686 OFFCURVE",
"410 641 OFFCURVE",
"410 528 CURVE SMOOTH",
"410 427 OFFCURVE",
"353 358 OFFCURVE",
"247 358 CURVE SMOOTH"
);
},
{
closed = 1;
nodes = (
"100 14 LINE",
"100 344 LINE",
"229 344 LINE SMOOTH",
"341 344 OFFCURVE",
"447 293 OFFCURVE",
"447 176 CURVE SMOOTH",
"447 68 OFFCURVE",
"356 14 OFFCURVE",
"248 14 CURVE SMOOTH"
);
}
);
width = 534;
},
{
hints = (
{
place = "{377, 108}";
},
{
horizontal = 1;
place = "{0, 21}";
target = up;
type = BottomGhost;
},
{
horizontal = 1;
place = "{700, -20}";
target = down;
type = TopGhost;
}
);
layerId = UUID1;
paths = (
{
closed = 1;
nodes = (
"88 736 LINE",
"88 0 LINE",
"333 0 LINE SMOOTH",
"461 0 OFFCURVE",
"583 57 OFFCURVE",
"583 203 CURVE SMOOTH",
"583 316 OFFCURVE",
"510 362 OFFCURVE",
"446 374 CURVE",
"523 398 OFFCURVE",
"549 470 OFFCURVE",
"549 543 CURVE SMOOTH",
"549 683 OFFCURVE",
"454 736 OFFCURVE",
"304 736 CURVE SMOOTH"
);
},
{
closed = 1;
nodes = (
"238 435 LINE",
"238 601 LINE",
"306 601 LINE SMOOTH",
"363 601 OFFCURVE",
"400 574 OFFCURVE",
"400 520 CURVE SMOOTH",
"400 476 OFFCURVE",
"373 435 OFFCURVE",
"316 435 CURVE SMOOTH"
);
},
{
closed = 1;
nodes = (
"238 135 LINE",
"238 309 LINE",
"311 309 LINE SMOOTH",
"373 309 OFFCURVE",
"435 291 OFFCURVE",
"435 224 CURVE SMOOTH",
"435 164 OFFCURVE",
"385 135 OFFCURVE",
"321 135 CURVE SMOOTH"
);
}
);
width = 622;
}
);
unicode = 0042;
},
{
glyphname = C;
lastChange = "2016-08-26 20:32:07 +0000";
layers = (
{
hints = (
{
horizontal = 1;
place = "{708, -20}";
target = down;
type = TopGhost;
},
{
horizontal = 1;
place = "{-8, 21}";
target = up;
type = BottomGhost;
}
);
layerId = UUID0;
paths = (
{
closed = 1;
nodes = (
"600 54 LINE",
"548 24 OFFCURVE",
"489 6 OFFCURVE",
"420 6 CURVE SMOOTH",
"217 6 OFFCURVE",
"84 163 OFFCURVE",
"84 345 CURVE SMOOTH",
"84 540 OFFCURVE",
"238 694 OFFCURVE",
"427 694 CURVE SMOOTH",
"490 694 OFFCURVE",
"551 677 OFFCURVE",
"602 646 CURVE",
"605 650 OFFCURVE",
"607 654 OFFCURVE",
"610 658 CURVE",
"556 690 OFFCURVE",
"494 708 OFFCURVE",
"427 708 CURVE SMOOTH",
"230 708 OFFCURVE",
"70 549 OFFCURVE",
"70 346 CURVE SMOOTH",
"70 154 OFFCURVE",
"212 -8 OFFCURVE",
"424 -8 CURVE SMOOTH",
"496 -8 OFFCURVE",
"556 11 OFFCURVE",
"609 42 CURVE"
);
}
);
width = 653;
},
{
hints = (
{
horizontal = 1;
place = "{708, -20}";
target = down;
type = TopGhost;
},
{
horizontal = 1;
place = "{-8, 21}";
target = up;
type = BottomGhost;
}
);
layerId = UUID1;
paths = (
{
closed = 1;
nodes = (
"578 193 LINE",
"588 190 OFFCURVE",
"502 145 OFFCURVE",
"413 145 CURVE SMOOTH",
"278 145 OFFCURVE",
"181 260 OFFCURVE",
"181 375 CURVE SMOOTH",
"181 491 OFFCURVE",
"281 603 OFFCURVE",
"420 603 CURVE SMOOTH",
"455 603 OFFCURVE",
"519 596 OFFCURVE",
"546 576 CURVE",
"584 644 OFFCURVE",
"585 647 OFFCURVE",
"613 693 CURVE",
"595 718 OFFCURVE",
"497 744 OFFCURVE",
"414 744 CURVE SMOOTH",
"205 744 OFFCURVE",
"31 586 OFFCURVE",
"31 362 CURVE SMOOTH",
"31 163 OFFCURVE",
"167 -8 OFFCURVE",
"400 -8 CURVE SMOOTH",
"523 -8 OFFCURVE",
"616 37 OFFCURVE",
"641 57 CURVE"
);
}
);
width = 692;
}
);
unicode = 0043;
},
{
glyphname = Ccedilla;
lastChange = "2016-08-26 20:32:07 +0000";
layers = (
{
hints = (
{
horizontal = 1;
place = "{-223, 229}";
},
{
horizontal = 1;
place = "{708, -20}";
target = down;
type = TopGhost;
}
);
layerId = UUID0;
paths = (
{
closed = 1;
nodes = (
"600 54 LINE",
"548 24 OFFCURVE",
"489 6 OFFCURVE",
"420 6 CURVE SMOOTH",
"217 6 OFFCURVE",
"84 163 OFFCURVE",
"84 345 CURVE SMOOTH",
"84 540 OFFCURVE",
"238 694 OFFCURVE",
"427 694 CURVE SMOOTH",
"490 694 OFFCURVE",
"551 677 OFFCURVE",
"602 646 CURVE",
"605 650 OFFCURVE",
"607 654 OFFCURVE",
"610 658 CURVE",
"556 690 OFFCURVE",
"494 708 OFFCURVE",
"427 708 CURVE SMOOTH",
"230 708 OFFCURVE",
"70 549 OFFCURVE",
"70 346 CURVE SMOOTH",
"70 154 OFFCURVE",
"212 -8 OFFCURVE",
"424 -8 CURVE SMOOTH",
"496 -8 OFFCURVE",
"556 11 OFFCURVE",
"609 42 CURVE"
);
},
{
closed = 1;
nodes = (
"427 0 LINE",
"413 0 LINE",
"413 -16 LINE SMOOTH",
"413 -69 OFFCURVE",
"496 -63 OFFCURVE",
"496 -137 CURVE SMOOTH",
"496 -178 OFFCURVE",
"467 -209 OFFCURVE",
"426 -209 CURVE SMOOTH",
"393 -209 OFFCURVE",
"368 -189 OFFCURVE",
"360 -161 CURVE",
"355 -162 OFFCURVE",
"350 -164 OFFCURVE",
"345 -165 CURVE",
"358 -204 OFFCURVE",
"391 -223 OFFCURVE",
"426 -223 CURVE SMOOTH",
"470 -223 OFFCURVE",
"510 -195 OFFCURVE",
"510 -127 CURVE SMOOTH",
"510 -109 OFFCURVE",
"498 -81 OFFCURVE",
"468 -61 CURVE SMOOTH",
"451 -50 OFFCURVE",
"427 -41 OFFCURVE",
"427 -6 CURVE SMOOTH"
);
}
);
width = 635;
},
{
hints = (
{
horizontal = 1;
place = "{-250, 321}";
},
{
horizontal = 1;
place = "{708, -20}";
target = down;
type = TopGhost;
}
);
layerId = UUID1;
paths = (
{
closed = 1;
nodes = (
"578 193 LINE",
"588 190 OFFCURVE",
"502 145 OFFCURVE",
"413 145 CURVE SMOOTH",
"278 145 OFFCURVE",
"181 260 OFFCURVE",
"181 375 CURVE SMOOTH",
"181 491 OFFCURVE",
"281 603 OFFCURVE",
"420 603 CURVE SMOOTH",
"455 603 OFFCURVE",
"519 596 OFFCURVE",
"546 576 CURVE",
"584 644 OFFCURVE",
"585 647 OFFCURVE",
"613 693 CURVE",
"595 718 OFFCURVE",
"497 744 OFFCURVE",
"414 744 CURVE SMOOTH",
"205 744 OFFCURVE",
"31 586 OFFCURVE",
"31 362 CURVE SMOOTH",
"31 163 OFFCURVE",
"167 -8 OFFCURVE",
"400 -8 CURVE SMOOTH",
"523 -8 OFFCURVE",
"616 37 OFFCURVE",
"641 57 CURVE"
);
},
{
closed = 1;
nodes = (
"426 0 LINE",
"352 0 LINE",
"352 -25 LINE SMOOTH",
"352 -98 OFFCURVE",
"415 -88 OFFCURVE",
"415 -132 CURVE SMOOTH",
"415 -159 OFFCURVE",
"403 -180 OFFCURVE",
"375 -180 CURVE SMOOTH",
"353 -180 OFFCURVE",
"338 -166 OFFCURVE",
"332 -148 CURVE",
"311 -160 OFFCURVE",
"288 -172 OFFCURVE",
"267 -184 CURVE",
"287 -243 OFFCURVE",
"335 -271 OFFCURVE",
"386 -271 CURVE SMOOTH",
"471 -271 OFFCURVE",
"506 -204 OFFCURVE",
"506 -154 CURVE SMOOTH",
"506 -111 OFFCURVE",
"496 -84 OFFCURVE",
"469 -62 CURVE SMOOTH",
"452 -48 OFFCURVE",
"426 -48 OFFCURVE",
"426 -8 CURVE SMOOTH"
);
}
);
width = 693;
}
);
unicode = 00C7;
},
{
glyphname = D;
lastChange = "2016-08-26 20:33:13 +0000";
layers = (
{
hints = (
{
horizontal = 1;
place = "{0, 21}";
target = up;
type = BottomGhost;
},
{
horizontal = 1;
place = "{700, -20}";
target = down;
type = TopGhost;
}
);
layerId = UUID0;
paths = (
{
closed = 1;
nodes = (
"246 0 LINE SMOOTH",
"437 0 OFFCURVE",
"598 136 OFFCURVE",
"598 350 CURVE SMOOTH",
"598 508 OFFCURVE",
"494 700 OFFCURVE",
"212 700 CURVE SMOOTH",
"69 700 LINE",
"69 0 LINE"
);
},
{
closed = 1;
nodes = (
"83 238 OFFCURVE",
"83 461 OFFCURVE",
"83 685 CURVE",
"221 685 LINE SMOOTH",
"486 685 OFFCURVE",
"585 501 OFFCURVE",
"585 350 CURVE SMOOTH",
"585 144 OFFCURVE",
"432 14 OFFCURVE",
"252 14 CURVE",
"83 14 LINE"
);
}
);
width = 653;
},
{
hints = (
{
horizontal = 1;
place = "{79, 21}";
target = up;
type = BottomGhost;
},
{
horizontal = 1;
place = "{622, -20}";
target = down;
type = TopGhost;
}
);
layerId = UUID1;
paths = (
{
closed = 1;
nodes = (
"323 0 LINE SMOOTH",
"523 0 OFFCURVE",
"693 136 OFFCURVE",
"693 355 CURVE SMOOTH",
"693 540 OFFCURVE",
"584 736 OFFCURVE",
"287 736 CURVE SMOOTH",
"87 736 LINE",
"87 0 LINE"
);
},
{
closed = 1;
nodes = (
"237 291 OFFCURVE",
"237 444 OFFCURVE",
"237 592 CURVE",
"325 592 LINE SMOOTH",
"393 592 OFFCURVE",
"542 553 OFFCURVE",
"542 365 CURVE SMOOTH",
"542 218 OFFCURVE",
"442 142 OFFCURVE",
"298 142 CURVE",
"237 142 LINE"
);
}
);
width = 726;
}
);
unicode = 0044;
},
{
glyphname = Eth;
lastChange = "2016-08-26 20:50:49 +0000";
layers = (
{
hints = (
{
horizontal = 1;
place = "{0, 21}";
target = up;
type = BottomGhost;
},
{
horizontal = 1;
place = "{700, -20}";
target = down;
type = TopGhost;
}
);
layerId = UUID0;
paths = (
{
closed = 1;
nodes = (
"246 0 LINE SMOOTH",
"437 0 OFFCURVE",
"598 136 OFFCURVE",
"598 350 CURVE SMOOTH",
"598 508 OFFCURVE",
"494 700 OFFCURVE",
"212 700 CURVE SMOOTH",
"69 700 LINE",
"69 0 LINE"
);
},
{
closed = 1;
nodes = (
"292 346 LINE",
"292 360 LINE",
"11 360 LINE",
"11 346 LINE"
);
},
{
closed = 1;
nodes = (
"83 238 OFFCURVE",
"83 461 OFFCURVE",
"83 685 CURVE",
"221 685 LINE SMOOTH",
"486 685 OFFCURVE",
"585 501 OFFCURVE",
"585 350 CURVE SMOOTH",
"585 144 OFFCURVE",
"432 14 OFFCURVE",
"252 14 CURVE SMOOTH",
"83 14 LINE"
);
}
);
width = 683;
},
{
hints = (
{
horizontal = 1;
place = "{0, 21}";
target = up;
type = BottomGhost;
},
{
horizontal = 1;
place = "{700, -20}";
target = down;
type = TopGhost;
}
);
layerId = UUID1;
paths = (
{
closed = 1;
nodes = (
"323 0 LINE SMOOTH",
"523 0 OFFCURVE",
"693 136 OFFCURVE",
"693 355 CURVE SMOOTH",
"693 540 OFFCURVE",
"584 736 OFFCURVE",
"287 736 CURVE SMOOTH",
"87 736 LINE",
"87 0 LINE"
);
},
{
closed = 1;
nodes = (
"319 306 LINE",
"319 405 LINE",
"11 405 LINE",
"11 306 LINE"
);
},
{
closed = 1;
nodes = (
"237 291 OFFCURVE",
"237 444 OFFCURVE",
"237 592 CURVE",
"325 592 LINE SMOOTH",
"393 592 OFFCURVE",
"542 553 OFFCURVE",
"542 365 CURVE SMOOTH",
"542 218 OFFCURVE",
"442 142 OFFCURVE",
"298 142 CURVE SMOOTH",
"237 142 LINE"
);
}
);
width = 651;
}
);
unicode = 00D0;
},
{
glyphname = Dcroat;
lastChange = "2016-08-26 20:32:07 +0000";
layers = (
{
components = (
{
name = D;
}
);
layerId = UUID0;
paths = (
{
closed = 1;
nodes = (
"11 386 LINE",
"292 386 LINE",
"292 400 LINE",
"11 400 LINE"
);
}
);
width = 653;
},
{
components = (
{
name = D;
}
);
layerId = UUID1;
paths = (
{
closed = 1;
nodes = (
"11 316 LINE",
"319 316 LINE",
"319 415 LINE",
"11 415 LINE"
);
}
);
width = 726;
}
);
unicode = 0110;
},
{
glyphname = E;
lastChange = "2016-08-26 20:32:07 +0000";
layers = (
{
hints = (
{
horizontal = 1;
place = "{0, 21}";
target = up;
type = BottomGhost;
},
{
horizontal = 1;
place = "{700, -20}";
target = down;
type = TopGhost;
}
);
layerId = UUID0;
paths = (
{
closed = 1;
nodes = (
"80 0 LINE",
"509 0 LINE",
"509 14 LINE",
"94 14 LINE",
"94 346 LINE",
"456 346 LINE",
"456 360 LINE",
"94 360 LINE",
"94 686 LINE",
"495 686 LINE",
"495 700 LINE",
"80 700 LINE"
);
}
);
width = 551;
},
{
hints = (
{
horizontal = 1;
place = "{0, 21}";
target = up;
type = BottomGhost;
},
{
horizontal = 1;
place = "{700, -20}";
target = down;
type = TopGhost;
}
);
layerId = UUID1;
paths = (
{
closed = 1;
nodes = (
"82 0 LINE",
"598 0 LINE",
"598 139 LINE",
"232 139 LINE",
"232 299 LINE",
"543 299 LINE",
"543 437 LINE",
"232 437 LINE",
"232 601 LINE",
"584 601 LINE",
"584 736 LINE",
"82 736 LINE"
);
}
);
width = 653;
}
);
unicode = 0045;
},
{
glyphname = F;
lastChange = "2016-08-26 20:32:07 +0000";
layers = (
{
hints = (
{
horizontal = 1;
place = "{0, 21}";
target = up;
type = BottomGhost;
},
{
horizontal = 1;
place = "{700, -20}";
target = down;
type = TopGhost;
}
);
layerId = UUID0;
paths = (
{
closed = 1;
nodes = (
"70 0 LINE",
"84 0 LINE",
"84 336 LINE",
"406 336 LINE",
"406 350 LINE",
"84 350 LINE",
"84 686 LINE",
"445 686 LINE",
"445 700 LINE",
"70 700 LINE"
);
}
);
width = 495;
},
{
hints = (
{
horizontal = 1;
place = "{0, 21}";
target = up;
type = BottomGhost;
},
{
horizontal = 1;
place = "{700, -20}";
target = down;
type = TopGhost;
}
);
layerId = UUID1;
paths = (
{
closed = 1;
nodes = (
"87 0 LINE",
"237 0 LINE",
"237 289 LINE",
"505 289 LINE",
"505 428 LINE",
"237 428 LINE",
"237 598 LINE",
"547 598 LINE",
"547 736 LINE",
"87 736 LINE"
);
}
);
width = 593;
}
);
unicode = 0046;
},
{
glyphname = G;
lastChange = "2016-08-26 20:32:07 +0000";
layers = (
{
hints = (
{
horizontal = 1;
place = "{708, -20}";
target = down;
type = TopGhost;
},
{
horizontal = 1;
place = "{-8, 21}";
target = up;
type = BottomGhost;
}
);
layerId = UUID0;
paths = (
{
closed = 1;
nodes = (
"609 300 LINE",
"423 300 LINE",
"423 286 LINE",
"595 286 LINE",
"595 51 LINE",
"544 22 OFFCURVE",
"486 6 OFFCURVE",
"424 6 CURVE SMOOTH",
"217 6 OFFCURVE",
"84 159 OFFCURVE",
"84 348 CURVE SMOOTH",
"84 538 OFFCURVE",
"238 694 OFFCURVE",
"427 694 CURVE SMOOTH",
"490 694 OFFCURVE",
"551 677 OFFCURVE",
"602 646 CURVE",
"610 658 LINE",
"556 690 OFFCURVE",
"494 708 OFFCURVE",
"427 708 CURVE SMOOTH",
"230 708 OFFCURVE",
"70 547 OFFCURVE",
"70 349 CURVE SMOOTH",
"70 152 OFFCURVE",
"210 -8 OFFCURVE",
"427 -8 CURVE SMOOTH",
"494 -8 OFFCURVE",
"556 11 OFFCURVE",
"609 42 CURVE"
);
}
);
width = 665;
},
{
hints = (
{
horizontal = 1;
place = "{708, -20}";
target = down;
type = TopGhost;
},
{
horizontal = 1;
place = "{-8, 21}";
target = up;
type = BottomGhost;
}
);
layerId = UUID1;
paths = (
{
closed = 1;
nodes = (
"660 367 LINE",
"395 367 LINE",
"395 239 LINE",
"522 239 LINE",
"522 142 LINE",
"490 134 OFFCURVE",
"448 133 OFFCURVE",
"431 133 CURVE SMOOTH",
"296 133 OFFCURVE",
"197 241 OFFCURVE",
"197 360 CURVE SMOOTH",
"197 498 OFFCURVE",
"313 603 OFFCURVE",
"434 603 CURVE SMOOTH",
"478 603 OFFCURVE",
"548 589 OFFCURVE",
"583 569 CURVE",
"656 691 LINE",
"600 725 OFFCURVE",
"507 744 OFFCURVE",
"437 744 CURVE SMOOTH",
"230 744 OFFCURVE",
"47 586 OFFCURVE",
"47 347 CURVE SMOOTH",
"47 141 OFFCURVE",
"194 -8 OFFCURVE",
"427 -8 CURVE SMOOTH",
"513 -8 OFFCURVE",
"604 11 OFFCURVE",
"660 44 CURVE"
);
}
);
width = 748;
}
);
unicode = 0047;
},
{
glyphname = H;
lastChange = "2016-08-26 20:32:07 +0000";
layers = (
{
hints = (
{
horizontal = 1;
place = "{0, 21}";
target = up;
type = BottomGhost;
},
{
horizontal = 1;
place = "{700, -20}";
target = down;
type = TopGhost;
}
);
layerId = UUID0;
paths = (
{
closed = 1;
nodes = (
"618 700 LINE",
"618 360 LINE",
"154 360 LINE",
"154 700 LINE",
"140 700 LINE",
"140 0 LINE",
"154 0 LINE",
"154 346 LINE",
"618 346 LINE",
"618 0 LINE",
"632 0 LINE",
"633 233 OFFCURVE",
"635 467 OFFCURVE",
"636 700 CURVE"
);
}
);
width = 774;
},
{
hints = (
{
horizontal = 1;
place = "{0, 21}";
target = up;
type = BottomGhost;
},
{
horizontal = 1;
place = "{700, -20}";
target = down;
type = TopGhost;
}
);
layerId = UUID1;
paths = (
{
closed = 1;
nodes = (
"612 736 LINE",
"612 441 LINE",
"293 441 LINE",
"293 736 LINE",
"143 736 LINE",
"143 0 LINE",
"293 0 LINE",
"293 299 LINE",
"612 299 LINE",
"612 0 LINE",
"762 0 LINE",
"762 0 OFFCURVE",
"762 736 OFFCURVE",
"762 736 CURVE"
);
}
);
width = 902;
}
);
unicode = 0048;
},
{
glyphname = Hbar;
lastChange = "2016-08-26 20:32:07 +0000";
layers = (
{
components = (
{
name = H;
}
);
hints = (
{
horizontal = 1;
place = "{492, 21}";
target = up;
type = BottomGhost;
},
{
horizontal = 1;
place = "{506, -20}";
target = down;
type = TopGhost;
}
);
layerId = UUID0;
paths = (
{
closed = 1;
nodes = (
"62 492 LINE",
"712 492 LINE",
"712 506 LINE",
"62 506 LINE"
);
}
);
width = 774;
},
{
components = (
{
name = H;
}
);
hints = (
{
horizontal = 1;
place = "{478, 21}";
target = up;
type = BottomGhost;
},
{
horizontal = 1;
place = "{531, -20}";
target = down;
type = TopGhost;
}
);
layerId = UUID1;
paths = (
{
closed = 1;
nodes = (
"63 529 LINE",
"838 529 LINE",
"838 606 LINE",
"63 606 LINE"
);
}
);
width = 902;
}
);
unicode = 0126;
},
{
glyphname = I;
lastChange = "2016-08-26 20:32:07 +0000";
layers = (
{
hints = (
{
horizontal = 1;
place = "{0, 21}";
target = up;
type = BottomGhost;
},
{
horizontal = 1;
place = "{700, -20}";
target = down;
type = TopGhost;
}
);
layerId = UUID0;
paths = (
{
closed = 1;
nodes = (
"140 0 LINE",
"154 0 LINE",
"154 700 LINE",
"140 700 LINE"
);
}
);
width = 294;
},
{
hints = (
{
horizontal = 1;
place = "{0, 21}";
target = up;
type = BottomGhost;
},
{
horizontal = 1;
place = "{700, -20}";
target = down;
type = TopGhost;
}
);
layerId = UUID1;
paths = (
{
closed = 1;
nodes = (
"93 0 LINE",
"243 0 LINE",
"243 736 LINE",
"93 736 LINE"
);
}
);
width = 330;
}
);
unicode = 0049;
},
{
glyphname = J;
lastChange = "2016-08-26 20:32:07 +0000";
layers = (
{
hints = (
{
horizontal = 1;
place = "{-142, 21}";
target = up;
type = BottomGhost;
},
{
horizontal = 1;
place = "{700, -20}";
target = down;
type = TopGhost;
}
);
layerId = UUID0;
paths = (
{
closed = 1;
nodes = (
"175 700 LINE",
"161 700 LINE",
"161 93 LINE SMOOTH",
"161 -42 OFFCURVE",
"88 -123 OFFCURVE",
"-10 -128 CURVE",
"-10 -142 LINE",
"-10 -142 LINE",
"91 -138 OFFCURVE",
"175 -58 OFFCURVE",
"175 90 CURVE SMOOTH"
);
}
);
width = 315;
},
{
hints = (
{
horizontal = 1;
place = "{-144, 21}";
target = up;
type = BottomGhost;
},
{
horizontal = 1;
place = "{700, -20}";
target = down;
type = TopGhost;
}
);
layerId = UUID1;
paths = (
{
closed = 1;
nodes = (
"347 736 LINE",
"196 736 LINE",
"196 158 LINE SMOOTH",
"196 38 OFFCURVE",
"133 -7 OFFCURVE",
"42 -12 CURVE",
"42 -153 LINE",
"42 -153 LINE",
"219 -148 OFFCURVE",
"347 -37 OFFCURVE",
"347 155 CURVE SMOOTH"
);
}
);
width = 428;
}
);
unicode = 004A;
},
{
glyphname = K;
lastChange = "2016-08-26 20:32:07 +0000";
layers = (
{
hints = (
{
horizontal = 1;
place = "{0, 21}";
target = up;
type = BottomGhost;
},
{
horizontal = 1;
place = "{701, -20}";
target = down;
type = TopGhost;
},
{
horizontal = 1;
place = "{700, -20}";
target = down;
type = TopGhost;
}
);
layerId = UUID0;
paths = (
{
closed = 1;
nodes = (
"101 700 LINE",
"87 700 LINE",
"87 0 LINE",
"101 0 LINE",
"101 105 OFFCURVE",
"100 211 OFFCURVE",
"100 316 CURVE",
"135 349 OFFCURVE",
"169 381 OFFCURVE",
"204 414 CURVE",
"313 276 OFFCURVE",
"421 138 OFFCURVE",
"530 0 CURVE",
"550 0 LINE",
"438 141 OFFCURVE",
"327 283 OFFCURVE",
"215 424 CURVE",
"312 516 OFFCURVE",
"408 608 OFFCURVE",
"505 700 CURVE",
"497 700 OFFCURVE",
"491 700 OFFCURVE",
"483 700 CURVE",
"361 584 OFFCURVE",
"239 467 OFFCURVE",
"117 351 CURVE",
"111 344 OFFCURVE",
"106 338 OFFCURVE",
"100 331 CURVE",
"100 341 OFFCURVE",
"101 350 OFFCURVE",
"101 360 CURVE SMOOTH"
);
}
);
width = 573;
},
{
hints = (
{
horizontal = 1;
place = "{0, 21}";
target = up;
type = BottomGhost;
},
{
horizontal = 1;
place = "{700, -20}";
target = down;
type = TopGhost;
},
{
horizontal = 1;
place = "{700, -20}";
target = down;
type = TopGhost;
}
);
layerId = UUID1;
paths = (
{
closed = 1;
nodes = (
"255 736 LINE",
"89 736 LINE",
"89 0 LINE",
"255 0 LINE",
"255 102 OFFCURVE",
"255 175 OFFCURVE",
"255 278 CURVE",
"265 286 OFFCURVE",
"273 294 OFFCURVE",
"282 305 CURVE",
"369 192 OFFCURVE",
"425 111 OFFCURVE",
"513 0 CURVE",
"697 0 LINE",
"588 145 OFFCURVE",
"510 261 OFFCURVE",
"397 406 CURVE",
"496 514 OFFCURVE",
"597 628 OFFCURVE",
"696 736 CURVE",
"637 736 OFFCURVE",
"567 736 OFFCURVE",
"508 736 CURVE",
"426 657 OFFCURVE",
"355 563 OFFCURVE",
"273 485 CURVE",
"266 474 OFFCURVE",
"257 467 OFFCURVE",
"251 457 CURVE",
"252 470 OFFCURVE",
"255 482 OFFCURVE",
"255 494 CURVE SMOOTH"
);
}
);
width = 714;
}
);
unicode = 004B;
},
{
glyphname = L;
lastChange = "2016-08-26 20:32:07 +0000";
layers = (
{
hints = (
{
horizontal = 1;
place = "{0, 21}";
target = up;
type = BottomGhost;
},
{
horizontal = 1;
place = "{700, -20}";
target = down;
type = TopGhost;
}
);
layerId = UUID0;
paths = (
{
closed = 1;
nodes = (
"90 0 LINE",
"509 0 LINE",
"509 14 LINE",
"104 14 LINE",
"104 700 LINE",
"90 700 LINE"
);
}
);
width = 550;
},
{
hints = (
{
horizontal = 1;
place = "{0, 21}";
target = up;
type = BottomGhost;
},
{
horizontal = 1;
place = "{700, -20}";
target = down;
type = TopGhost;
}
);
layerId = UUID1;
paths = (
{
closed = 1;
nodes = (
"92 0 LINE",
"583 0 LINE",
"583 142 LINE",
"242 142 LINE",
"242 736 LINE",
"92 736 LINE"
);
}
);
width = 640;
}
);
unicode = 004C;
},
{
glyphname = Lslash;
lastChange = "2016-08-26 20:32:07 +0000";
layers = (
{
components = (
{
name = L;
}
);
hints = (
{
horizontal = 1;
place = "{179, 21}";
target = up;
type = BottomGhost;
},
{
horizontal = 1;
place = "{193, -20}";
target = down;
type = TopGhost;
}
);
layerId = UUID0;
paths = (
{
closed = 1;
nodes = (
"23 293 LINE",
"23 279 LINE",
"337 394 LINE",
"337 408 LINE"
);
}
);
width = 550;
},
{
components = (
{
name = L;
}
);
hints = (
{
horizontal = 1;
place = "{327, 21}";
target = up;
type = BottomGhost;
},
{
horizontal = 1;
place = "{408, -20}";
target = down;
type = TopGhost;
}
);
layerId = UUID1;
paths = (
{
closed = 1;
nodes = (
"15 346 LINE",
"15 225 LINE",
"441 351 LINE",
"441 472 LINE"
);
}
);
width = 640;
}
);
unicode = 0141;
},
{
glyphname = M;
lastChange = "2016-08-26 20:32:07 +0000";
layers = (
{
hints = (
{
horizontal = 1;
place = "{0, 21}";
target = up;
type = BottomGhost;
},
{
horizontal = 1;
place = "{732, -20}";
target = down;
type = TopGhost;
}
);
layerId = UUID0;
paths = (
{
closed = 1;
nodes = (
"730 0 LINE",
"744 0 LINE",
"744 732 LINE",
"609 547 OFFCURVE",
"476 343 OFFCURVE",
"418 257 CURVE",
"305 417 OFFCURVE",
"217 545 OFFCURVE",
"92 732 CURVE",
"92 0 LINE",
"106 0 LINE",
"106 645 LINE SMOOTH",
"106 660 OFFCURVE",
"105 675 OFFCURVE",
"105 690 CURVE",
"154 615 OFFCURVE",
"328 346 OFFCURVE",
"418 228 CURVE",
"514 371 OFFCURVE",
"616 528 OFFCURVE",
"731 690 CURVE",
"731 675 OFFCURVE",
"730 660 OFFCURVE",
"730 645 CURVE SMOOTH"
);
}
);
width = 834;
},
{
hints = (
{
horizontal = 1;
place = "{0, 21}";
target = up;
type = BottomGhost;
},
{
horizontal = 1;
place = "{732, -20}";
target = down;
type = TopGhost;
}
);
layerId = UUID1;
paths = (
{
closed = 1;
nodes = (
"689 0 LINE",
"849 0 LINE",
"849 768 LINE",
"849 768 OFFCURVE",
"470 250 OFFCURVE",
"470 250 CURVE",
"470 250 OFFCURVE",
"91 768 OFFCURVE",
"91 768 CURVE",
"91 0 LINE",
"241 0 LINE",
"241 304 LINE SMOOTH",
"241 312 OFFCURVE",
"236 327 OFFCURVE",
"236 327 CURVE",
"236 327 OFFCURVE",
"470 9 OFFCURVE",
"470 9 CURVE",
"470 9 OFFCURVE",
"693 327 OFFCURVE",
"693 327 CURVE",
"693 327 OFFCURVE",
"689 312 OFFCURVE",
"689 304 CURVE SMOOTH"
);
}
);
width = 941;
}
);
unicode = 004D;
},
{
glyphname = N;
lastChange = "2016-08-26 20:32:07 +0000";
layers = (
{
hints = (
{
horizontal = 1;
place = "{732, -20}";
target = down;
type = TopGhost;
},
{
horizontal = 1;
place = "{-32, 21}";
target = up;
type = BottomGhost;
}
);
layerId = UUID0;
paths = (
{
closed = 1;
nodes = (
"111 0 LINE",
"125 0 LINE",
"125 664 LINE",
"124 675 OFFCURVE",
"123 685 OFFCURVE",
"122 696 CURVE",
"128 687 OFFCURVE",
"135 679 OFFCURVE",
"141 670 CURVE",
"314 439 OFFCURVE",
"492 205 OFFCURVE",
"682 -32 CURVE",
"682 700 LINE",
"668 700 LINE",
"668 34 LINE",
"669 23 OFFCURVE",
"670 13 OFFCURVE",
"671 2 CURVE",
"665 11 OFFCURVE",
"658 19 OFFCURVE",
"652 28 CURVE",
"469 262 OFFCURVE",
"303 489 OFFCURVE",
"111 732 CURVE"
);
}
);
width = 793;
},
{
hints = (
{
horizontal = 1;
place = "{732, -20}";
target = down;
type = TopGhost;
},
{
horizontal = 1;
place = "{-32, 21}";
target = up;
type = BottomGhost;
}
);
layerId = UUID1;
paths = (
{
closed = 1;
nodes = (
"113 0 LINE",
"263 0 LINE",
"263 398 LINE",
"262 409 OFFCURVE",
"261 419 OFFCURVE",
"260 430 CURVE",
"266 421 OFFCURVE",
"280 404 OFFCURVE",
"280 404 CURVE",
"280 404 OFFCURVE",
"776 -34 OFFCURVE",
"776 -34 CURVE",
"776 736 LINE",
"627 736 LINE",
"627 351 LINE",
"628 340 OFFCURVE",
"629 328 OFFCURVE",
"630 317 CURVE",
"624 326 OFFCURVE",
"611 345 OFFCURVE",
"611 345 CURVE",
"611 345 OFFCURVE",
"113 770 OFFCURVE",
"113 770 CURVE"
);
}
);
width = 892;
}
);
unicode = 004E;
},
{
glyphname = O;
lastChange = "2016-08-26 20:32:07 +0000";
layers = (
{
hints = (
{
horizontal = 1;
place = "{-8, 21}";
target = up;
type = BottomGhost;
},
{
horizontal = 1;
place = "{708, -20}";
target = down;
type = TopGhost;
}
);
layerId = UUID0;
paths = (
{
closed = 1;
nodes = (
"70 349 LINE",
"70 152 OFFCURVE",
"230 -8 OFFCURVE",
"427 -8 CURVE SMOOTH",
"625 -8 OFFCURVE",
"786 152 OFFCURVE",
"786 349 CURVE SMOOTH",
"786 547 OFFCURVE",
"625 708 OFFCURVE",
"427 708 CURVE SMOOTH",
"230 708 OFFCURVE",
"70 547 OFFCURVE",
"70 349 CURVE"
);
},
{
closed = 1;
nodes = (
"84 348 LINE",
"84 538 OFFCURVE",
"238 694 OFFCURVE",
"427 694 CURVE SMOOTH",
"616 694 OFFCURVE",
"772 538 OFFCURVE",
"772 349 CURVE SMOOTH",
"772 160 OFFCURVE",
"614 6 OFFCURVE",
"424 6 CURVE SMOOTH",
"237 6 OFFCURVE",
"84 159 OFFCURVE",
"84 348 CURVE"
);
}
);
width = 856;
},
{
hints = (
{
horizontal = 1;
place = "{71, 21}";
target = up;
type = BottomGhost;
},
{
horizontal = 1;
place = "{629, -20}";
target = down;
type = TopGhost;
}
);
layerId = UUID1;
paths = (
{
closed = 1;
nodes = (
"59 367 LINE",
"59 160 OFFCURVE",
"227 -8 OFFCURVE",
"434 -8 CURVE SMOOTH",
"639 -8 OFFCURVE",
"811 160 OFFCURVE",
"811 367 CURVE SMOOTH",
"811 570 OFFCURVE",
"639 744 OFFCURVE",
"434 744 CURVE SMOOTH",
"227 744 OFFCURVE",
"59 570 OFFCURVE",
"59 367 CURVE"
);
},
{
closed = 1;
nodes = (
"209 367 LINE",
"209 496 OFFCURVE",
"309 600 OFFCURVE",
"435 600 CURVE SMOOTH",
"560 600 OFFCURVE",
"662 496 OFFCURVE",
"662 367 CURVE SMOOTH",
"662 237 OFFCURVE",
"563 133 OFFCURVE",
"439 133 CURVE SMOOTH",
"311 133 OFFCURVE",
"209 238 OFFCURVE",
"209 367 CURVE"
);
}
);
width = 885;
}
);
unicode = 004F;
},
{
glyphname = Oslash;
lastChange = "2016-08-26 20:32:07 +0000";
layers = (
{
components = (
{
name = O;
}
);
hints = (
{
horizontal = 1;
place = "{-8, 21}";
target = up;
type = BottomGhost;
},
{
horizontal = 1;
place = "{708, -20}";
target = down;
type = TopGhost;
}
);
layerId = UUID0;
paths = (
{
closed = 1;
nodes = (
"704 716 LINE",
"564 547 OFFCURVE",
"252 176 OFFCURVE",
"112 8 CURVE",
"120 0 LINE",
"260 168 OFFCURVE",
"572 540 OFFCURVE",
"712 708 CURVE"
);
}
);
width = 836;
},
{
components = (
{
name = O;
}
);
hints = (
{
horizontal = 1;
place = "{-17, 21}";
target = up;
type = BottomGhost;
},
{
horizontal = 1;
place = "{719, -20}";
target = down;
type = TopGhost;
}
);
layerId = UUID1;
paths = (
{
closed = 1;
nodes = (
"701 739 LINE",
"591 612 OFFCURVE",
"206 166 OFFCURVE",
"96 40 CURVE",
"168 -23 LINE",
"277 103 OFFCURVE",
"661 549 OFFCURVE",
"771 675 CURVE"
);
}
);
width = 858;
}
);
unicode = 00D8;
},
{
glyphname = OE;
lastChange = "2016-08-26 20:32:07 +0000";
layers = (
{
hints = (
{
horizontal = 1;
place = "{-8, 21}";
target = up;
type = BottomGhost;
},
{
horizontal = 1;
place = "{708, -20}";
target = down;
type = TopGhost;
},
{
horizontal = 1;
place = "{0, 21}";
target = up;
type = BottomGhost;
},
{
horizontal = 1;
place = "{700, -20}";
target = down;
type = TopGhost;
}
);
layerId = UUID0;
paths = (
{
closed = 1;
nodes = (
"518 696 LINE",
"489 704 OFFCURVE",
"459 708 OFFCURVE",
"427 708 CURVE SMOOTH",
"230 708 OFFCURVE",
"70 547 OFFCURVE",
"70 349 CURVE SMOOTH",
"70 152 OFFCURVE",
"230 -8 OFFCURVE",
"427 -8 CURVE SMOOTH",
"458 -8 OFFCURVE",
"488 -4 OFFCURVE",
"516 3 CURVE",
"501 15 LINE",
"476 9 OFFCURVE",
"451 6 OFFCURVE",
"424 6 CURVE SMOOTH",
"237 6 OFFCURVE",
"84 159 OFFCURVE",
"84 348 CURVE SMOOTH",
"84 538 OFFCURVE",
"238 694 OFFCURVE",
"427 694 CURVE SMOOTH",
"453 694 OFFCURVE",
"478 691 OFFCURVE",
"502 686 CURVE"
);
},
{
closed = 1;
nodes = (
"496 0 LINE",
"895 0 LINE",
"895 14 LINE",
"510 14 LINE",
"510 346 LINE",
"842 346 LINE",
"842 360 LINE",
"510 360 LINE",
"510 686 LINE",
"881 686 LINE",
"881 700 LINE",
"496 700 LINE"
);
}
);
width = 988;
},
{
hints = (
{
horizontal = 1;
place = "{71, 21}";
target = up;
type = BottomGhost;
},
{
horizontal = 1;
place = "{629, -20}";
target = down;
type = TopGhost;
},
{
horizontal = 1;
place = "{0, 21}";
target = up;
type = BottomGhost;
},
{
horizontal = 1;
place = "{700, -20}";
target = down;
type = TopGhost;
}
);
layerId = UUID1;
paths = (
{
closed = 1;
nodes = (
"529 731 LINE",
"499 739 OFFCURVE",
"467 744 OFFCURVE",
"434 744 CURVE SMOOTH",
"227 744 OFFCURVE",
"59 570 OFFCURVE",
"59 367 CURVE SMOOTH",
"59 160 OFFCURVE",
"227 -8 OFFCURVE",
"434 -8 CURVE SMOOTH",
"466 -8 OFFCURVE",
"496 -4 OFFCURVE",
"526 4 CURVE",
"489 139 LINE",
"473 135 OFFCURVE",
"456 133 OFFCURVE",
"439 133 CURVE SMOOTH",
"311 133 OFFCURVE",
"209 238 OFFCURVE",
"209 367 CURVE SMOOTH",
"209 496 OFFCURVE",
"309 600 OFFCURVE",
"435 600 CURVE SMOOTH",
"452 600 OFFCURVE",
"468 598 OFFCURVE",
"484 594 CURVE"
);
},
{
closed = 1;
nodes = (
"477 0 LINE",
"963 0 LINE",
"963 139 LINE",
"627 139 LINE",
"627 299 LINE",
"908 299 LINE",
"908 437 LINE",
"627 437 LINE",
"627 601 LINE",
"949 601 LINE",
"949 736 LINE",
"477 736 LINE"
);
}
);
width = 1021;
}
);
unicode = 0152;
},
{
glyphname = P;
lastChange = "2016-08-26 20:32:07 +0000";
layers = (
{
hints = (
{
horizontal = 1;
place = "{0, 21}";
target = up;
type = BottomGhost;
},
{
horizontal = 1;
place = "{700, -20}";
target = down;
type = TopGhost;
}
);
layerId = UUID0;
paths = (
{
closed = 1;
nodes = (
"80 700 LINE",
"80 0 LINE",
"94 0 LINE",
"94 321 LINE",
"206 321 LINE SMOOTH",
"355 321 OFFCURVE",
"420 416 OFFCURVE",
"420 516 CURVE SMOOTH",
"420 654 OFFCURVE",
"297 700 OFFCURVE",
"220 700 CURVE SMOOTH"
);
},
{
closed = 1;
nodes = (
"94 335 LINE",
"94 686 LINE",
"210 686 LINE SMOOTH",
"321 686 OFFCURVE",
"406 620 OFFCURVE",
"406 518 CURVE SMOOTH",
"406 446 OFFCURVE",
"364 335 OFFCURVE",
"209 335 CURVE SMOOTH"
);
}
);
width = 475;
},
{
hints = (
{
horizontal = 1;
place = "{0, 21}";
target = up;
type = BottomGhost;
},
{
horizontal = 1;
place = "{700, -20}";
target = down;
type = TopGhost;
}
);
layerId = UUID1;
paths = (
{
closed = 1;
nodes = (
"82 736 LINE",
"82 0 LINE",
"232 0 LINE",
"232 233 LINE",
"331 233 LINE SMOOTH",
"523 233 OFFCURVE",
"588 367 OFFCURVE",
"588 488 CURVE SMOOTH",
"588 639 OFFCURVE",
"487 736 OFFCURVE",
"305 736 CURVE SMOOTH"
);
},
{
closed = 1;
nodes = (
"232 374 LINE",
"232 596 LINE",
"326 596 LINE SMOOTH",
"428 596 OFFCURVE",
"438 513 OFFCURVE",
"438 484 CURVE SMOOTH",
"438 446 OFFCURVE",
"413 374 OFFCURVE",
"325 374 CURVE SMOOTH"
);
}
);
width = 635;
}
);
unicode = 0050;
},
{
glyphname = Thorn;
lastChange = "2016-08-26 20:32:07 +0000";
layers = (
{
hints = (
{
horizontal = 1;
place = "{700, -20}";
target = down;
type = TopGhost;
},
{
horizontal = 1;
place = "{0, 21}";
target = up;
type = BottomGhost;
}
);
layerId = UUID0;
paths = (
{
closed = 1;
nodes = (
"84 535 LINE",
"84 700 LINE",
"70 700 LINE",
"70 0 LINE",
"84 0 LINE",
"84 156 LINE",
"196 156 LINE SMOOTH",
"345 156 OFFCURVE",
"410 251 OFFCURVE",
"410 351 CURVE SMOOTH",
"410 489 OFFCURVE",
"287 535 OFFCURVE",
"210 535 CURVE SMOOTH"
);
},
{
closed = 1;
nodes = (
"84 170 LINE",
"84 521 LINE",
"200 521 LINE SMOOTH",
"311 521 OFFCURVE",
"396 455 OFFCURVE",
"396 353 CURVE SMOOTH",
"396 281 OFFCURVE",
"354 170 OFFCURVE",
"199 170 CURVE SMOOTH"
);
}
);
width = 470;
},
{
hints = (
{
horizontal = 1;
place = "{700, -20}";
target = down;
type = TopGhost;
},
{
horizontal = 1;
place = "{0, 21}";
target = up;
type = BottomGhost;
}
);
layerId = UUID1;
paths = (
{
closed = 1;
nodes = (
"232 616 LINE",
"232 714 LINE",
"82 714 LINE",
"82 0 LINE",
"232 0 LINE",
"232 113 LINE",
"331 113 LINE SMOOTH",
"523 113 OFFCURVE",
"588 247 OFFCURVE",
"588 368 CURVE SMOOTH",
"588 519 OFFCURVE",
"487 616 OFFCURVE",
"305 616 CURVE SMOOTH"
);
},
{
closed = 1;
nodes = (
"232 254 LINE",
"232 476 LINE",
"326 476 LINE SMOOTH",
"428 476 OFFCURVE",
"438 393 OFFCURVE",
"438 364 CURVE SMOOTH",
"438 326 OFFCURVE",
"413 254 OFFCURVE",
"325 254 CURVE SMOOTH"
);
}
);
width = 518;
}
);
unicode = 00DE;
},
{
glyphname = Q;
lastChange = "2016-08-26 20:32:07 +0000";
layers = (
{
hints = (
{
horizontal = 1;
place = "{-8, 21}";
target = up;
type = BottomGhost;
},
{
horizontal = 1;
place = "{708, -20}";
target = down;
type = TopGhost;
}
);
layerId = UUID0;
paths = (
{
closed = 1;
nodes = (
"798 0 LINE",
"798 14 LINE",
"541 14 LINE",
"678 64 OFFCURVE",
"776 195 OFFCURVE",
"776 349 CURVE SMOOTH",
"776 547 OFFCURVE",
"615 708 OFFCURVE",
"417 708 CURVE SMOOTH",
"220 708 OFFCURVE",
"60 547 OFFCURVE",
"60 349 CURVE SMOOTH",
"60 349 LINE SMOOTH",
"60 152 OFFCURVE",
"220 -8 OFFCURVE",
"417 -8 CURVE SMOOTH",
"442 -8 OFFCURVE",
"467 -5 OFFCURVE",
"491 0 CURVE"
);
},
{
closed = 1;
nodes = (
"74 348 LINE SMOOTH",
"74 538 OFFCURVE",
"228 694 OFFCURVE",
"417 694 CURVE SMOOTH",
"606 694 OFFCURVE",
"762 538 OFFCURVE",
"762 349 CURVE SMOOTH",
"762 160 OFFCURVE",
"604 6 OFFCURVE",
"414 6 CURVE SMOOTH",
"227 6 OFFCURVE",
"74 159 OFFCURVE",
"74 348 CURVE SMOOTH"
);
}
);
width = 858;
},
{
hints = (
{
horizontal = 1;
place = "{-8, 21}";
target = up;
type = BottomGhost;
},
{
horizontal = 1;
place = "{708, -20}";
target = down;
type = TopGhost;
}
);
layerId = UUID1;
paths = (
{
closed = 1;
nodes = (
"843 0 LINE",
"843 142 LINE",
"774 130 LINE",
"807 214 OFFCURVE",
"819 288 OFFCURVE",
"819 367 CURVE SMOOTH",
"819 570 OFFCURVE",
"647 744 OFFCURVE",
"442 744 CURVE SMOOTH",
"235 744 OFFCURVE",
"67 570 OFFCURVE",
"67 367 CURVE SMOOTH",
"67 367 LINE SMOOTH",
"67 160 OFFCURVE",
"235 -8 OFFCURVE",
"442 -8 CURVE SMOOTH",
"469 -8 OFFCURVE",
"494 -5 OFFCURVE",
"521 0 CURVE"
);
},
{
closed = 1;
nodes = (
"217 367 LINE SMOOTH",
"217 496 OFFCURVE",
"317 600 OFFCURVE",
"443 600 CURVE SMOOTH",
"568 600 OFFCURVE",
"670 496 OFFCURVE",
"670 367 CURVE SMOOTH",
"670 237 OFFCURVE",
"571 133 OFFCURVE",
"447 133 CURVE SMOOTH",
"319 133 OFFCURVE",
"217 238 OFFCURVE",
"217 367 CURVE SMOOTH"
);
}
);
width = 870;
}
);
unicode = 0051;
},
{
glyphname = R;
lastChange = "2016-08-26 20:32:07 +0000";
layers = (
{
hints = (
{
horizontal = 1;
place = "{0, 21}";
target = up;
type = BottomGhost;
},
{
horizontal = 1;
place = "{700, -20}";
target = down;
type = TopGhost;
}
);
layerId = UUID0;
paths = (
{
closed = 1;
nodes = (
"90 700 LINE",
"90 0 LINE",
"104 0 LINE",
"104 321 LINE",
"216 321 LINE SMOOTH",
"365 321 OFFCURVE",
"430 416 OFFCURVE",
"430 516 CURVE SMOOTH",
"430 654 OFFCURVE",
"307 700 OFFCURVE",
"230 700 CURVE SMOOTH"
);
},
{
closed = 1;
nodes = (
"104 335 LINE",
"104 686 LINE",
"220 686 LINE SMOOTH",
"331 686 OFFCURVE",
"416 619 OFFCURVE",
"416 520 CURVE SMOOTH",
"416 451 OFFCURVE",
"374 335 OFFCURVE",
"219 335 CURVE SMOOTH"
);
},
{
closed = 1;
nodes = (
"286 337 LINE",
"286 337 OFFCURVE",
"486 0 OFFCURVE",
"486 0 CURVE",
"504 0 LINE",
"504 0 OFFCURVE",
"302 337 OFFCURVE",
"302 337 CURVE"
);
}
);
width = 512;
},
{
hints = (
{
horizontal = 1;
place = "{0, 21}";
target = up;
type = BottomGhost;
},
{
horizontal = 1;
place = "{700, -20}";
target = down;
type = TopGhost;
}
);
layerId = UUID1;
paths = (
{
closed = 1;
nodes = (
"92 736 LINE",
"92 0 LINE",
"242 0 LINE",
"242 233 LINE",
"341 233 LINE SMOOTH",
"533 233 OFFCURVE",
"598 367 OFFCURVE",
"598 488 CURVE SMOOTH",
"598 639 OFFCURVE",
"497 736 OFFCURVE",
"315 736 CURVE SMOOTH"
);
},
{
closed = 1;
nodes = (
"242 374 LINE",
"242 596 LINE",
"336 596 LINE SMOOTH",
"438 596 OFFCURVE",
"448 514 OFFCURVE",
"448 483 CURVE SMOOTH",
"448 441 OFFCURVE",
"423 374 OFFCURVE",
"335 374 CURVE SMOOTH"
);
},
{
closed = 1;
nodes = (
"303 280 LINE",
"374 176 OFFCURVE",
"400 139 OFFCURVE",
"489 0 CURVE",
"668 0 LINE",
"575 144 OFFCURVE",
"563 161 OFFCURVE",
"486 284 CURVE"
);
}
);
width = 693;
}
);
unicode = 0052;
},
{
glyphname = S;
lastChange = "2016-08-26 20:32:07 +0000";
layers = (
{
hints = (
{
horizontal = 1;
place = "{704, -20}";
target = down;
type = TopGhost;
},
{
horizontal = 1;
place = "{-8, 21}";
target = up;
type = BottomGhost;
}
);
layerId = UUID0;
paths = (
{
closed = 1;
nodes = (
"453 667 LINE",
"453 667 LINE",
"405 689 OFFCURVE",
"329 704 OFFCURVE",
"281 704 CURVE SMOOTH",
"177 704 OFFCURVE",
"95 635 OFFCURVE",
"95 543 CURVE SMOOTH",
"95 345 OFFCURVE",
"475 425 OFFCURVE",
"475 187 CURVE SMOOTH",
"475 65 OFFCURVE",
"374 6 OFFCURVE",
"275 6 CURVE SMOOTH",
"193 6 OFFCURVE",
"112 47 OFFCURVE",
"72 76 CURVE",
"64 63 LINE",
"87 49 OFFCURVE",
"163 -8 OFFCURVE",
"272 -8 CURVE SMOOTH",
"397 -8 OFFCURVE",
"489 66 OFFCURVE",
"489 188 CURVE SMOOTH",
"489 437 OFFCURVE",
"109 360 OFFCURVE",
"109 546 CURVE SMOOTH",
"109 624 OFFCURVE",
"177 691 OFFCURVE",
"287 691 CURVE SMOOTH",
"345 691 OFFCURVE",
"411 672 OFFCURVE",
"447 656 CURVE"
);
}
);
width = 555;
},
{
hints = (
{
horizontal = 1;
place = "{704, -20}";
target = down;
type = TopGhost;
},
{
horizontal = 1;
place = "{-8, 21}";
target = up;
type = BottomGhost;
}
);
layerId = UUID1;
paths = (
{
closed = 1;
nodes = (
"550 693 LINE",
"550 693 LINE",
"550 693 OFFCURVE",
"445 740 OFFCURVE",
"329 740 CURVE SMOOTH",
"149 740 OFFCURVE",
"70 627 OFFCURVE",
"70 524 CURVE SMOOTH",
"70 307 OFFCURVE",
"424 332 OFFCURVE",
"424 216 CURVE SMOOTH",
"424 147 OFFCURVE",
"299 138 OFFCURVE",
"264 138 CURVE SMOOTH",
"223 138 OFFCURVE",
"155 150 OFFCURVE",
"96 181 CURVE",
"31 50 LINE",
"80 21 OFFCURVE",
"152 -8 OFFCURVE",
"271 -8 CURVE SMOOTH",
"479 -8 OFFCURVE",
"572 81 OFFCURVE",
"572 209 CURVE SMOOTH",
"572 458 OFFCURVE",
"218 419 OFFCURVE",
"218 533 CURVE SMOOTH",
"218 575 OFFCURVE",
"265 603 OFFCURVE",
"338 603 CURVE SMOOTH",
"383 603 OFFCURVE",
"436 592 OFFCURVE",
"497 571 CURVE"
);
}
);
width = 630;
}
);
unicode = 0053;
},
{
glyphname = T;
lastChange = "2016-08-26 20:32:07 +0000";
layers = (
{
hints = (
{
horizontal = 1;
place = "{700, -20}";
target = down;
type = TopGhost;
},
{
horizontal = 1;
place = "{0, 21}";
target = up;
type = BottomGhost;
}
);
layerId = UUID0;
paths = (
{
closed = 1;
nodes = (
"42 686 LINE",
"242 686 LINE",
"242 0 LINE",
"256 0 LINE",
"256 686 LINE",
"456 686 LINE",
"456 700 LINE",
"42 700 LINE"
);
}
);
width = 498;
},
{
hints = (
{
horizontal = 1;
place = "{700, -20}";
target = down;
type = TopGhost;
},
{
horizontal = 1;
place = "{0, 21}";
target = up;
type = BottomGhost;
}
);
layerId = UUID1;
paths = (
{
closed = 1;
nodes = (
"43 593 LINE",
"213 593 LINE",
"213 0 LINE",
"363 0 LINE",
"363 593 LINE",
"539 593 LINE",
"539 736 LINE",
"43 736 LINE"
);
}
);
width = 576;
}
);
unicode = 0054;
},
{
glyphname = U;
lastChange = "2016-08-26 20:32:07 +0000";
layers = (
{
hints = (
{
horizontal = 1;
place = "{-8, 21}";
target = up;
type = BottomGhost;
},
{
horizontal = 1;
place = "{700, -20}";
target = down;
type = TopGhost;
}
);
layerId = UUID0;
paths = (
{
closed = 1;
nodes = (
"104 700 LINE",
"90 700 LINE",
"90 226 LINE SMOOTH",
"90 73 OFFCURVE",
"186 -8 OFFCURVE",
"315 -8 CURVE SMOOTH",
"315 -8 LINE SMOOTH",
"442 -8 OFFCURVE",
"540 73 OFFCURVE",
"540 226 CURVE SMOOTH",
"540 700 LINE",
"526 700 LINE",
"526 229 LINE SMOOTH",
"526 86 OFFCURVE",
"436 6 OFFCURVE",
"315 6 CURVE SMOOTH",
"192 6 OFFCURVE",
"104 86 OFFCURVE",
"104 229 CURVE SMOOTH"
);
}
);
width = 630;
},
{
hints = (
{
horizontal = 1;
place = "{-8, 21}";
target = up;
type = BottomGhost;
},
{
horizontal = 1;
place = "{700, -20}";
target = down;
type = TopGhost;
}
);
layerId = UUID1;
paths = (
{
closed = 1;
nodes = (
"242 736 LINE",
"92 736 LINE",
"92 269 LINE SMOOTH",
"92 107 OFFCURVE",
"224 -8 OFFCURVE",
"389 -8 CURVE SMOOTH",
"389 -8 LINE SMOOTH",
"555 -8 OFFCURVE",
"688 107 OFFCURVE",
"688 269 CURVE SMOOTH",
"688 736 LINE",
"538 736 LINE",
"538 272 LINE SMOOTH",
"538 202 OFFCURVE",
"471 133 OFFCURVE",
"389 133 CURVE SMOOTH",
"307 133 OFFCURVE",
"242 202 OFFCURVE",
"242 272 CURVE SMOOTH"
);
}
);
width = 780;
}
);
unicode = 0055;
},
{
glyphname = Uring;
lastChange = "2016-08-26 20:32:07 +0000";
layers = (
{
components = (
{
name = U;
}
);
layerId = UUID0;
paths = (
{
closed = 1;
nodes = (
"258 813 LINE SMOOTH",
"258 777 OFFCURVE",
"285 750 OFFCURVE",
"321 750 CURVE SMOOTH",
"357 750 OFFCURVE",
"384 777 OFFCURVE",
"384 813 CURVE SMOOTH",
"384 849 OFFCURVE",
"357 876 OFFCURVE",
"321 876 CURVE SMOOTH",
"285 876 OFFCURVE",
"258 849 OFFCURVE",
"258 813 CURVE SMOOTH"
);
},
{
closed = 1;
nodes = (
"272 813 LINE SMOOTH",
"272 839 OFFCURVE",
"295 862 OFFCURVE",
"321 862 CURVE SMOOTH",
"347 862 OFFCURVE",
"370 839 OFFCURVE",
"370 813 CURVE SMOOTH",
"370 787 OFFCURVE",
"347 764 OFFCURVE",
"321 764 CURVE SMOOTH",
"295 764 OFFCURVE",
"272 787 OFFCURVE",
"272 813 CURVE SMOOTH"
);
}
);
width = 630;
},
{
components = (
{
name = U;
}
);
layerId = UUID1;
paths = (
{
closed = 1;
nodes = (
"301 865 LINE SMOOTH",
"301 814 OFFCURVE",
"345 770 OFFCURVE",
"396 770 CURVE SMOOTH",
"446 770 OFFCURVE",
"490 814 OFFCURVE",
"490 865 CURVE SMOOTH",
"490 915 OFFCURVE",
"446 959 OFFCURVE",
"396 959 CURVE SMOOTH",
"345 959 OFFCURVE",
"301 915 OFFCURVE",
"301 865 CURVE SMOOTH"
);
},
{
closed = 1;
nodes = (
"367 863 LINE SMOOTH",
"367 881 OFFCURVE",
"379 893 OFFCURVE",
"396 893 CURVE SMOOTH",
"413 893 OFFCURVE",
"425 881 OFFCURVE",
"425 863 CURVE SMOOTH",
"425 847 OFFCURVE",
"413 835 OFFCURVE",
"396 835 CURVE SMOOTH",
"379 835 OFFCURVE",
"367 847 OFFCURVE",
"367 863 CURVE SMOOTH"
);
}
);
width = 780;
}
);
unicode = 016E;
},
{
glyphname = V;
lastChange = "2016-08-26 20:32:07 +0000";
layers = (
{
hints = (
{
horizontal = 1;
place = "{700, -20}";
target = down;
type = TopGhost;
},
{
horizontal = 1;
place = "{-32, 21}";
target = up;
type = BottomGhost;
}
);
layerId = UUID0;
paths = (
{
closed = 1;
nodes = (
"40 700 LINE",
"143 456 OFFCURVE",
"227 212 OFFCURVE",
"330 -32 CURVE",
"433 212 OFFCURVE",
"517 456 OFFCURVE",
"620 700 CURVE",
"605 700 LINE",
"510 475 OFFCURVE",
"434 250 OFFCURVE",
"339 25 CURVE SMOOTH",
"336 17 OFFCURVE",
"333 8 OFFCURVE",
"330 0 CURVE",
"327 8 OFFCURVE",
"324 17 OFFCURVE",
"321 25 CURVE SMOOTH",
"226 250 OFFCURVE",
"150 475 OFFCURVE",
"55 700 CURVE"
);
}
);
width = 700;
},
{
hints = (
{
horizontal = 1;
place = "{700, -20}";
target = down;
type = TopGhost;
},
{
horizontal = 1;
place = "{-32, 21}";
target = up;
type = BottomGhost;
}
);
layerId = UUID1;
paths = (
{
closed = 1;
nodes = (
"32 736 LINE",
"32 736 OFFCURVE",
"368 -34 OFFCURVE",
"368 -34 CURVE",
"368 -34 OFFCURVE",
"704 736 OFFCURVE",
"704 736 CURVE",
"556 736 LINE",
"556 736 OFFCURVE",
"379 319 OFFCURVE",
"379 319 CURVE SMOOTH",
"379 319 OFFCURVE",
"371 293 OFFCURVE",
"368 278 CURVE",
"365 293 OFFCURVE",
"357 319 OFFCURVE",
"357 319 CURVE SMOOTH",
"357 319 OFFCURVE",
"180 736 OFFCURVE",
"180 736 CURVE"
);
}
);
width = 710;
}
);
unicode = 0056;
},
{
glyphname = W;
lastChange = "2016-08-26 20:32:07 +0000";
layers = (
{
hints = (
{
horizontal = 1;
place = "{700, -20}";
target = down;
type = TopGhost;
},
{
horizontal = 1;
place = "{-32, 21}";
target = up;
type = BottomGhost;
}
);
layerId = UUID0;
paths = (
{
closed = 1;
nodes = (
"642 -32 LINE",
"642 -32 OFFCURVE",
"829 456 OFFCURVE",
"932 700 CURVE",
"917 700 LINE",
"822 475 OFFCURVE",
"651 25 OFFCURVE",
"651 25 CURVE",
"651 25 OFFCURVE",
"645 8 OFFCURVE",
"642 0 CURVE",
"639 8 OFFCURVE",
"636 17 OFFCURVE",
"633 25 CURVE",
"560 243 OFFCURVE",
"387 700 OFFCURVE",
"387 700 CURVE",
"372 700 LINE",
"372 700 OFFCURVE",
"481 408 OFFCURVE",
"481 408 CURVE",
"481 408 OFFCURVE",
"357 25 OFFCURVE",
"357 25 CURVE",
"357 25 OFFCURVE",
"350 0 OFFCURVE",
"350 0 CURVE",
"350 0 OFFCURVE",
"341 25 OFFCURVE",
"341 25 CURVE",
"341 25 OFFCURVE",
"169 475 OFFCURVE",
"75 700 CURVE",
"60 700 LINE",
"163 456 OFFCURVE",
"247 212 OFFCURVE",
"350 -32 CURVE",
"393 101 OFFCURVE",
"480 367 OFFCURVE",
"480 367 CURVE",
"480 367 OFFCURVE",
"487 388 OFFCURVE",
"487 388 CURVE",
"487 388 OFFCURVE",
"494 367 OFFCURVE",
"494 367 CURVE"
);
}
);
width = 991;
},
{
hints = (
{
horizontal = 1;
place = "{700, -20}";
target = down;
type = TopGhost;
},
{
horizontal = 1;
place = "{-32, 21}";
target = up;
type = BottomGhost;
}
);
layerId = UUID1;
paths = (
{
closed = 1;
nodes = (
"696 -32 LINE",
"789 221 OFFCURVE",
"893 476 OFFCURVE",
"986 731 CURVE",
"830 731 LINE",
"780 588 OFFCURVE",
"736 501 OFFCURVE",
"701 353 CURVE",
"698 340 OFFCURVE",
"698 328 OFFCURVE",
"695 315 CURVE",
"693 328 OFFCURVE",
"692 340 OFFCURVE",
"687 353 CURVE",
"687 353 OFFCURVE",
"540 731 OFFCURVE",
"540 731 CURVE",
"396 731 LINE",
"413 674 OFFCURVE",
"447 562 OFFCURVE",
"447 562 CURVE",
"447 562 OFFCURVE",
"351 386 OFFCURVE",
"340 351 CURVE",
"337 341 OFFCURVE",
"328 324 OFFCURVE",
"327 314 CURVE",
"324 326 OFFCURVE",
"323 340 OFFCURVE",
"320 353 CURVE",
"282 496 OFFCURVE",
"249 577 OFFCURVE",
"197 731 CURVE",
"27 731 LINE",
"120 476 OFFCURVE",
"224 221 OFFCURVE",
"317 -34 CURVE",
"381 101 OFFCURVE",
"514 377 OFFCURVE",
"514 377 CURVE",
"514 377 OFFCURVE",
"518 388 OFFCURVE",
"519 401 CURVE",
"523 386 OFFCURVE",
"522 391 OFFCURVE",
"528 376 CURVE"
);
}
);
width = 1032;
}
);
unicode = 0057;
},
{
glyphname = X;
lastChange = "2016-08-26 20:32:07 +0000";
layers = (
{
hints = (
{
horizontal = 1;
place = "{0, 21}";
target = up;
type = BottomGhost;
},
{
horizontal = 1;
place = "{700, -20}";
target = down;
type = TopGhost;
}
);
layerId = UUID0;
paths = (
{
closed = 1;
nodes = (
"545 0 LINE",
"562 0 LINE",
"485 119 OFFCURVE",
"405 240 OFFCURVE",
"328 359 CURVE",
"401 474 OFFCURVE",
"473 585 OFFCURVE",
"546 700 CURVE",
"534 700 LINE",
"466 594 OFFCURVE",
"398 487 OFFCURVE",
"330 381 CURVE",
"327 377 OFFCURVE",
"325 372 OFFCURVE",
"322 368 CURVE",
"319 372 OFFCURVE",
"317 377 OFFCURVE",
"314 381 CURVE",
"245 487 OFFCURVE",
"175 594 OFFCURVE",
"106 700 CURVE",
"90 700 LINE",
"163 587 OFFCURVE",
"237 473 OFFCURVE",
"310 360 CURVE",
"310 360 LINE",
"233 240 OFFCURVE",
"157 120 OFFCURVE",
"80 0 CURVE",
"92 0 LINE",
"163 112 OFFCURVE",
"237 226 OFFCURVE",
"308 338 CURVE",
"311 342 OFFCURVE",
"313 347 OFFCURVE",
"316 351 CURVE",
"332 330 OFFCURVE",
"347 301 OFFCURVE",
"362 279 CURVE"
);
}
);
width = 637;
},
{
hints = (
{
horizontal = 1;
place = "{0, 21}";
target = up;
type = BottomGhost;
},
{
horizontal = 1;
place = "{700, -20}";
target = down;
type = TopGhost;
}
);
layerId = UUID1;
paths = (
{
closed = 1;
nodes = (
"489 0 LINE",
"676 0 LINE",
"676 0 OFFCURVE",
"439 368 OFFCURVE",
"439 368 CURVE",
"439 368 OFFCURVE",
"669 736 OFFCURVE",
"669 736 CURVE",
"483 736 LINE",
"483 736 OFFCURVE",
"361 522 OFFCURVE",
"361 522 CURVE",
"361 522 OFFCURVE",
"347 495 OFFCURVE",
"342 480 CURVE",
"337 495 OFFCURVE",
"323 522 OFFCURVE",
"323 522 CURVE",
"323 522 OFFCURVE",
"196 736 OFFCURVE",
"196 736 CURVE",
"11 736 LINE",
"11 736 OFFCURVE",
"242 376 OFFCURVE",
"242 376 CURVE",
"242 376 LINE",
"242 376 OFFCURVE",
"1 0 OFFCURVE",
"1 0 CURVE",
"191 0 LINE",
"191 0 OFFCURVE",
"319 221 OFFCURVE",
"319 221 CURVE",
"319 221 OFFCURVE",
"331 243 OFFCURVE",
"336 258 CURVE",
"337 253 OFFCURVE",
"356 221 OFFCURVE",
"356 221 CURVE"
);
}
);
width = 681;
}
);
unicode = 0058;
},
{
glyphname = Y;
lastChange = "2016-08-26 20:32:07 +0000";
layers = (
{
hints = (
{
horizontal = 1;
place = "{700, -20}";
target = down;
type = TopGhost;
},
{
horizontal = 1;
place = "{0, 21}";
target = up;
type = BottomGhost;
}
);
layerId = UUID0;
paths = (
{
closed = 1;
nodes = (
"303 0 LINE",
"317 0 LINE",
"317 262 LINE",
"579 700 LINE",
"562 700 LINE",
"482 566 OFFCURVE",
"402 432 OFFCURVE",
"322 298 CURVE",
"318 289 OFFCURVE",
"315 281 OFFCURVE",
"311 272 CURVE",
"298 298 LINE",
"220 433 OFFCURVE",
"137 566 OFFCURVE",
"57 700 CURVE",
"40 700 LINE",
"128 554 OFFCURVE",
"215 408 OFFCURVE",
"303 262 CURVE"
);
}
);
width = 619;
},
{
hints = (
{
horizontal = 1;
place = "{700, -20}";
target = down;
type = TopGhost;
},
{
horizontal = 1;
place = "{0, 21}";
target = up;
type = BottomGhost;
}
);
layerId = UUID1;
paths = (
{
closed = 1;
nodes = (
"250 0 LINE",
"401 0 LINE",
"401 229 LINE",
"671 736 LINE",
"502 736 LINE",
"502 736 OFFCURVE",
"384 492 OFFCURVE",
"339 401 CURVE",
"335 391 OFFCURVE",
"331 376 OFFCURVE",
"326 365 CURVE",
"315 401 LINE",
"271 491 OFFCURVE",
"148 736 OFFCURVE",
"148 736 CURVE",
"-21 736 LINE",
"-21 736 OFFCURVE",
"250 229 OFFCURVE",
"250 229 CURVE"
);
}
);
width = 650;
}
);
unicode = 0059;
},
{
glyphname = Z;
lastChange = "2016-08-26 20:32:07 +0000";
layers = (
{
hints = (
{
horizontal = 1;
place = "{735, -20}";
target = down;
type = TopGhost;
},
{
horizontal = 1;
place = "{0, 21}";
target = up;
type = BottomGhost;
}
);
layerId = UUID0;
paths = (
{
closed = 1;
nodes = (
"611 0 LINE",
"611 14 LINE",
"60 14 LINE",
"578 700 LINE",
"103 700 LINE",
"103 700 LINE",
"81 700 OFFCURVE",
"73 711 OFFCURVE",
"73 723 CURVE SMOOTH",
"73 735 LINE",
"57 735 LINE",
"57 731 LINE SMOOTH",
"57 693 OFFCURVE",
"76 686 OFFCURVE",
"117 686 CURVE SMOOTH",
"550 686 LINE",
"380 462 OFFCURVE",
"205 238 OFFCURVE",
"35 0 CURVE"
);
}
);
width = 629;
},
{
hints = (
{
horizontal = 1;
place = "{735, -20}";
target = down;
type = TopGhost;
},
{
horizontal = 1;
place = "{0, 21}";
target = up;
type = BottomGhost;
}
);
layerId = UUID1;
paths = (
{
closed = 1;
nodes = (
"661 0 LINE",
"661 144 LINE",
"296 144 LINE",
"662 736 LINE",
"253 736 LINE",
"253 736 LINE",
"229 736 OFFCURVE",
"221 730 OFFCURVE",
"221 759 CURVE SMOOTH",
"221 773 LINE",
"88 773 LINE",
"88 692 LINE SMOOTH",
"88 651 OFFCURVE",
"142 620 OFFCURVE",
"185 620 CURVE SMOOTH",
"415 620 LINE",
"415 620 OFFCURVE",
"35 0 OFFCURVE",
"35 0 CURVE"
);
}
);
width = 738;
}
);
unicode = 005A;
},
{
glyphname = a;
lastChange = "2016-08-26 20:32:07 +0000";
layers = (
{
hints = (
{
horizontal = 1;
place = "{-6, 21}";
target = up;
type = BottomGhost;
},
{
horizontal = 1;
place = "{383, -20}";
target = down;
type = TopGhost;
}
);
layerId = UUID0;
paths = (
{
closed = 1;
nodes = (
"405 0 LINE",
"419 0 LINE",
"419 375 LINE",
"409 375 LINE",
"407 337 OFFCURVE",
"405 298 OFFCURVE",
"405 260 CURVE",
"376 332 OFFCURVE",
"306 383 OFFCURVE",
"224 383 CURVE SMOOTH",
"116 383 OFFCURVE",
"30 296 OFFCURVE",
"30 188 CURVE SMOOTH",
"30 188 LINE SMOOTH",
"30 80 OFFCURVE",
"116 -6 OFFCURVE",
"224 -6 CURVE SMOOTH",
"307 -6 OFFCURVE",
"378 45 OFFCURVE",
"406 117 CURVE",
"406 96 OFFCURVE",
"405 75 OFFCURVE",
"405 54 CURVE SMOOTH"
);
},
{
closed = 1;
nodes = (
"44 188 LINE SMOOTH",
"44 288 OFFCURVE",
"124 369 OFFCURVE",
"224 369 CURVE SMOOTH",
"324 369 OFFCURVE",
"405 288 OFFCURVE",
"405 188 CURVE SMOOTH",
"405 88 OFFCURVE",
"324 8 OFFCURVE",
"224 8 CURVE SMOOTH",
"124 8 OFFCURVE",
"44 88 OFFCURVE",
"44 188 CURVE SMOOTH"
);
}
);
width = 499;
},
{
hints = (
{
horizontal = 1;
place = "{-9, 21}";
target = up;
type = BottomGhost;
},
{
horizontal = 1;
place = "{382, -20}";
target = down;
type = TopGhost;
}
);
layerId = UUID1;
paths = (
{
closed = 1;
nodes = (
"398 0 LINE",
"515 0 LINE",
"515 437 LINE",
"402 437 LINE",
"401 425 OFFCURVE",
"399 412 OFFCURVE",
"398 402 CURVE",
"396 404 OFFCURVE",
"353 449 OFFCURVE",
"273 449 CURVE SMOOTH",
"149 449 OFFCURVE",
"43 340 OFFCURVE",
"43 213 CURVE SMOOTH",
"43 213 LINE SMOOTH",
"43 94 OFFCURVE",
"137 -12 OFFCURVE",
"274 -12 CURVE SMOOTH",
"356 -12 OFFCURVE",
"393 26 OFFCURVE",
"398 26 CURVE",
"398 28 OFFCURVE",
"398 24 OFFCURVE",
"398 22 CURVE SMOOTH"
);
},
{
closed = 1;
nodes = (
"160 220 LINE SMOOTH",
"160 287 OFFCURVE",
"208 335 OFFCURVE",
"279 335 CURVE SMOOTH",
"351 335 OFFCURVE",
"398 286 OFFCURVE",
"398 220 CURVE SMOOTH",
"398 154 OFFCURVE",
"351 102 OFFCURVE",
"279 102 CURVE SMOOTH",
"208 102 OFFCURVE",
"160 153 OFFCURVE",
"160 220 CURVE SMOOTH"
);
}
);
width = 586;
}
);
unicode = 0061;
},
{
glyphname = aring;
lastChange = "2016-08-26 20:32:07 +0000";
layers = (
{
components = (
{
name = a;
}
);
hints = (
{
place = "{187, 126}";
},
{
horizontal = 1;
place = "{477, 126}";
}
);
layerId = UUID0;
paths = (
{
closed = 1;
nodes = (
"168 469 LINE SMOOTH",
"168 433 OFFCURVE",
"195 406 OFFCURVE",
"231 406 CURVE SMOOTH",
"267 406 OFFCURVE",
"294 433 OFFCURVE",
"294 469 CURVE SMOOTH",
"294 505 OFFCURVE",
"267 532 OFFCURVE",
"231 532 CURVE SMOOTH",
"195 532 OFFCURVE",
"168 505 OFFCURVE",
"168 469 CURVE SMOOTH"
);
},
{
closed = 1;
nodes = (
"182 469 LINE SMOOTH",
"182 495 OFFCURVE",
"205 518 OFFCURVE",
"231 518 CURVE SMOOTH",
"257 518 OFFCURVE",
"280 495 OFFCURVE",
"280 469 CURVE SMOOTH",
"280 443 OFFCURVE",
"257 420 OFFCURVE",
"231 420 CURVE SMOOTH",
"205 420 OFFCURVE",
"182 443 OFFCURVE",
"182 469 CURVE SMOOTH"
);
}
);
width = 551;
},
{
components = (
{
name = a;
transform = "{1, 0, 0, 1, 17, 0}";
}
);
hints = (
{
place = "{218, 65}";
},
{
horizontal = 1;
place = "{507, 65}";
}
);
layerId = UUID1;
paths = (
{
closed = 1;
nodes = (
"204 576 LINE SMOOTH",
"204 525 OFFCURVE",
"248 481 OFFCURVE",
"299 481 CURVE SMOOTH",
"349 481 OFFCURVE",
"393 525 OFFCURVE",
"393 576 CURVE SMOOTH",
"393 626 OFFCURVE",
"349 670 OFFCURVE",
"299 670 CURVE SMOOTH",
"248 670 OFFCURVE",
"204 626 OFFCURVE",
"204 576 CURVE SMOOTH"
);
},
{
closed = 1;
nodes = (
"270 574 LINE SMOOTH",
"270 592 OFFCURVE",
"282 604 OFFCURVE",
"299 604 CURVE SMOOTH",
"316 604 OFFCURVE",
"328 592 OFFCURVE",
"328 574 CURVE SMOOTH",
"328 558 OFFCURVE",
"316 546 OFFCURVE",
"299 546 CURVE SMOOTH",
"282 546 OFFCURVE",
"270 558 OFFCURVE",
"270 574 CURVE SMOOTH"
);
}
);
width = 551;
}
);
unicode = 00E5;
},
{
glyphname = ae;
lastChange = "2016-08-26 20:32:07 +0000";
layers = (
{
hints = (
{
horizontal = 1;
place = "{-6, 199}";
},
{
horizontal = 1;
place = "{179, 204}";
},
{
horizontal = 1;
place = "{-8, 21}";
target = up;
type = BottomGhost;
}
);
layerId = UUID0;
paths = (
{
closed = 1;
nodes = (
"523 56 LINE",
"491 26 OFFCURVE",
"448 8 OFFCURVE",
"400 8 CURVE SMOOTH",
"323 8 OFFCURVE",
"258 55 OFFCURVE",
"232 122 CURVE",
"333 164 OFFCURVE",
"469 218 OFFCURVE",
"569 259 CURVE",
"540 330 OFFCURVE",
"482 384 OFFCURVE",
"400 384 CURVE SMOOTH",
"292 384 OFFCURVE",
"206 296 OFFCURVE",
"206 188 CURVE SMOOTH",
"206 80 OFFCURVE",
"292 -6 OFFCURVE",
"400 -6 CURVE SMOOTH",
"452 -6 OFFCURVE",
"499 14 OFFCURVE",
"534 46 CURVE"
);
},
{
closed = 1;
nodes = (
"215 178 LINE",
"216 195 LINE",
"138 195 LINE SMOOTH",
"82 195 OFFCURVE",
"19 165 OFFCURVE",
"19 104 CURVE SMOOTH",
"19 45 OFFCURVE",
"72 -8 OFFCURVE",
"159 -8 CURVE SMOOTH",
"229 -8 OFFCURVE",
"290 15 OFFCURVE",
"306 75 CURVE",
"295 93 LINE",
"289 48 OFFCURVE",
"244 8 OFFCURVE",
"166 8 CURVE SMOOTH",
"104 8 OFFCURVE",
"36 33 OFFCURVE",
"36 105 CURVE SMOOTH",
"36 137 OFFCURVE",
"61 178 OFFCURVE",
"155 178 CURVE SMOOTH"
);
},
{
closed = 1;
nodes = (
"39 332 LINE",
"67 352 OFFCURVE",
"96 367 OFFCURVE",
"161 367 CURVE SMOOTH",
"224 367 OFFCURVE",
"260 352 OFFCURVE",
"278 324 CURVE",
"290 334 LINE",
"270 365 OFFCURVE",
"232 383 OFFCURVE",
"166 383 CURVE SMOOTH",
"103 383 OFFCURVE",
"58 367 OFFCURVE",
"31 346 CURVE"
);
},
{
closed = 1;
nodes = (
"550 266 LINE",
"451 225 OFFCURVE",
"325 176 OFFCURVE",
"227 135 CURVE",
"222 152 OFFCURVE",
"220 169 OFFCURVE",
"220 188 CURVE SMOOTH",
"220 288 OFFCURVE",
"300 369 OFFCURVE",
"400 369 CURVE SMOOTH",
"471 369 OFFCURVE",
"522 326 OFFCURVE",
"550 266 CURVE"
);
}
);
width = 605;
},
{
hints = (
{
horizontal = 1;
place = "{-8, 230}";
},
{
horizontal = 1;
place = "{136, 249}";
},
{
horizontal = 1;
place = "{-8, 21}";
target = up;
type = BottomGhost;
}
);
layerId = UUID1;
paths = (
{
closed = 1;
nodes = (
"595 134 LINE",
"575 115 OFFCURVE",
"537 102 OFFCURVE",
"506 102 CURVE SMOOTH",
"463 102 OFFCURVE",
"425 125 OFFCURVE",
"404 160 CURVE",
"501 196 OFFCURVE",
"641 256 OFFCURVE",
"716 282 CURVE",
"686 383 OFFCURVE",
"603 448 OFFCURVE",
"504 448 CURVE SMOOTH",
"381 448 OFFCURVE",
"274 345 OFFCURVE",
"274 218 CURVE SMOOTH",
"274 93 OFFCURVE",
"379 -12 OFFCURVE",
"509 -12 CURVE SMOOTH",
"572 -12 OFFCURVE",
"639 12 OFFCURVE",
"681 50 CURVE"
);
},
{
closed = 1;
nodes = (
"302 169 LINE",
"302 252 LINE",
"165 252 LINE SMOOTH",
"100 252 OFFCURVE",
"19 212 OFFCURVE",
"19 119 CURVE SMOOTH",
"19 54 OFFCURVE",
"55 -9 OFFCURVE",
"173 -9 CURVE SMOOTH",
"285 -9 OFFCURVE",
"374 49 OFFCURVE",
"390 131 CURVE",
"288 150 LINE",
"283 110 OFFCURVE",
"232 102 OFFCURVE",
"179 102 CURVE SMOOTH",
"152 102 OFFCURVE",
"124 104 OFFCURVE",
"124 130 CURVE SMOOTH",
"124 155 OFFCURVE",
"148 169 OFFCURVE",
"226 169 CURVE SMOOTH"
);
},
{
closed = 1;
nodes = (
"88 306 LINE",
"119 322 OFFCURVE",
"164 335 OFFCURVE",
"212 335 CURVE SMOOTH",
"257 335 OFFCURVE",
"286 324 OFFCURVE",
"295 289 CURVE",
"367 390 LINE",
"342 427 OFFCURVE",
"288 449 OFFCURVE",
"226 449 CURVE SMOOTH",
"159 449 OFFCURVE",
"93 429 OFFCURVE",
"41 395 CURVE"
);
},
{
closed = 1;
nodes = (
"572 307 LINE",
"529 292 OFFCURVE",
"446 255 OFFCURVE",
"388 232 CURVE",
"390 226 OFFCURVE",
"390 222 OFFCURVE",
"390 224 CURVE SMOOTH",
"390 278 OFFCURVE",
"440 335 OFFCURVE",
"506 335 CURVE SMOOTH",
"527 335 OFFCURVE",
"560 329 OFFCURVE",
"572 307 CURVE"
);
}
);
width = 744;
}
);
unicode = 00E6;
},
{
glyphname = b;
lastChange = "2016-08-26 20:32:07 +0000";
layers = (
{
hints = (
{
horizontal = 1;
place = "{750, -20}";
target = down;
type = TopGhost;
},
{
horizontal = 1;
place = "{-6, 21}";
target = up;
type = BottomGhost;
}
);
layerId = UUID0;
paths = (
{
closed = 1;
nodes = (
"80 750 LINE",
"80 0 LINE",
"94 0 LINE",
"94 54 LINE SMOOTH",
"94 75 OFFCURVE",
"93 96 OFFCURVE",
"93 117 CURVE",
"121 45 OFFCURVE",
"192 -6 OFFCURVE",
"275 -6 CURVE SMOOTH",
"383 -6 OFFCURVE",
"469 80 OFFCURVE",
"469 188 CURVE",
"469 188 LINE",
"469 296 OFFCURVE",
"383 383 OFFCURVE",
"275 383 CURVE SMOOTH",
"193 383 OFFCURVE",
"123 332 OFFCURVE",
"94 260 CURVE",
"94 298 OFFCURVE",
"94 750 OFFCURVE",
"94 750 CURVE"
);
},
{
closed = 1;
nodes = (
"455 188 LINE",
"455 88 OFFCURVE",
"375 8 OFFCURVE",
"275 8 CURVE SMOOTH",
"175 8 OFFCURVE",
"94 88 OFFCURVE",
"94 188 CURVE SMOOTH",
"94 288 OFFCURVE",
"175 369 OFFCURVE",
"275 369 CURVE SMOOTH",
"375 369 OFFCURVE",
"455 288 OFFCURVE",
"455 188 CURVE"
);
}
);
width = 505;
},
{
hints = (
{
horizontal = 1;
place = "{750, -20}";
target = down;
type = TopGhost;
},
{
horizontal = 1;
place = "{-9, 21}";
target = up;
type = BottomGhost;
}
);
layerId = UUID1;
paths = (
{
closed = 1;
nodes = (
"80 789 LINE",
"80 0 LINE",
"197 0 LINE",
"197 25 LINE SMOOTH",
"197 27 OFFCURVE",
"196 28 OFFCURVE",
"196 29 CURVE",
"212 13 OFFCURVE",
"262 -12 OFFCURVE",
"322 -12 CURVE SMOOTH",
"460 -12 OFFCURVE",
"552 84 OFFCURVE",
"552 217 CURVE",
"552 217 LINE",
"552 364 OFFCURVE",
"463 449 OFFCURVE",
"328 449 CURVE SMOOTH",
"257 449 OFFCURVE",
"215 414 OFFCURVE",
"197 399 CURVE",
"197 409 OFFCURVE",
"197 766 OFFCURVE",
"197 789 CURVE"
);
},
{
closed = 1;
nodes = (
"425 219 LINE",
"425 154 OFFCURVE",
"388 102 OFFCURVE",
"316 102 CURVE SMOOTH",
"245 102 OFFCURVE",
"197 153 OFFCURVE",
"197 220 CURVE SMOOTH",
"197 287 OFFCURVE",
"245 335 OFFCURVE",
"316 335 CURVE SMOOTH",
"388 335 OFFCURVE",
"425 287 OFFCURVE",
"425 219 CURVE"
);
}
);
width = 566;
}
);
unicode = 0062;
},
{
glyphname = c;
lastChange = "2016-08-26 20:32:07 +0000";
layers = (
{
hints = (
{
horizontal = 1;
place = "{383, -20}";
target = down;
type = TopGhost;
},
{
horizontal = 1;
place = "{-6, 21}";
target = up;
type = BottomGhost;
}
);
layerId = UUID0;
paths = (
{
closed = 1;
nodes = (
"343 47 LINE",
"312 23 OFFCURVE",
"273 8 OFFCURVE",
"230 8 CURVE SMOOTH",
"130 8 OFFCURVE",
"50 88 OFFCURVE",
"50 188 CURVE SMOOTH",
"50 288 OFFCURVE",
"130 369 OFFCURVE",
"230 369 CURVE SMOOTH",
"273 369 OFFCURVE",
"312 354 OFFCURVE",
"343 329 CURVE",
"346 333 OFFCURVE",
"350 336 OFFCURVE",
"353 340 CURVE",
"320 367 OFFCURVE",
"277 383 OFFCURVE",
"230 383 CURVE SMOOTH",
"122 383 OFFCURVE",
"36 296 OFFCURVE",
"36 188 CURVE SMOOTH",
"36 80 OFFCURVE",
"122 -6 OFFCURVE",
"230 -6 CURVE SMOOTH",
"277 -6 OFFCURVE",
"319 10 OFFCURVE",
"353 37 CURVE",
"350 40 OFFCURVE",
"346 44 OFFCURVE",
"343 47 CURVE"
);
}
);
width = 379;
},
{
hints = (
{
horizontal = 1;
place = "{384, -20}";
target = down;
type = TopGhost;
},
{
horizontal = 1;
place = "{-9, 21}";
target = up;
type = BottomGhost;
}
);
layerId = UUID1;
paths = (
{
closed = 1;
nodes = (
"355 127 LINE",
"336 111 OFFCURVE",
"310 102 OFFCURVE",
"279 102 CURVE SMOOTH",
"207 102 OFFCURVE",
"160 154 OFFCURVE",
"160 219 CURVE SMOOTH",
"160 287 OFFCURVE",
"207 335 OFFCURVE",
"279 335 CURVE SMOOTH",
"309 335 OFFCURVE",
"336 326 OFFCURVE",
"355 311 CURVE",
"380 341 OFFCURVE",
"405 369 OFFCURVE",
"429 398 CURVE",
"388 429 OFFCURVE",
"337 449 OFFCURVE",
"279 449 CURVE SMOOTH",
"149 449 OFFCURVE",
"44 345 OFFCURVE",
"44 219 CURVE SMOOTH",
"44 93 OFFCURVE",
"149 -12 OFFCURVE",
"279 -12 CURVE SMOOTH",
"335 -12 OFFCURVE",
"386 8 OFFCURVE",
"425 39 CURVE",
"401 69 OFFCURVE",
"380 97 OFFCURVE",
"355 127 CURVE"
);
}
);
width = 468;
}
);
unicode = 0063;
},
{
glyphname = ccedilla;
lastChange = "2016-08-26 20:32:07 +0000";
layers = (
{
hints = (
{
horizontal = 1;
place = "{-223, 231}";
},
{
horizontal = 1;
place = "{383, -20}";
target = down;
type = TopGhost;
},
{
horizontal = 1;
place = "{383, -20}";
target = down;
type = TopGhost;
},
{
horizontal = 1;
place = "{-6, 21}";
target = up;
type = BottomGhost;
}
);
layerId = UUID0;
paths = (
{
closed = 1;
nodes = (
"343 47 LINE",
"312 23 OFFCURVE",
"273 8 OFFCURVE",
"230 8 CURVE SMOOTH",
"130 8 OFFCURVE",
"50 88 OFFCURVE",
"50 188 CURVE SMOOTH",
"50 288 OFFCURVE",
"130 369 OFFCURVE",
"230 369 CURVE SMOOTH",
"273 369 OFFCURVE",
"312 354 OFFCURVE",
"343 329 CURVE",
"346 333 OFFCURVE",
"350 336 OFFCURVE",
"353 340 CURVE",
"320 367 OFFCURVE",
"277 383 OFFCURVE",
"230 383 CURVE SMOOTH",
"122 383 OFFCURVE",
"36 296 OFFCURVE",
"36 188 CURVE SMOOTH",
"36 80 OFFCURVE",
"122 -6 OFFCURVE",
"230 -6 CURVE SMOOTH",
"277 -6 OFFCURVE",
"319 10 OFFCURVE",
"353 37 CURVE",
"350 40 OFFCURVE",
"346 44 OFFCURVE",
"343 47 CURVE"
);
},
{
closed = 1;
nodes = (
"227 0 LINE",
"213 0 LINE",
"213 -16 LINE SMOOTH",
"213 -69 OFFCURVE",
"296 -63 OFFCURVE",
"296 -137 CURVE SMOOTH",
"296 -178 OFFCURVE",
"267 -209 OFFCURVE",
"226 -209 CURVE SMOOTH",
"193 -209 OFFCURVE",
"168 -189 OFFCURVE",
"160 -161 CURVE",
"155 -162 OFFCURVE",
"150 -164 OFFCURVE",
"145 -165 CURVE",
"158 -204 OFFCURVE",
"191 -223 OFFCURVE",
"226 -223 CURVE SMOOTH",
"270 -223 OFFCURVE",
"310 -195 OFFCURVE",
"310 -127 CURVE SMOOTH",
"310 -109 OFFCURVE",
"298 -81 OFFCURVE",
"268 -61 CURVE SMOOTH",
"251 -50 OFFCURVE",
"227 -41 OFFCURVE",
"227 -6 CURVE SMOOTH"
);
}
);
width = 379;
},
{
hints = (
{
horizontal = 1;
place = "{-244, 316}";
},
{
horizontal = 1;
place = "{384, -20}";
target = down;
type = TopGhost;
},
{
horizontal = 1;
place = "{384, -20}";
target = down;
type = TopGhost;
},
{
horizontal = 1;
place = "{-9, 21}";
target = up;
type = BottomGhost;
}
);
layerId = UUID1;
paths = (
{
closed = 1;
nodes = (
"355 127 LINE",
"336 111 OFFCURVE",
"310 102 OFFCURVE",
"279 102 CURVE SMOOTH",
"207 102 OFFCURVE",
"160 154 OFFCURVE",
"160 219 CURVE SMOOTH",
"160 287 OFFCURVE",
"207 335 OFFCURVE",
"279 335 CURVE SMOOTH",
"309 335 OFFCURVE",
"336 326 OFFCURVE",
"355 311 CURVE",
"380 341 OFFCURVE",
"405 369 OFFCURVE",
"429 398 CURVE",
"388 429 OFFCURVE",
"337 449 OFFCURVE",
"279 449 CURVE SMOOTH",
"149 449 OFFCURVE",
"44 345 OFFCURVE",
"44 219 CURVE SMOOTH",
"44 93 OFFCURVE",
"149 -12 OFFCURVE",
"279 -12 CURVE SMOOTH",
"335 -12 OFFCURVE",
"386 8 OFFCURVE",
"425 39 CURVE",
"401 69 OFFCURVE",
"380 97 OFFCURVE",
"355 127 CURVE"
);
},
{
closed = 1;
nodes = (
"286 0 LINE",
"212 0 LINE",
"212 -25 LINE SMOOTH",
"212 -98 OFFCURVE",
"275 -88 OFFCURVE",
"275 -132 CURVE SMOOTH",
"275 -159 OFFCURVE",
"263 -180 OFFCURVE",
"235 -180 CURVE SMOOTH",
"213 -180 OFFCURVE",
"198 -166 OFFCURVE",
"192 -148 CURVE",
"171 -160 OFFCURVE",
"148 -172 OFFCURVE",
"127 -184 CURVE",
"147 -243 OFFCURVE",
"195 -271 OFFCURVE",
"246 -271 CURVE SMOOTH",
"331 -271 OFFCURVE",
"366 -204 OFFCURVE",
"366 -154 CURVE SMOOTH",
"366 -111 OFFCURVE",
"356 -84 OFFCURVE",
"329 -62 CURVE SMOOTH",
"312 -48 OFFCURVE",
"286 -48 OFFCURVE",
"286 -8 CURVE SMOOTH"
);
}
);
width = 468;
}
);
unicode = 00E7;
},
{
glyphname = d;
lastChange = "2016-08-26 20:32:07 +0000";
layers = (
{
hints = (
{
horizontal = 1;
place = "{-6, 21}";
target = up;
type = BottomGhost;
},
{
horizontal = 1;
place = "{750, -20}";
target = down;
type = TopGhost;
}
);
layerId = UUID0;
paths = (
{
closed = 1;
nodes = (
"411 0 LINE",
"425 0 LINE",
"425 750 LINE",
"411 750 LINE",
"411 750 OFFCURVE",
"411 298 OFFCURVE",
"411 260 CURVE",
"382 332 OFFCURVE",
"312 383 OFFCURVE",
"230 383 CURVE SMOOTH",
"122 383 OFFCURVE",
"36 296 OFFCURVE",
"36 188 CURVE SMOOTH",
"36 188 LINE SMOOTH",
"36 80 OFFCURVE",
"122 -6 OFFCURVE",
"230 -6 CURVE SMOOTH",
"313 -6 OFFCURVE",
"384 45 OFFCURVE",
"412 117 CURVE",
"412 96 OFFCURVE",
"411 75 OFFCURVE",
"411 54 CURVE SMOOTH"
);
},
{
closed = 1;
nodes = (
"50 188 LINE SMOOTH",
"50 288 OFFCURVE",
"130 369 OFFCURVE",
"230 369 CURVE SMOOTH",
"330 369 OFFCURVE",
"411 288 OFFCURVE",
"411 188 CURVE SMOOTH",
"411 88 OFFCURVE",
"330 8 OFFCURVE",
"230 8 CURVE SMOOTH",
"130 8 OFFCURVE",
"50 88 OFFCURVE",
"50 188 CURVE SMOOTH"
);
}
);
width = 505;
},
{
hints = (
{
horizontal = 1;
place = "{-9, 21}";
target = up;
type = BottomGhost;
},
{
horizontal = 1;
place = "{750, -20}";
target = down;
type = TopGhost;
}
);
layerId = UUID1;
paths = (
{
closed = 1;
nodes = (
"398 0 LINE",
"515 0 LINE",
"515 789 LINE",
"398 789 LINE",
"398 766 OFFCURVE",
"398 409 OFFCURVE",
"398 399 CURVE",
"386 408 OFFCURVE",
"354 449 OFFCURVE",
"268 449 CURVE SMOOTH",
"140 449 OFFCURVE",
"43 357 OFFCURVE",
"43 218 CURVE SMOOTH",
"43 218 LINE SMOOTH",
"43 93 OFFCURVE",
"121 -12 OFFCURVE",
"265 -12 CURVE SMOOTH",
"341 -12 OFFCURVE",
"376 18 OFFCURVE",
"401 31 CURVE",
"401 31 OFFCURVE",
"398 24 OFFCURVE",
"398 21 CURVE SMOOTH"
);
},
{
closed = 1;
nodes = (
"160 220 LINE SMOOTH",
"160 287 OFFCURVE",
"208 335 OFFCURVE",
"279 335 CURVE SMOOTH",
"351 335 OFFCURVE",
"398 286 OFFCURVE",
"398 220 CURVE SMOOTH",
"398 154 OFFCURVE",
"351 102 OFFCURVE",
"279 102 CURVE SMOOTH",
"208 102 OFFCURVE",
"160 153 OFFCURVE",
"160 220 CURVE SMOOTH"
);
}
);
width = 595;
}
);
unicode = 0064;
},
{
glyphname = eth;
lastChange = "2016-08-26 20:32:07 +0000";
layers = (
{
components = (
{
name = o;
transform = "{1, 0, 0, 1, 13, 0}";
}
);
hints = (
{
horizontal = 1;
place = "{-6, 21}";
target = up;
type = BottomGhost;
},
{
horizontal = 1;
place = "{726, -20}";
target = down;
type = TopGhost;
}
);
layerId = UUID0;
paths = (
{
closed = 1;
nodes = (
"146 547 LINE",
"149 544 OFFCURVE",
"151 542 OFFCURVE",
"154 539 CURVE",
"179 566 OFFCURVE",
"204 593 OFFCURVE",
"229 620 CURVE",
"340 492 OFFCURVE",
"392 370 OFFCURVE",
"409 295 CURVE",
"427 210 OFFCURVE",
"441 115 OFFCURVE",
"441 188 CURVE SMOOTH",
"441 333 OFFCURVE",
"347 500 OFFCURVE",
"237 629 CURVE",
"261 655 OFFCURVE",
"284 681 OFFCURVE",
"308 707 CURVE",
"305 709 OFFCURVE",
"303 712 OFFCURVE",
"300 714 CURVE",
"277 688 OFFCURVE",
"253 663 OFFCURVE",
"230 637 CURVE",
"199 671 OFFCURVE",
"167 701 OFFCURVE",
"134 726 CURVE",
"132 723 OFFCURVE",
"130 720 OFFCURVE",
"128 717 CURVE",
"162 690 OFFCURVE",
"193 660 OFFCURVE",
"222 629 CURVE",
"197 602 OFFCURVE",
"171 574 OFFCURVE",
"146 547 CURVE"
);
}
);
width = 493;
},
{
components = (
{
name = o;
}
);
hints = (
{
horizontal = 1;
place = "{-6, 21}";
target = up;
type = BottomGhost;
},
{
horizontal = 1;
place = "{738, -20}";
target = down;
type = TopGhost;
}
);
layerId = UUID1;
paths = (
{
closed = 1;
nodes = (
"138 610 LINE",
"160 589 OFFCURVE",
"183 570 OFFCURVE",
"205 549 CURVE",
"222 568 OFFCURVE",
"241 586 OFFCURVE",
"258 606 CURVE",
"293 553 OFFCURVE",
"324 497 OFFCURVE",
"343 436 CURVE",
"394 292 OFFCURVE",
"508 168 OFFCURVE",
"508 227 CURVE SMOOTH",
"508 375 OFFCURVE",
"421 559 OFFCURVE",
"328 684 CURVE",
"348 707 OFFCURVE",
"369 728 OFFCURVE",
"389 751 CURVE",
"367 771 OFFCURVE",
"344 791 OFFCURVE",
"322 811 CURVE",
"305 791 OFFCURVE",
"288 773 OFFCURVE",
"270 754 CURVE",
"237 789 OFFCURVE",
"203 821 OFFCURVE",
"167 849 CURVE",
"144 828 OFFCURVE",
"119 806 OFFCURVE",
"96 785 CURVE",
"133 754 OFFCURVE",
"168 718 OFFCURVE",
"202 679 CURVE",
"180 656 OFFCURVE",
"159 633 OFFCURVE",
"138 610 CURVE"
);
}
);
width = 568;
}
);
unicode = 00F0;
},
{
glyphname = dcroat;
lastChange = "2016-08-26 20:32:07 +0000";
layers = (
{
components = (
{
name = d;
}
);
layerId = UUID0;
paths = (
{
closed = 1;
nodes = (
"211 616 LINE",
"492 616 LINE",
"492 630 LINE",
"211 630 LINE"
);
}
);
width = 505;
},
{
components = (
{
name = d;
}
);
layerId = UUID1;
paths = (
{
closed = 1;
nodes = (
"261 601 LINE",
"569 601 LINE",
"569 700 LINE",
"261 700 LINE"
);
}
);
width = 595;
}
);
unicode = 0111;
},
{
glyphname = e;
lastChange = "2016-08-26 20:32:07 +0000";
layers = (
{
hints = (
{
horizontal = 1;
place = "{384, -20}";
target = down;
type = TopGhost;
},
{
horizontal = 1;
place = "{-9, 21}";
target = up;
type = BottomGhost;
}
);
layerId = UUID0;
paths = (
{
closed = 1;
nodes = (
"353 56 LINE",
"321 26 OFFCURVE",
"278 8 OFFCURVE",
"230 8 CURVE SMOOTH",
"153 8 OFFCURVE",
"88 55 OFFCURVE",
"62 122 CURVE",
"163 164 OFFCURVE",
"299 218 OFFCURVE",
"399 259 CURVE",
"370 330 OFFCURVE",
"312 384 OFFCURVE",
"230 384 CURVE SMOOTH",
"122 384 OFFCURVE",
"36 296 OFFCURVE",
"36 188 CURVE SMOOTH",
"36 80 OFFCURVE",
"122 -6 OFFCURVE",
"230 -6 CURVE SMOOTH",
"282 -6 OFFCURVE",
"329 14 OFFCURVE",
"364 46 CURVE"
);
},
{
closed = 1;
nodes = (
"380 266 LINE",
"281 225 OFFCURVE",
"155 176 OFFCURVE",
"57 135 CURVE",
"52 152 OFFCURVE",
"50 169 OFFCURVE",
"50 188 CURVE SMOOTH",
"50 288 OFFCURVE",
"130 369 OFFCURVE",
"230 369 CURVE SMOOTH",
"301 369 OFFCURVE",
"352 326 OFFCURVE",
"380 266 CURVE"
);
}
);
width = 448;
},
{
hints = (
{
horizontal = 1;
place = "{384, -20}";
target = down;
type = TopGhost;
},
{
horizontal = 1;
place = "{-9, 21}";
target = up;
type = BottomGhost;
}
);
layerId = UUID1;
paths = (
{
closed = 1;
nodes = (
"365 134 LINE",
"345 115 OFFCURVE",
"307 102 OFFCURVE",
"276 102 CURVE SMOOTH",
"233 102 OFFCURVE",
"195 125 OFFCURVE",
"174 160 CURVE",
"271 196 OFFCURVE",
"411 256 OFFCURVE",
"486 282 CURVE",
"456 383 OFFCURVE",
"373 448 OFFCURVE",
"274 448 CURVE SMOOTH",
"151 448 OFFCURVE",
"44 345 OFFCURVE",
"44 218 CURVE SMOOTH",
"44 93 OFFCURVE",
"149 -12 OFFCURVE",
"279 -12 CURVE SMOOTH",
"342 -12 OFFCURVE",
"409 12 OFFCURVE",
"451 50 CURVE"
);
},
{
closed = 1;
nodes = (
"342 307 LINE",
"299 292 OFFCURVE",
"216 255 OFFCURVE",
"158 232 CURVE",
"160 226 OFFCURVE",
"160 222 OFFCURVE",
"160 224 CURVE SMOOTH",
"160 278 OFFCURVE",
"210 335 OFFCURVE",
"276 335 CURVE SMOOTH",
"297 335 OFFCURVE",
"330 329 OFFCURVE",
"342 307 CURVE"
);
}
);
width = 509;
}
);
unicode = 0065;
},
{
glyphname = f;
lastChange = "2016-08-26 20:32:07 +0000";
layers = (
{
hints = (
{
horizontal = 1;
place = "{0, 21}";
target = up;
type = BottomGhost;
},
{
horizontal = 1;
place = "{750, -20}";
target = down;
type = TopGhost;
}
);
layerId = UUID0;
paths = (
{
closed = 1;
nodes = (
"95 372 LINE",
"30 372 LINE",
"30 358 LINE",
"95 358 LINE",
"95 0 LINE",
"109 0 LINE",
"109 358 LINE",
"239 358 LINE",
"239 372 LINE",
"109 372 LINE",
"109 522 LINE SMOOTH",
"109 653 OFFCURVE",
"189 736 OFFCURVE",
"280 736 CURVE",
"280 750 LINE",
"179 746 OFFCURVE",
"95 666 OFFCURVE",
"95 518 CURVE SMOOTH"
);
}
);
width = 280;
},
{
hints = (
{
horizontal = 1;
place = "{0, 21}";
target = up;
type = BottomGhost;
},
{
horizontal = 1;
place = "{751, -20}";
target = down;
type = TopGhost;
}
);
layerId = UUID1;
paths = (
{
closed = 1;
nodes = (
"97 439 LINE",
"23 439 LINE",
"23 325 LINE",
"97 325 LINE",
"97 0 LINE",
"214 0 LINE",
"214 325 LINE",
"346 325 LINE",
"346 439 LINE",
"214 439 LINE",
"214 510 LINE SMOOTH",
"214 614 OFFCURVE",
"246 670 OFFCURVE",
"354 678 CURVE",
"354 789 LINE",
"184 784 OFFCURVE",
"97 701 OFFCURVE",
"97 515 CURVE SMOOTH"
);
}
);
width = 366;
}
);
unicode = 0066;
},
{
glyphname = g;
lastChange = "2016-08-26 20:32:07 +0000";
layers = (
{
hints = (
{
horizontal = 1;
place = "{382, -20}";
target = down;
type = TopGhost;
},
{
horizontal = 1;
place = "{-251, 21}";
target = up;
type = BottomGhost;
}
);
layerId = UUID0;
paths = (
{
closed = 1;
nodes = (
"425 375 LINE",
"415 375 LINE",
"413 337 OFFCURVE",
"411 298 OFFCURVE",
"411 260 CURVE",
"382 332 OFFCURVE",
"312 383 OFFCURVE",
"230 383 CURVE SMOOTH",
"122 383 OFFCURVE",
"36 296 OFFCURVE",
"36 188 CURVE SMOOTH",
"36 188 LINE SMOOTH",
"36 80 OFFCURVE",
"122 -6 OFFCURVE",
"230 -6 CURVE SMOOTH",
"313 -6 OFFCURVE",
"384 45 OFFCURVE",
"412 117 CURVE",
"412 111 OFFCURVE",
"411 58 OFFCURVE",
"411 54 CURVE SMOOTH",
"410 16 OFFCURVE",
"410 19 OFFCURVE",
"410 6 CURVE SMOOTH",
"407 -93 OFFCURVE",
"372 -166 OFFCURVE",
"230 -166 CURVE SMOOTH",
"189 -166 OFFCURVE",
"139 -158 OFFCURVE",
"72 -93 CURVE",
"63 -103 LINE",
"131 -170 OFFCURVE",
"184 -180 OFFCURVE",
"231 -180 CURVE SMOOTH",
"385 -180 OFFCURVE",
"425 -94 OFFCURVE",
"425 -8 CURVE SMOOTH"
);
},
{
closed = 1;
nodes = (
"50 188 LINE SMOOTH",
"50 288 OFFCURVE",
"130 369 OFFCURVE",
"230 369 CURVE SMOOTH",
"330 369 OFFCURVE",
"411 288 OFFCURVE",
"411 188 CURVE SMOOTH",
"411 88 OFFCURVE",
"330 8 OFFCURVE",
"230 8 CURVE SMOOTH",
"130 8 OFFCURVE",
"50 88 OFFCURVE",
"50 188 CURVE SMOOTH"
);
}
);
width = 505;
},
{
hints = (
{
horizontal = 1;
place = "{382, -20}";
target = down;
type = TopGhost;
},
{
horizontal = 1;
place = "{-251, 21}";
target = up;
type = BottomGhost;
}
);
layerId = UUID1;
paths = (
{
closed = 1;
nodes = (
"515 437 LINE",
"402 437 LINE",
"403 425 OFFCURVE",
"398 412 OFFCURVE",
"398 402 CURVE",
"401 391 OFFCURVE",
"360 449 OFFCURVE",
"266 449 CURVE SMOOTH",
"144 449 OFFCURVE",
"43 350 OFFCURVE",
"43 216 CURVE SMOOTH",
"43 216 LINE SMOOTH",
"43 88 OFFCURVE",
"136 -12 OFFCURVE",
"267 -12 CURVE SMOOTH",
"346 -12 OFFCURVE",
"381 25 OFFCURVE",
"403 41 CURVE",
"403 35 OFFCURVE",
"398 35 OFFCURVE",
"398 22 CURVE SMOOTH",
"398 20 OFFCURVE",
"398 8 OFFCURVE",
"398 2 CURVE SMOOTH",
"398 -64 OFFCURVE",
"339 -98 OFFCURVE",
"273 -98 CURVE SMOOTH",
"206 -98 OFFCURVE",
"169 -66 OFFCURVE",
"139 -38 CURVE",
"64 -117 LINE",
"108 -153 OFFCURVE",
"157 -210 OFFCURVE",
"275 -210 CURVE SMOOTH",
"406 -210 OFFCURVE",
"515 -130 OFFCURVE",
"515 30 CURVE SMOOTH"
);
},
{
closed = 1;
nodes = (
"160 220 LINE SMOOTH",
"160 287 OFFCURVE",
"208 335 OFFCURVE",
"279 335 CURVE SMOOTH",
"351 335 OFFCURVE",
"398 286 OFFCURVE",
"398 220 CURVE SMOOTH",
"398 154 OFFCURVE",
"351 102 OFFCURVE",
"279 102 CURVE SMOOTH",
"208 102 OFFCURVE",
"160 153 OFFCURVE",
"160 220 CURVE SMOOTH"
);
}
);
width = 598;
}
);
unicode = 0067;
},
{
glyphname = h;
lastChange = "2016-08-26 20:32:07 +0000";
layers = (
{
hints = (
{
horizontal = 1;
place = "{0, 21}";
target = up;
type = BottomGhost;
},
{
horizontal = 1;
place = "{750, -20}";
target = down;
type = TopGhost;
}
);
layerId = UUID0;
paths = (
{
closed = 1;
nodes = (
"94 750 LINE",
"80 750 LINE",
"80 0 LINE",
"94 0 LINE",
"94 220 LINE SMOOTH",
"94 306 OFFCURVE",
"173 368 OFFCURVE",
"263 368 CURVE",
"321 365 OFFCURVE",
"356 325 OFFCURVE",
"358 277 CURVE",
"358 0 LINE",
"372 0 LINE",
"372 270 LINE",
"370 336 OFFCURVE",
"326 382 OFFCURVE",
"256 382 CURVE SMOOTH",
"181 382 OFFCURVE",
"118 339 OFFCURVE",
"94 283 CURVE"
);
}
);
width = 453;
},
{
hints = (
{
horizontal = 1;
place = "{0, 21}";
target = up;
type = BottomGhost;
},
{
horizontal = 1;
place = "{750, -20}";
target = down;
type = TopGhost;
}
);
layerId = UUID1;
paths = (
{
closed = 1;
nodes = (
"196 789 LINE",
"80 789 LINE",
"80 0 LINE",
"196 0 LINE",
"196 201 LINE SMOOTH",
"196 277 OFFCURVE",
"244 334 OFFCURVE",
"319 334 CURVE",
"375 331 OFFCURVE",
"398 299 OFFCURVE",
"400 260 CURVE",
"400 0 LINE",
"516 0 LINE",
"516 318 LINE",
"514 397 OFFCURVE",
"453 450 OFFCURVE",
"362 449 CURVE SMOOTH",
"276 448 OFFCURVE",
"227 402 OFFCURVE",
"196 332 CURVE"
);
}
);
width = 606;
}
);
unicode = 0068;
},
{
glyphname = hbar;
lastChange = "2016-08-26 20:32:07 +0000";
layers = (
{
components = (
{
name = h;
}
);
hints = (
{
horizontal = 1;
place = "{492, 21}";
target = up;
type = BottomGhost;
},
{
horizontal = 1;
place = "{506, -20}";
target = down;
type = TopGhost;
}
);
layerId = UUID0;
paths = (
{
closed = 1;
nodes = (
"25 571 LINE",
"255 571 LINE",
"255 585 LINE",
"25 585 LINE"
);
}
);
width = 453;
},
{
components = (
{
name = h;
}
);
hints = (
{
horizontal = 1;
place = "{478, 21}";
target = up;
type = BottomGhost;
},
{
horizontal = 1;
place = "{531, -20}";
target = down;
type = TopGhost;
}
);
layerId = UUID1;
paths = (
{
closed = 1;
nodes = (
"15 539 LINE",
"340 539 LINE",
"340 616 LINE",
"15 616 LINE"
);
}
);
width = 606;
}
);
unicode = 0127;
},
{
glyphname = i;
lastChange = "2016-08-26 20:32:07 +0000";
layers = (
{
hints = (
{
horizontal = 1;
place = "{0, 21}";
target = up;
type = BottomGhost;
},
{
horizontal = 1;
place = "{520, -20}";
target = down;
type = TopGhost;
}
);
layerId = UUID0;
paths = (
{
closed = 1;
nodes = (
"67 500 LINE SMOOTH",
"67 489 OFFCURVE",
"76 480 OFFCURVE",
"87 480 CURVE SMOOTH",
"98 480 OFFCURVE",
"107 489 OFFCURVE",
"107 500 CURVE SMOOTH",
"107 511 OFFCURVE",
"98 520 OFFCURVE",
"87 520 CURVE SMOOTH",
"76 520 OFFCURVE",
"67 511 OFFCURVE",
"67 500 CURVE SMOOTH"
);
},
{
closed = 1;
nodes = (
"80 0 LINE",
"94 0 LINE",
"94 375 LINE",
"80 375 LINE"
);
}
);
width = 174;
},
{
hints = (
{
horizontal = 1;
place = "{0, 21}";
target = up;
type = BottomGhost;
},
{
horizontal = 1;
place = "{573, -20}";
target = down;
type = TopGhost;
}
);
layerId = UUID1;
paths = (
{
closed = 1;
nodes = (
"70 612 LINE SMOOTH",
"70 570 OFFCURVE",
"106 542 OFFCURVE",
"140 542 CURVE SMOOTH",
"173 542 OFFCURVE",
"208 570 OFFCURVE",
"208 612 CURVE SMOOTH",
"208 653 OFFCURVE",
"173 683 OFFCURVE",
"140 683 CURVE SMOOTH",
"106 683 OFFCURVE",
"70 653 OFFCURVE",
"70 612 CURVE SMOOTH"
);
},
{
closed = 1;
nodes = (
"80 0 LINE",
"196 0 LINE",
"196 437 LINE",
"80 437 LINE"
);
}
);
width = 276;
}
);
unicode = 0069;
},
{
glyphname = idotless;
lastChange = "2016-08-26 20:32:07 +0000";
layers = (
{
hints = (
{
horizontal = 1;
place = "{0, 21}";
target = up;
type = BottomGhost;
},
{
horizontal = 1;
place = "{520, -20}";
target = down;
type = TopGhost;
}
);
layerId = UUID0;
paths = (
{
closed = 1;
nodes = (
"80 0 LINE",
"94 0 LINE",
"94 375 LINE",
"80 375 LINE"
);
}
);
width = 174;
},
{
hints = (
{
horizontal = 1;
place = "{0, 21}";
target = up;
type = BottomGhost;
},
{
horizontal = 1;
place = "{573, -20}";
target = down;
type = TopGhost;
}
);
layerId = UUID1;
paths = (
{
closed = 1;
nodes = (
"80 0 LINE",
"196 0 LINE",
"196 437 LINE",
"80 437 LINE"
);
}
);
width = 276;
}
);
unicode = 0131;
},
{
glyphname = iacute;
lastChange = "2016-08-26 20:32:07 +0000";
layers = (
{
components = (
{
name = acute;
transform = "{1, 0, 0, 1, -20, 0}";
}
);
hints = (
{
horizontal = 1;
place = "{375, -20}";
target = down;
type = TopGhost;
},
{
horizontal = 1;
place = "{0, 21}";
target = up;
type = BottomGhost;
}
);
layerId = UUID0;
paths = (
{
closed = 1;
nodes = (
"80 0 LINE",
"94 0 LINE",
"94 375 LINE",
"80 375 LINE"
);
}
);
width = 256;
},
{
components = (
{
name = acute;
transform = "{1, 0, 0, 1, -20, 0}";
}
);
hints = (
{
horizontal = 1;
place = "{375, -20}";
target = down;
type = TopGhost;
},
{
horizontal = 1;
place = "{0, 21}";
target = up;
type = BottomGhost;
}
);
layerId = UUID1;
paths = (
{
closed = 1;
nodes = (
"80 0 LINE",
"196 0 LINE",
"196 437 LINE",
"80 437 LINE"
);
}
);
width = 194;
}
);
unicode = 00ED;
},
{
glyphname = icircumflex;
lastChange = "2016-08-26 20:32:07 +0000";
layers = (
{
components = (
{
name = asciicircum;
transform = "{1, 0, 0, 1, -144, 0}";
}
);
hints = (
{
horizontal = 1;
place = "{375, -20}";
target = down;
type = TopGhost;
},
{
horizontal = 1;
place = "{0, 21}";
target = up;
type = BottomGhost;
}
);
layerId = UUID0;
paths = (
{
closed = 1;
nodes = (
"80 0 LINE",
"94 0 LINE",
"94 375 LINE",
"80 375 LINE"
);
}
);
width = 174;
},
{
components = (
{
name = asciicircum;
transform = "{1, 0, 0, 1, -97, 0}";
}
);
hints = (
{
horizontal = 1;
place = "{375, -20}";
target = down;
type = TopGhost;
},
{
horizontal = 1;
place = "{0, 21}";
target = up;
type = BottomGhost;
}
);
layerId = UUID1;
paths = (
{
closed = 1;
nodes = (
"80 0 LINE",
"196 0 LINE",
"196 437 LINE",
"80 437 LINE"
);
}
);
width = 271;
}
);
unicode = 00EE;
},
{
glyphname = idieresis;
lastChange = "2016-08-26 20:32:07 +0000";
layers = (
{
components = (
{
name = dieresis;
transform = "{1, 0, 0, 1, -97, 0}";
}
);
hints = (
{
horizontal = 1;
place = "{375, -20}";
target = down;
type = TopGhost;
},
{
horizontal = 1;
place = "{0, 21}";
target = up;
type = BottomGhost;
}
);
layerId = UUID0;
paths = (
{
closed = 1;
nodes = (
"80 0 LINE",
"94 0 LINE",
"94 375 LINE",
"80 375 LINE"
);
}
);
width = 179;
},
{
components = (
{
name = dieresis;
transform = "{1, 0, 0, 1, -59, 0}";
}
);
hints = (
{
horizontal = 1;
place = "{375, -20}";
target = down;
type = TopGhost;
},
{
horizontal = 1;
place = "{0, 21}";
target = up;
type = BottomGhost;
}
);
layerId = UUID1;
paths = (
{
closed = 1;
nodes = (
"80 0 LINE",
"196 0 LINE",
"196 437 LINE",
"80 437 LINE"
);
}
);
width = 271;
}
);
unicode = 00EF;
},
{
glyphname = igrave;
lastChange = "2016-08-26 20:32:07 +0000";
layers = (
{
components = (
{
name = grave;
transform = "{1, 0, 0, 1, 14, 0}";
}
);
hints = (
{
horizontal = 1;
place = "{375, -20}";
target = down;
type = TopGhost;
},
{
horizontal = 1;
place = "{0, 21}";
target = up;
type = BottomGhost;
}
);
layerId = UUID0;
paths = (
{
closed = 1;
nodes = (
"80 0 LINE",
"94 0 LINE",
"94 375 LINE",
"80 375 LINE"
);
}
);
width = 170;
},
{
components = (
{
name = grave;
transform = "{1, 0, 0, 1, 44, 0}";
}
);
hints = (
{
horizontal = 1;
place = "{375, -20}";
target = down;
type = TopGhost;
},
{
horizontal = 1;
place = "{0, 21}";
target = up;
type = BottomGhost;
}
);
layerId = UUID1;
paths = (
{
closed = 1;
nodes = (
"80 0 LINE",
"196 0 LINE",
"196 437 LINE",
"80 437 LINE"
);
}
);
width = 265;
}
);
unicode = 00EC;
},
{
glyphname = j;
lastChange = "2016-08-26 20:32:07 +0000";
layers = (
{
hints = (
{
horizontal = 1;
place = "{-180, 21}";
target = up;
type = BottomGhost;
},
{
horizontal = 1;
place = "{520, -20}";
target = down;
type = TopGhost;
}
);
layerId = UUID0;
paths = (
{
closed = 1;
nodes = (
"37 -180 LINE",
"72 -141 OFFCURVE",
"94 -83 OFFCURVE",
"94 -7 CURVE SMOOTH",
"94 375 LINE",
"89 375 OFFCURVE",
"85 375 OFFCURVE",
"80 375 CURVE",
"80 -11 LINE SMOOTH",
"80 -79 OFFCURVE",
"58 -134 OFFCURVE",
"25 -171 CURVE",
"29 -174 OFFCURVE",
"33 -177 OFFCURVE",
"37 -180 CURVE"
);
},
{
closed = 1;
nodes = (
"67 500 LINE SMOOTH",
"67 489 OFFCURVE",
"76 480 OFFCURVE",
"87 480 CURVE SMOOTH",
"98 480 OFFCURVE",
"107 489 OFFCURVE",
"107 500 CURVE SMOOTH",
"107 511 OFFCURVE",
"98 520 OFFCURVE",
"87 520 CURVE SMOOTH",
"76 520 OFFCURVE",
"67 511 OFFCURVE",
"67 500 CURVE SMOOTH"
);
}
);
width = 174;
},
{
hints = (
{
horizontal = 1;
place = "{-181, 21}";
target = up;
type = BottomGhost;
},
{
horizontal = 1;
place = "{573, -20}";
target = down;
type = TopGhost;
}
);
layerId = UUID1;
paths = (
{
closed = 1;
nodes = (
"97 -211 LINE",
"158 -165 OFFCURVE",
"196 -94 OFFCURVE",
"196 2 CURVE SMOOTH",
"196 437 LINE",
"157 437 OFFCURVE",
"119 437 OFFCURVE",
"80 437 CURVE",
"80 8 LINE SMOOTH",
"80 -53 OFFCURVE",
"57 -95 OFFCURVE",
"17 -124 CURVE",
"43 -154 OFFCURVE",
"69 -181 OFFCURVE",
"97 -211 CURVE"
);
},
{
closed = 1;
nodes = (
"73 612 LINE SMOOTH",
"73 570 OFFCURVE",
"108 542 OFFCURVE",
"143 542 CURVE SMOOTH",
"177 542 OFFCURVE",
"211 570 OFFCURVE",
"211 612 CURVE SMOOTH",
"211 653 OFFCURVE",
"177 683 OFFCURVE",
"143 683 CURVE SMOOTH",
"108 683 OFFCURVE",
"73 653 OFFCURVE",
"73 612 CURVE SMOOTH"
);
}
);
width = 276;
}
);
unicode = 006A;
},
{
glyphname = jcircumflex;
lastChange = "2016-08-26 20:32:07 +0000";
layers = (
{
components = (
{
name = asciicircum;
transform = "{1, 0, 0, 1, -144, -1}";
}
);
hints = (
{
horizontal = 1;
place = "{-180, 21}";
target = up;
type = BottomGhost;
},
{
horizontal = 1;
place = "{520, -20}";
target = down;
type = TopGhost;
}
);
layerId = UUID0;
paths = (
{
closed = 1;
nodes = (
"37 -180 LINE",
"72 -141 OFFCURVE",
"94 -83 OFFCURVE",
"94 -7 CURVE SMOOTH",
"94 375 LINE",
"89 375 OFFCURVE",
"85 375 OFFCURVE",
"80 375 CURVE",
"80 -11 LINE SMOOTH",
"80 -79 OFFCURVE",
"58 -134 OFFCURVE",
"25 -171 CURVE",
"29 -174 OFFCURVE",
"33 -177 OFFCURVE",
"37 -180 CURVE"
);
}
);
width = 174;
},
{
components = (
{
name = asciicircum;
transform = "{1, 0, 0, 1, -101, -1}";
}
);
hints = (
{
horizontal = 1;
place = "{-181, 21}";
target = up;
type = BottomGhost;
},
{
horizontal = 1;
place = "{573, -20}";
target = down;
type = TopGhost;
}
);
layerId = UUID1;
paths = (
{
closed = 1;
nodes = (
"97 -211 LINE",
"158 -165 OFFCURVE",
"196 -94 OFFCURVE",
"196 2 CURVE SMOOTH",
"196 437 LINE",
"157 437 OFFCURVE",
"119 437 OFFCURVE",
"80 437 CURVE",
"80 8 LINE SMOOTH",
"80 -53 OFFCURVE",
"57 -95 OFFCURVE",
"17 -124 CURVE",
"43 -154 OFFCURVE",
"69 -181 OFFCURVE",
"97 -211 CURVE"
);
}
);
width = 276;
}
);
unicode = 0135;
},
{
glyphname = k;
lastChange = "2016-08-26 20:32:07 +0000";
layers = (
{
hints = (
{
horizontal = 1;
place = "{750, -20}";
target = down;
type = TopGhost;
},
{
horizontal = 1;
place = "{0, 21}";
target = up;
type = BottomGhost;
}
);
layerId = UUID0;
paths = (
{
closed = 1;
nodes = (
"94 750 LINE",
"80 750 LINE",
"80 0 LINE",
"94 0 LINE",
"94 155 LINE",
"119 178 OFFCURVE",
"143 202 OFFCURVE",
"168 225 CURVE",
"223 150 OFFCURVE",
"279 75 OFFCURVE",
"334 0 CURVE",
"352 0 LINE",
"295 78 OFFCURVE",
"237 157 OFFCURVE",
"180 235 CURVE",
"231 283 OFFCURVE",
"275 326 OFFCURVE",
"326 374 CURVE",
"323 377 OFFCURVE",
"320 381 OFFCURVE",
"317 384 CURVE",
"317 384 LINE",
"241 313 OFFCURVE",
"170 247 OFFCURVE",
"94 176 CURVE"
);
}
);
width = 388;
},
{
hints = (
{
horizontal = 1;
place = "{750, -20}";
target = down;
type = TopGhost;
},
{
horizontal = 1;
place = "{0, 21}";
target = up;
type = BottomGhost;
}
);
layerId = UUID1;
paths = (
{
closed = 1;
nodes = (
"196 789 LINE",
"80 789 LINE",
"80 0 LINE",
"196 0 LINE",
"196 122 LINE",
"212 137 OFFCURVE",
"231 153 OFFCURVE",
"247 168 CURVE",
"287 112 OFFCURVE",
"330 56 OFFCURVE",
"371 0 CURVE",
"504 0 LINE",
"445 81 OFFCURVE",
"387 163 OFFCURVE",
"327 244 CURVE",
"378 291 OFFCURVE",
"421 333 OFFCURVE",
"472 380 CURVE",
"449 403 OFFCURVE",
"426 425 OFFCURVE",
"403 448 CURVE",
"403 448 LINE",
"332 381 OFFCURVE",
"268 323 OFFCURVE",
"196 256 CURVE"
);
}
);
width = 513;
}
);
unicode = 006B;
},
{
glyphname = l;
lastChange = "2016-08-26 20:32:07 +0000";
layers = (
{
hints = (
{
horizontal = 1;
place = "{750, -20}";
target = down;
type = TopGhost;
},
{
horizontal = 1;
place = "{0, 21}";
target = up;
type = BottomGhost;
}
);
layerId = UUID0;
paths = (
{
closed = 1;
nodes = (
"80 0 LINE",
"94 0 LINE",
"94 750 LINE",
"80 750 LINE"
);
}
);
width = 174;
},
{
hints = (
{
horizontal = 1;
place = "{750, -20}";
target = down;
type = TopGhost;
},
{
horizontal = 1;
place = "{0, 21}";
target = up;
type = BottomGhost;
}
);
layerId = UUID1;
paths = (
{
closed = 1;
nodes = (
"61 0 LINE",
"177 0 LINE",
"177 789 LINE",
"61 789 LINE"
);
}
);
width = 240;
}
);
unicode = 006C;
},
{
glyphname = lslash;
lastChange = "2016-08-26 20:32:07 +0000";
layers = (
{
components = (
{
name = l;
}
);
layerId = UUID0;
paths = (
{
closed = 1;
nodes = (
"23 293 LINE",
"23 279 LINE",
"174 335 LINE",
"174 349 LINE"
);
}
);
width = 174;
},
{
components = (
{
name = l;
}
);
layerId = UUID1;
paths = (
{
closed = 1;
nodes = (
"15 346 LINE",
"15 225 LINE",
"240 292 LINE",
"240 413 LINE"
);
}
);
width = 240;
}
);
unicode = 0142;
},
{
glyphname = m;
lastChange = "2016-08-26 20:32:07 +0000";
layers = (
{
hints = (
{
horizontal = 1;
place = "{0, 21}";
target = up;
type = BottomGhost;
},
{
horizontal = 1;
place = "{382, -20}";
target = down;
type = TopGhost;
}
);
layerId = UUID0;
paths = (
{
closed = 1;
nodes = (
"80 375 LINE",
"80 0 LINE",
"94 0 LINE",
"94 220 LINE SMOOTH",
"94 306 OFFCURVE",
"173 368 OFFCURVE",
"263 368 CURVE",
"321 365 OFFCURVE",
"356 325 OFFCURVE",
"358 277 CURVE",
"358 0 LINE",
"372 0 LINE",
"372 226 LINE",
"376 309 OFFCURVE",
"453 368 OFFCURVE",
"541 368 CURVE",
"599 365 OFFCURVE",
"634 325 OFFCURVE",
"636 277 CURVE",
"636 0 LINE",
"650 0 LINE",
"650 270 LINE",
"648 336 OFFCURVE",
"604 382 OFFCURVE",
"534 382 CURVE SMOOTH",
"461 382 OFFCURVE",
"399 341 OFFCURVE",
"371 282 CURVE",
"364 341 OFFCURVE",
"321 382 OFFCURVE",
"256 382 CURVE SMOOTH",
"181 382 OFFCURVE",
"118 339 OFFCURVE",
"91 277 CURVE",
"91 277 OFFCURVE",
"90 375 OFFCURVE",
"90 375 CURVE"
);
}
);
width = 731;
},
{
hints = (
{
horizontal = 1;
place = "{0, 21}";
target = up;
type = BottomGhost;
},
{
horizontal = 1;
place = "{384, -20}";
target = down;
type = TopGhost;
}
);
layerId = UUID1;
paths = (
{
closed = 1;
nodes = (
"98 437 LINE",
"98 0 LINE",
"214 0 LINE",
"214 201 LINE SMOOTH",
"214 277 OFFCURVE",
"252 334 OFFCURVE",
"327 334 CURVE",
"383 331 OFFCURVE",
"406 299 OFFCURVE",
"408 260 CURVE",
"408 0 LINE",
"524 0 LINE",
"524 199 LINE",
"524 277 OFFCURVE",
"562 334 OFFCURVE",
"637 334 CURVE",
"695 331 OFFCURVE",
"716 299 OFFCURVE",
"718 260 CURVE",
"718 0 LINE",
"835 0 LINE",
"835 318 LINE",
"833 395 OFFCURVE",
"774 449 OFFCURVE",
"681 449 CURVE SMOOTH",
"595 448 OFFCURVE",
"558 402 OFFCURVE",
"523 332 CURVE",
"514 401 OFFCURVE",
"458 449 OFFCURVE",
"371 449 CURVE SMOOTH",
"283 448 OFFCURVE",
"244 400 OFFCURVE",
"211 326 CURVE",
"208 373 OFFCURVE",
"204 378 OFFCURVE",
"201 437 CURVE"
);
}
);
width = 925;
}
);
unicode = 006D;
},
{
glyphname = n;
lastChange = "2016-08-26 20:32:07 +0000";
layers = (
{
hints = (
{
horizontal = 1;
place = "{0, 21}";
target = up;
type = BottomGhost;
},
{
horizontal = 1;
place = "{382, -20}";
target = down;
type = TopGhost;
}
);
layerId = UUID0;
paths = (
{
closed = 1;
nodes = (
"80 375 LINE",
"80 0 LINE",
"94 0 LINE",
"94 220 LINE SMOOTH",
"94 306 OFFCURVE",
"173 368 OFFCURVE",
"263 368 CURVE",
"321 365 OFFCURVE",
"356 325 OFFCURVE",
"358 277 CURVE",
"358 0 LINE",
"372 0 LINE",
"372 270 LINE",
"370 336 OFFCURVE",
"326 382 OFFCURVE",
"256 382 CURVE SMOOTH",
"181 382 OFFCURVE",
"118 339 OFFCURVE",
"91 277 CURVE",
"91 277 OFFCURVE",
"90 375 OFFCURVE",
"90 375 CURVE"
);
}
);
width = 453;
},
{
hints = (
{
horizontal = 1;
place = "{0, 21}";
target = up;
type = BottomGhost;
},
{
horizontal = 1;
place = "{384, -20}";
target = down;
type = TopGhost;
}
);
layerId = UUID1;
paths = (
{
closed = 1;
nodes = (
"80 437 LINE",
"80 0 LINE",
"196 0 LINE",
"196 201 LINE SMOOTH",
"196 277 OFFCURVE",
"244 334 OFFCURVE",
"319 334 CURVE",
"375 331 OFFCURVE",
"398 299 OFFCURVE",
"400 260 CURVE",
"400 0 LINE",
"516 0 LINE",
"516 318 LINE",
"514 395 OFFCURVE",
"455 449 OFFCURVE",
"365 449 CURVE SMOOTH",
"279 449 OFFCURVE",
"225 400 OFFCURVE",
"193 326 CURVE",
"190 373 OFFCURVE",
"186 378 OFFCURVE",
"183 437 CURVE"
);
}
);
width = 616;
}
);
unicode = 006E;
},
{
glyphname = o;
lastChange = "2016-08-26 20:32:07 +0000";
layers = (
{
hints = (
{
horizontal = 1;
place = "{-6, 21}";
target = up;
type = BottomGhost;
},
{
horizontal = 1;
place = "{384, -20}";
target = down;
type = TopGhost;
}
);
layerId = UUID0;
paths = (
{
closed = 1;
nodes = (
"36 188 LINE",
"36 80 OFFCURVE",
"122 -6 OFFCURVE",
"230 -6 CURVE SMOOTH",
"338 -6 OFFCURVE",
"426 80 OFFCURVE",
"426 188 CURVE SMOOTH",
"426 296 OFFCURVE",
"338 384 OFFCURVE",
"230 384 CURVE SMOOTH",
"122 384 OFFCURVE",
"36 296 OFFCURVE",
"36 188 CURVE"
);
},
{
closed = 1;
nodes = (
"50 188 LINE",
"50 288 OFFCURVE",
"130 369 OFFCURVE",
"230 369 CURVE SMOOTH",
"330 369 OFFCURVE",
"411 288 OFFCURVE",
"411 188 CURVE SMOOTH",
"411 88 OFFCURVE",
"330 8 OFFCURVE",
"230 8 CURVE SMOOTH",
"130 8 OFFCURVE",
"50 88 OFFCURVE",
"50 188 CURVE"
);
}
);
width = 462;
},
{
hints = (
{
horizontal = 1;
place = "{-9, 21}";
target = up;
type = BottomGhost;
},
{
horizontal = 1;
place = "{384, -20}";
target = down;
type = TopGhost;
}
);
layerId = UUID1;
paths = (
{
closed = 1;
nodes = (
"43 219 LINE",
"43 79 OFFCURVE",
"149 -12 OFFCURVE",
"277 -12 CURVE SMOOTH",
"413 -12 OFFCURVE",
"509 93 OFFCURVE",
"509 219 CURVE SMOOTH",
"509 345 OFFCURVE",
"412 448 OFFCURVE",
"279 448 CURVE SMOOTH",
"148 448 OFFCURVE",
"43 345 OFFCURVE",
"43 219 CURVE"
);
},
{
closed = 1;
nodes = (
"159 218 LINE",
"159 282 OFFCURVE",
"210 335 OFFCURVE",
"275 335 CURVE SMOOTH",
"339 335 OFFCURVE",
"392 282 OFFCURVE",
"392 218 CURVE SMOOTH",
"392 154 OFFCURVE",
"339 102 OFFCURVE",
"275 102 CURVE SMOOTH",
"210 102 OFFCURVE",
"159 154 OFFCURVE",
"159 218 CURVE"
);
}
);
width = 553;
}
);
unicode = 006F;
},
{
glyphname = oslash;
lastChange = "2016-08-26 20:32:07 +0000";
layers = (
{
components = (
{
name = o;
}
);
hints = (
{
horizontal = 1;
place = "{-8, 21}";
target = up;
type = BottomGhost;
},
{
horizontal = 1;
place = "{383, -20}";
target = down;
type = TopGhost;
}
);
layerId = UUID0;
paths = (
{
closed = 1;
nodes = (
"369 375 LINE",
"300 293 OFFCURVE",
"132 92 OFFCURVE",
"63 10 CURVE",
"71 0 LINE",
"140 83 OFFCURVE",
"309 283 OFFCURVE",
"378 366 CURVE"
);
}
);
width = 468;
},
{
components = (
{
name = o;
}
);
hints = (
{
horizontal = 1;
place = "{-26, 21}";
target = up;
type = BottomGhost;
},
{
horizontal = 1;
place = "{401, -20}";
target = down;
type = TopGhost;
}
);
layerId = UUID1;
paths = (
{
closed = 1;
nodes = (
"442 474 LINE",
"398 423 OFFCURVE",
"80 65 OFFCURVE",
"36 14 CURVE",
"93 -37 LINE",
"138 15 OFFCURVE",
"457 374 OFFCURVE",
"502 426 CURVE"
);
}
);
width = 546;
}
);
unicode = 00F8;
},
{
glyphname = oe;
lastChange = "2016-08-26 20:32:07 +0000";
layers = (
{
hints = (
{
horizontal = 1;
place = "{384, -20}";
target = down;
type = TopGhost;
},
{
horizontal = 1;
place = "{-9, 21}";
target = up;
type = BottomGhost;
},
{
horizontal = 1;
place = "{-6, 21}";
target = up;
type = BottomGhost;
},
{
horizontal = 1;
place = "{384, -20}";
target = down;
type = TopGhost;
}
);
layerId = UUID0;
paths = (
{
closed = 1;
nodes = (
"345 347 LINE",
"313 370 OFFCURVE",
"273 384 OFFCURVE",
"230 384 CURVE SMOOTH",
"122 384 OFFCURVE",
"36 296 OFFCURVE",
"36 188 CURVE SMOOTH",
"36 80 OFFCURVE",
"122 -6 OFFCURVE",
"230 -6 CURVE SMOOTH",
"274 -6 OFFCURVE",
"314 8 OFFCURVE",
"347 32 CURVE",
"333 40 LINE",
"304 20 OFFCURVE",
"268 8 OFFCURVE",
"230 8 CURVE SMOOTH",
"130 8 OFFCURVE",
"50 88 OFFCURVE",
"50 188 CURVE SMOOTH",
"50 288 OFFCURVE",
"130 369 OFFCURVE",
"230 369 CURVE SMOOTH",
"268 369 OFFCURVE",
"304 357 OFFCURVE",
"333 337 CURVE"
);
},
{
closed = 1;
nodes = (
"573 56 LINE",
"541 26 OFFCURVE",
"498 8 OFFCURVE",
"450 8 CURVE SMOOTH",
"373 8 OFFCURVE",
"308 55 OFFCURVE",
"282 122 CURVE",
"383 164 OFFCURVE",
"519 218 OFFCURVE",
"619 259 CURVE",
"590 330 OFFCURVE",
"532 384 OFFCURVE",
"450 384 CURVE SMOOTH",
"342 384 OFFCURVE",
"256 296 OFFCURVE",
"256 188 CURVE SMOOTH",
"256 80 OFFCURVE",
"342 -6 OFFCURVE",
"450 -6 CURVE SMOOTH",
"502 -6 OFFCURVE",
"549 14 OFFCURVE",
"584 46 CURVE"
);
},
{
closed = 1;
nodes = (
"600 266 LINE",
"501 225 OFFCURVE",
"375 176 OFFCURVE",
"277 135 CURVE",
"272 152 OFFCURVE",
"270 169 OFFCURVE",
"270 188 CURVE SMOOTH",
"270 288 OFFCURVE",
"350 369 OFFCURVE",
"450 369 CURVE SMOOTH",
"521 369 OFFCURVE",
"572 326 OFFCURVE",
"600 266 CURVE"
);
}
);
width = 653;
},
{
hints = (
{
horizontal = 1;
place = "{384, -20}";
target = down;
type = TopGhost;
},
{
horizontal = 1;
place = "{-9, 21}";
target = up;
type = BottomGhost;
},
{
horizontal = 1;
place = "{-9, 21}";
target = up;
type = BottomGhost;
},
{
horizontal = 1;
place = "{384, -20}";
target = down;
type = TopGhost;
}
);
layerId = UUID1;
paths = (
{
closed = 1;
nodes = (
"417 404 LINE",
"379 431 OFFCURVE",
"332 448 OFFCURVE",
"279 448 CURVE SMOOTH",
"148 448 OFFCURVE",
"43 345 OFFCURVE",
"43 219 CURVE SMOOTH",
"43 79 OFFCURVE",
"149 -12 OFFCURVE",
"277 -12 CURVE SMOOTH",
"332 -12 OFFCURVE",
"381 5 OFFCURVE",
"419 34 CURVE",
"341 122 LINE",
"322 109 OFFCURVE",
"299 102 OFFCURVE",
"275 102 CURVE SMOOTH",
"210 102 OFFCURVE",
"159 154 OFFCURVE",
"159 218 CURVE SMOOTH",
"159 282 OFFCURVE",
"210 335 OFFCURVE",
"275 335 CURVE SMOOTH",
"299 335 OFFCURVE",
"322 327 OFFCURVE",
"341 314 CURVE"
);
},
{
closed = 1;
nodes = (
"625 134 LINE",
"605 115 OFFCURVE",
"567 102 OFFCURVE",
"536 102 CURVE SMOOTH",
"493 102 OFFCURVE",
"455 125 OFFCURVE",
"434 160 CURVE",
"531 196 OFFCURVE",
"671 256 OFFCURVE",
"746 282 CURVE",
"716 383 OFFCURVE",
"633 448 OFFCURVE",
"534 448 CURVE SMOOTH",
"411 448 OFFCURVE",
"304 345 OFFCURVE",
"304 218 CURVE SMOOTH",
"304 93 OFFCURVE",
"409 -12 OFFCURVE",
"539 -12 CURVE SMOOTH",
"602 -12 OFFCURVE",
"669 12 OFFCURVE",
"711 50 CURVE"
);
},
{
closed = 1;
nodes = (
"602 307 LINE",
"559 292 OFFCURVE",
"476 255 OFFCURVE",
"418 232 CURVE",
"420 226 OFFCURVE",
"420 222 OFFCURVE",
"420 224 CURVE SMOOTH",
"420 278 OFFCURVE",
"470 335 OFFCURVE",
"536 335 CURVE SMOOTH",
"557 335 OFFCURVE",
"590 329 OFFCURVE",
"602 307 CURVE"
);
}
);
width = 779;
}
);
unicode = 0153;
},
{
glyphname = p;
lastChange = "2016-08-26 20:32:07 +0000";
layers = (
{
hints = (
{
horizontal = 1;
place = "{381, -20}";
target = down;
type = TopGhost;
},
{
horizontal = 1;
place = "{-250, 21}";
target = up;
type = BottomGhost;
}
);
layerId = UUID0;
paths = (
{
closed = 1;
nodes = (
"80 375 LINE",
"80 -180 LINE",
"94 -180 LINE",
"94 54 LINE SMOOTH",
"94 75 OFFCURVE",
"93 96 OFFCURVE",
"93 117 CURVE",
"121 45 OFFCURVE",
"192 -6 OFFCURVE",
"275 -6 CURVE SMOOTH",
"383 -6 OFFCURVE",
"469 80 OFFCURVE",
"469 188 CURVE SMOOTH",
"469 188 LINE SMOOTH",
"469 296 OFFCURVE",
"383 383 OFFCURVE",
"275 383 CURVE SMOOTH",
"193 383 OFFCURVE",
"123 332 OFFCURVE",
"94 260 CURVE",
"94 298 OFFCURVE",
"94 375 OFFCURVE",
"94 375 CURVE"
);
},
{
closed = 1;
nodes = (
"455 188 LINE SMOOTH",
"455 88 OFFCURVE",
"375 8 OFFCURVE",
"275 8 CURVE SMOOTH",
"175 8 OFFCURVE",
"94 88 OFFCURVE",
"94 188 CURVE SMOOTH",
"94 288 OFFCURVE",
"175 369 OFFCURVE",
"275 369 CURVE SMOOTH",
"375 369 OFFCURVE",
"455 288 OFFCURVE",
"455 188 CURVE SMOOTH"
);
}
);
width = 505;
},
{
hints = (
{
horizontal = 1;
place = "{382, -20}";
target = down;
type = TopGhost;
},
{
horizontal = 1;
place = "{-250, 21}";
target = up;
type = BottomGhost;
}
);
layerId = UUID1;
paths = (
{
closed = 1;
nodes = (
"80 437 LINE",
"80 -210 LINE",
"197 -210 LINE",
"197 25 LINE SMOOTH",
"197 27 OFFCURVE",
"196 28 OFFCURVE",
"196 29 CURVE",
"212 13 OFFCURVE",
"262 -12 OFFCURVE",
"322 -12 CURVE SMOOTH",
"460 -12 OFFCURVE",
"552 84 OFFCURVE",
"552 217 CURVE SMOOTH",
"552 217 LINE SMOOTH",
"552 364 OFFCURVE",
"463 449 OFFCURVE",
"328 449 CURVE SMOOTH",
"257 449 OFFCURVE",
"215 414 OFFCURVE",
"197 399 CURVE",
"197 409 OFFCURVE",
"192 414 OFFCURVE",
"192 437 CURVE"
);
},
{
closed = 1;
nodes = (
"425 219 LINE SMOOTH",
"425 154 OFFCURVE",
"388 102 OFFCURVE",
"316 102 CURVE SMOOTH",
"245 102 OFFCURVE",
"197 153 OFFCURVE",
"197 220 CURVE SMOOTH",
"197 287 OFFCURVE",
"245 335 OFFCURVE",
"316 335 CURVE SMOOTH",
"388 335 OFFCURVE",
"425 287 OFFCURVE",
"425 219 CURVE SMOOTH"
);
}
);
width = 625;
}
);
unicode = 0070;
},
{
glyphname = thorn;
lastChange = "2016-08-26 20:32:07 +0000";
layers = (
{
hints = (
{
horizontal = 1;
place = "{750, -20}";
target = down;
type = TopGhost;
},
{
horizontal = 1;
place = "{-250, 21}";
target = up;
type = BottomGhost;
},
{
horizontal = 1;
place = "{381, -20}";
target = down;
type = TopGhost;
},
{
horizontal = 1;
place = "{-250, 21}";
target = up;
type = BottomGhost;
}
);
layerId = UUID0;
paths = (
{
closed = 1;
nodes = (
"80 750 LINE",
"80 -180 LINE",
"94 -180 LINE",
"94 54 LINE SMOOTH",
"94 75 OFFCURVE",
"93 96 OFFCURVE",
"93 117 CURVE",
"121 45 OFFCURVE",
"192 -6 OFFCURVE",
"275 -6 CURVE SMOOTH",
"383 -6 OFFCURVE",
"469 80 OFFCURVE",
"469 188 CURVE SMOOTH",
"469 188 LINE SMOOTH",
"469 296 OFFCURVE",
"383 383 OFFCURVE",
"275 383 CURVE SMOOTH",
"193 383 OFFCURVE",
"123 332 OFFCURVE",
"94 260 CURVE",
"94 298 OFFCURVE",
"94 750 OFFCURVE",
"94 750 CURVE"
);
},
{
closed = 1;
nodes = (
"455 188 LINE SMOOTH",
"455 88 OFFCURVE",
"375 8 OFFCURVE",
"275 8 CURVE SMOOTH",
"175 8 OFFCURVE",
"94 88 OFFCURVE",
"94 188 CURVE SMOOTH",
"94 288 OFFCURVE",
"175 369 OFFCURVE",
"275 369 CURVE SMOOTH",
"375 369 OFFCURVE",
"455 288 OFFCURVE",
"455 188 CURVE SMOOTH"
);
}
);
width = 505;
},
{
hints = (
{
horizontal = 1;
place = "{750, -20}";
target = down;
type = TopGhost;
},
{
horizontal = 1;
place = "{-250, 21}";
target = up;
type = BottomGhost;
},
{
horizontal = 1;
place = "{382, -20}";
target = down;
type = TopGhost;
},
{
horizontal = 1;
place = "{-250, 21}";
target = up;
type = BottomGhost;
}
);
layerId = UUID1;
paths = (
{
closed = 1;
nodes = (
"80 789 LINE",
"80 -210 LINE",
"197 -210 LINE",
"197 25 LINE SMOOTH",
"197 27 OFFCURVE",
"196 28 OFFCURVE",
"196 29 CURVE",
"212 13 OFFCURVE",
"262 -12 OFFCURVE",
"322 -12 CURVE SMOOTH",
"460 -12 OFFCURVE",
"552 84 OFFCURVE",
"552 217 CURVE SMOOTH",
"552 217 LINE SMOOTH",
"552 364 OFFCURVE",
"463 449 OFFCURVE",
"328 449 CURVE SMOOTH",
"257 449 OFFCURVE",
"215 414 OFFCURVE",
"197 399 CURVE",
"197 409 OFFCURVE",
"197 766 OFFCURVE",
"197 789 CURVE"
);
},
{
closed = 1;
nodes = (
"425 219 LINE SMOOTH",
"425 154 OFFCURVE",
"388 102 OFFCURVE",
"316 102 CURVE SMOOTH",
"245 102 OFFCURVE",
"197 153 OFFCURVE",
"197 220 CURVE SMOOTH",
"197 287 OFFCURVE",
"245 335 OFFCURVE",
"316 335 CURVE SMOOTH",
"388 335 OFFCURVE",
"425 287 OFFCURVE",
"425 219 CURVE SMOOTH"
);
}
);
width = 625;
}
);
unicode = 00FE;
},
{
glyphname = q;
lastChange = "2016-08-26 20:32:07 +0000";
layers = (
{
hints = (
{
horizontal = 1;
place = "{-250, 21}";
target = up;
type = BottomGhost;
},
{
horizontal = 1;
place = "{381, -20}";
target = down;
type = TopGhost;
}
);
layerId = UUID0;
paths = (
{
closed = 1;
nodes = (
"411 -180 LINE",
"425 -180 LINE",
"425 375 LINE",
"411 375 LINE",
"411 375 OFFCURVE",
"411 298 OFFCURVE",
"411 260 CURVE",
"382 332 OFFCURVE",
"312 383 OFFCURVE",
"230 383 CURVE SMOOTH",
"122 383 OFFCURVE",
"36 296 OFFCURVE",
"36 188 CURVE SMOOTH",
"36 188 LINE SMOOTH",
"36 80 OFFCURVE",
"122 -6 OFFCURVE",
"230 -6 CURVE SMOOTH",
"313 -6 OFFCURVE",
"384 45 OFFCURVE",
"412 117 CURVE",
"412 96 OFFCURVE",
"411 75 OFFCURVE",
"411 54 CURVE SMOOTH"
);
},
{
closed = 1;
nodes = (
"50 188 LINE SMOOTH",
"50 288 OFFCURVE",
"130 369 OFFCURVE",
"230 369 CURVE SMOOTH",
"330 369 OFFCURVE",
"411 288 OFFCURVE",
"411 188 CURVE SMOOTH",
"411 88 OFFCURVE",
"330 8 OFFCURVE",
"230 8 CURVE SMOOTH",
"130 8 OFFCURVE",
"50 88 OFFCURVE",
"50 188 CURVE SMOOTH"
);
}
);
width = 505;
},
{
hints = (
{
horizontal = 1;
place = "{-250, 21}";
target = up;
type = BottomGhost;
},
{
horizontal = 1;
place = "{382, -20}";
target = down;
type = TopGhost;
}
);
layerId = UUID1;
paths = (
{
closed = 1;
nodes = (
"398 -210 LINE",
"515 -210 LINE",
"515 437 LINE",
"403 437 LINE",
"403 414 OFFCURVE",
"398 409 OFFCURVE",
"398 399 CURVE",
"386 408 OFFCURVE",
"354 449 OFFCURVE",
"268 449 CURVE SMOOTH",
"140 449 OFFCURVE",
"43 357 OFFCURVE",
"43 218 CURVE SMOOTH",
"43 218 LINE SMOOTH",
"43 93 OFFCURVE",
"121 -12 OFFCURVE",
"265 -12 CURVE SMOOTH",
"341 -12 OFFCURVE",
"376 18 OFFCURVE",
"401 31 CURVE",
"401 31 OFFCURVE",
"398 24 OFFCURVE",
"398 21 CURVE SMOOTH"
);
},
{
closed = 1;
nodes = (
"160 220 LINE SMOOTH",
"160 287 OFFCURVE",
"208 335 OFFCURVE",
"279 335 CURVE SMOOTH",
"351 335 OFFCURVE",
"398 286 OFFCURVE",
"398 220 CURVE SMOOTH",
"398 154 OFFCURVE",
"351 102 OFFCURVE",
"279 102 CURVE SMOOTH",
"208 102 OFFCURVE",
"160 153 OFFCURVE",
"160 220 CURVE SMOOTH"
);
}
);
width = 600;
}
);
unicode = 0071;
},
{
glyphname = r;
lastChange = "2016-08-26 20:32:07 +0000";
layers = (
{
hints = (
{
horizontal = 1;
place = "{382, -20}";
target = down;
type = TopGhost;
},
{
horizontal = 1;
place = "{0, 21}";
target = up;
type = BottomGhost;
}
);
layerId = UUID0;
paths = (
{
closed = 1;
nodes = (
"80 375 LINE",
"80 0 LINE",
"94 0 LINE",
"94 220 LINE SMOOTH",
"94 304 OFFCURVE",
"170 365 OFFCURVE",
"257 368 CURVE",
"257 382 LINE",
"182 380 OFFCURVE",
"119 341 OFFCURVE",
"91 277 CURVE",
"91 277 OFFCURVE",
"90 375 OFFCURVE",
"90 375 CURVE"
);
}
);
width = 290;
},
{
hints = (
{
horizontal = 1;
place = "{383, -20}";
target = down;
type = TopGhost;
},
{
horizontal = 1;
place = "{0, 21}";
target = up;
type = BottomGhost;
}
);
layerId = UUID1;
paths = (
{
closed = 1;
nodes = (
"80 437 LINE",
"80 0 LINE",
"196 0 LINE",
"196 191 LINE SMOOTH",
"196 267 OFFCURVE",
"263 299 OFFCURVE",
"333 298 CURVE",
"360 449 LINE",
"325 449 OFFCURVE",
"231 403 OFFCURVE",
"193 326 CURVE",
"190 373 OFFCURVE",
"186 378 OFFCURVE",
"183 437 CURVE"
);
}
);
width = 376;
}
);
unicode = 0072;
},
{
glyphname = s;
lastChange = "2016-08-26 20:32:07 +0000";
layers = (
{
hints = (
{
place = "{99, 215}";
},
{
horizontal = 1;
place = "{379, -20}";
target = down;
type = TopGhost;
},
{
horizontal = 1;
place = "{-8, 21}";
target = up;
type = BottomGhost;
}
);
layerId = UUID0;
paths = (
{
closed = 1;
nodes = (
"244 336 LINE",
"216 368 OFFCURVE",
"173 379 OFFCURVE",
"144 379 CURVE SMOOTH",
"95 379 OFFCURVE",
"44 349 OFFCURVE",
"44 286 CURVE SMOOTH",
"44 162 OFFCURVE",
"245 215 OFFCURVE",
"245 96 CURVE SMOOTH",
"245 27 OFFCURVE",
"178 6 OFFCURVE",
"145 6 CURVE SMOOTH",
"114 6 OFFCURVE",
"58 23 OFFCURVE",
"41 48 CURVE",
"37 45 OFFCURVE",
"34 42 OFFCURVE",
"30 39 CURVE",
"58 4 OFFCURVE",
"108 -8 OFFCURVE",
"144 -8 CURVE SMOOTH",
"219 -8 OFFCURVE",
"259 44 OFFCURVE",
"259 100 CURVE SMOOTH",
"259 224 OFFCURVE",
"58 176 OFFCURVE",
"58 287 CURVE SMOOTH",
"58 343 OFFCURVE",
"109 365 OFFCURVE",
"144 365 CURVE SMOOTH",
"171 365 OFFCURVE",
"212 353 OFFCURVE",
"234 326 CURVE",
"237 329 OFFCURVE",
"241 333 OFFCURVE",
"244 336 CURVE"
);
}
);
width = 289;
},
{
hints = (
{
place = "{62, 243}";
},
{
horizontal = 1;
place = "{384, -20}";
target = down;
type = TopGhost;
},
{
horizontal = 1;
place = "{-8, 21}";
target = up;
type = BottomGhost;
}
);
layerId = UUID1;
paths = (
{
closed = 1;
nodes = (
"338 400 LINE",
"307 431 OFFCURVE",
"256 449 OFFCURVE",
"212 449 CURVE SMOOTH",
"149 449 OFFCURVE",
"64 416 OFFCURVE",
"64 314 CURVE SMOOTH",
"64 164 OFFCURVE",
"238 179 OFFCURVE",
"238 129 CURVE SMOOTH",
"238 120 OFFCURVE",
"230 104 OFFCURVE",
"198 104 CURVE SMOOTH",
"152 104 OFFCURVE",
"117 139 OFFCURVE",
"122 131 CURVE",
"122 133 OFFCURVE",
"76 73 OFFCURVE",
"52 46 CURVE",
"82 13 OFFCURVE",
"140 -9 OFFCURVE",
"199 -9 CURVE SMOOTH",
"293 -9 OFFCURVE",
"355 47 OFFCURVE",
"355 128 CURVE SMOOTH",
"355 264 OFFCURVE",
"182 256 OFFCURVE",
"182 315 CURVE SMOOTH",
"182 333 OFFCURVE",
"201 336 OFFCURVE",
"217 336 CURVE SMOOTH",
"255 336 OFFCURVE",
"285 312 OFFCURVE",
"278 319 CURVE",
"278 319 OFFCURVE",
"317 371 OFFCURVE",
"338 400 CURVE"
);
}
);
width = 414;
}
);
unicode = 0073;
},
{
glyphname = germandbls;
lastChange = "2016-08-26 20:32:07 +0000";
layers = (
{
hints = (
{
place = "{407, 78}";
},
{
horizontal = 1;
place = "{-8, 21}";
target = up;
type = BottomGhost;
},
{
horizontal = 1;
place = "{658, -20}";
target = down;
type = TopGhost;
}
);
layerId = UUID0;
paths = (
{
closed = 1;
nodes = (
"96 384 LINE",
"31 384 LINE",
"31 370 LINE",
"96 370 LINE",
"96 0 LINE",
"110 0 LINE",
"110 430 LINE SMOOTH",
"110 559 OFFCURVE",
"165 644 OFFCURVE",
"271 644 CURVE SMOOTH",
"363 644 OFFCURVE",
"407 580 OFFCURVE",
"407 515 CURVE SMOOTH",
"407 442 OFFCURVE",
"350 396 OFFCURVE",
"281 396 CURVE",
"281 388 LINE SMOOTH",
"281 385 OFFCURVE",
"281 383 OFFCURVE",
"281 381 CURVE",
"281 381 LINE",
"386 381 OFFCURVE",
"471 296 OFFCURVE",
"471 195 CURVE SMOOTH",
"471 93 OFFCURVE",
"384 5 OFFCURVE",
"278 5 CURVE SMOOTH",
"242 5 OFFCURVE",
"208 15 OFFCURVE",
"180 33 CURVE",
"178 29 OFFCURVE",
"176 26 OFFCURVE",
"174 22 CURVE",
"174 22 LINE",
"205 3 OFFCURVE",
"241 -8 OFFCURVE",
"280 -8 CURVE SMOOTH",
"392 -8 OFFCURVE",
"485 83 OFFCURVE",
"485 195 CURVE SMOOTH",
"485 290 OFFCURVE",
"418 368 OFFCURVE",
"329 389 CURVE",
"385 410 OFFCURVE",
"421 453 OFFCURVE",
"421 520 CURVE SMOOTH",
"421 587 OFFCURVE",
"386 656 OFFCURVE",
"261 658 CURVE",
"160 654 OFFCURVE",
"96 574 OFFCURVE",
"96 426 CURVE SMOOTH"
);
}
);
width = 530;
},
{
hints = (
{
place = "{360, 142}";
},
{
horizontal = 1;
place = "{-9, 21}";
target = up;
type = BottomGhost;
},
{
horizontal = 1;
place = "{657, -20}";
target = down;
type = TopGhost;
}
);
layerId = UUID1;
paths = (
{
closed = 1;
nodes = (
"61 441 LINE",
"-4 441 LINE",
"-4 320 LINE",
"61 320 LINE",
"61 0 LINE",
"185 0 LINE",
"185 419 LINE SMOOTH",
"185 500 OFFCURVE",
"203 548 OFFCURVE",
"270 548 CURVE SMOOTH",
"314 548 OFFCURVE",
"340 528 OFFCURVE",
"340 496 CURVE SMOOTH",
"340 467 OFFCURVE",
"319 447 OFFCURVE",
"285 447 CURVE",
"285 386 LINE SMOOTH",
"285 366 OFFCURVE",
"286 346 OFFCURVE",
"286 326 CURVE",
"288 326 LINE",
"345 328 OFFCURVE",
"397 280 OFFCURVE",
"397 219 CURVE SMOOTH",
"397 160 OFFCURVE",
"348 112 OFFCURVE",
"291 112 CURVE SMOOTH",
"282 112 OFFCURVE",
"274 113 OFFCURVE",
"265 114 CURVE",
"248 76 OFFCURVE",
"230 39 OFFCURVE",
"214 2 CURVE",
"214 2 LINE",
"237 -7 OFFCURVE",
"266 -10 OFFCURVE",
"288 -10 CURVE SMOOTH",
"415 -10 OFFCURVE",
"521 95 OFFCURVE",
"521 217 CURVE SMOOTH",
"521 316 OFFCURVE",
"451 389 OFFCURVE",
"417 398 CURVE",
"452 416 OFFCURVE",
"464 465 OFFCURVE",
"464 501 CURVE SMOOTH",
"464 592 OFFCURVE",
"385 672 OFFCURVE",
"269 670 CURVE",
"152 672 OFFCURVE",
"61 576 OFFCURVE",
"61 430 CURVE SMOOTH"
);
}
);
width = 549;
}
);
unicode = 00DF;
},
{
glyphname = t;
lastChange = "2016-08-26 20:32:07 +0000";
layers = (
{
hints = (
{
horizontal = 1;
place = "{0, 21}";
target = up;
type = BottomGhost;
},
{
horizontal = 1;
place = "{619, -20}";
target = down;
type = TopGhost;
}
);
layerId = UUID0;
paths = (
{
closed = 1;
nodes = (
"95 367 LINE",
"6 367 LINE",
"6 353 LINE",
"95 353 LINE",
"95 0 LINE",
"109 0 LINE",
"109 353 LINE",
"236 353 LINE",
"236 367 LINE",
"109 367 LINE",
"109 539 LINE",
"95 539 LINE"
);
}
);
width = 248;
},
{
hints = (
{
horizontal = 1;
place = "{0, 21}";
target = up;
type = BottomGhost;
},
{
horizontal = 1;
place = "{619, -20}";
target = down;
type = TopGhost;
}
);
layerId = UUID1;
paths = (
{
closed = 1;
nodes = (
"126 439 LINE",
"58 439 LINE",
"58 336 LINE",
"126 336 LINE",
"126 0 LINE",
"242 0 LINE",
"242 336 LINE",
"348 336 LINE",
"348 439 LINE",
"242 439 LINE",
"242 629 LINE",
"126 629 LINE"
);
}
);
width = 391;
}
);
unicode = 0074;
},
{
glyphname = u;
lastChange = "2016-08-26 20:32:07 +0000";
layers = (
{
hints = (
{
horizontal = 1;
place = "{375, -20}";
target = down;
type = TopGhost;
},
{
horizontal = 1;
place = "{-7, 21}";
target = up;
type = BottomGhost;
}
);
layerId = UUID0;
paths = (
{
closed = 1;
nodes = (
"362 0 LINE",
"372 0 LINE",
"372 375 LINE",
"358 375 LINE",
"358 155 LINE SMOOTH",
"358 69 OFFCURVE",
"279 7 OFFCURVE",
"189 7 CURVE",
"131 10 OFFCURVE",
"96 50 OFFCURVE",
"94 98 CURVE",
"94 375 LINE",
"80 375 LINE",
"80 105 LINE",
"82 39 OFFCURVE",
"126 -7 OFFCURVE",
"196 -7 CURVE SMOOTH",
"270 -7 OFFCURVE",
"334 35 OFFCURVE",
"361 98 CURVE"
);
}
);
width = 452;
},
{
hints = (
{
horizontal = 1;
place = "{375, -20}";
target = down;
type = TopGhost;
},
{
horizontal = 1;
place = "{-9, 21}";
target = up;
type = BottomGhost;
}
);
layerId = UUID1;
paths = (
{
closed = 1;
nodes = (
"418 -13 LINE",
"516 -13 LINE",
"516 437 LINE",
"400 437 LINE",
"400 236 LINE SMOOTH",
"400 160 OFFCURVE",
"352 104 OFFCURVE",
"278 104 CURVE",
"221 108 OFFCURVE",
"198 138 OFFCURVE",
"196 177 CURVE",
"196 437 LINE",
"80 437 LINE",
"80 119 LINE",
"82 42 OFFCURVE",
"141 -11 OFFCURVE",
"232 -11 CURVE SMOOTH",
"322 -11 OFFCURVE",
"373 41 OFFCURVE",
"404 111 CURVE"
);
}
);
width = 596;
}
);
unicode = 0075;
},
{
glyphname = uring;
lastChange = "2016-08-26 20:32:07 +0000";
layers = (
{
components = (
{
name = u;
}
);
layerId = UUID0;
paths = (
{
closed = 1;
nodes = (
"168 469 LINE SMOOTH",
"168 433 OFFCURVE",
"195 406 OFFCURVE",
"231 406 CURVE SMOOTH",
"267 406 OFFCURVE",
"294 433 OFFCURVE",
"294 469 CURVE SMOOTH",
"294 505 OFFCURVE",
"267 532 OFFCURVE",
"231 532 CURVE SMOOTH",
"195 532 OFFCURVE",
"168 505 OFFCURVE",
"168 469 CURVE SMOOTH"
);
},
{
closed = 1;
nodes = (
"182 469 LINE SMOOTH",
"182 495 OFFCURVE",
"205 518 OFFCURVE",
"231 518 CURVE SMOOTH",
"257 518 OFFCURVE",
"280 495 OFFCURVE",
"280 469 CURVE SMOOTH",
"280 443 OFFCURVE",
"257 420 OFFCURVE",
"231 420 CURVE SMOOTH",
"205 420 OFFCURVE",
"182 443 OFFCURVE",
"182 469 CURVE SMOOTH"
);
}
);
width = 452;
},
{
components = (
{
name = u;
}
);
layerId = UUID1;
paths = (
{
closed = 1;
nodes = (
"204 576 LINE SMOOTH",
"204 525 OFFCURVE",
"248 481 OFFCURVE",
"299 481 CURVE SMOOTH",
"349 481 OFFCURVE",
"393 525 OFFCURVE",
"393 576 CURVE SMOOTH",
"393 626 OFFCURVE",
"349 670 OFFCURVE",
"299 670 CURVE SMOOTH",
"248 670 OFFCURVE",
"204 626 OFFCURVE",
"204 576 CURVE SMOOTH"
);
},
{
closed = 1;
nodes = (
"270 574 LINE SMOOTH",
"270 592 OFFCURVE",
"282 604 OFFCURVE",
"299 604 CURVE SMOOTH",
"316 604 OFFCURVE",
"328 592 OFFCURVE",
"328 574 CURVE SMOOTH",
"328 558 OFFCURVE",
"316 546 OFFCURVE",
"299 546 CURVE SMOOTH",
"282 546 OFFCURVE",
"270 558 OFFCURVE",
"270 574 CURVE SMOOTH"
);
}
);
width = 596;
}
);
unicode = 016F;
},
{
glyphname = v;
lastChange = "2016-08-26 20:32:07 +0000";
layers = (
{
hints = (
{
horizontal = 1;
place = "{-23, 21}";
target = up;
type = BottomGhost;
},
{
horizontal = 1;
place = "{375, -20}";
target = down;
type = TopGhost;
}
);
layerId = UUID0;
paths = (
{
closed = 1;
nodes = (
"30 375 LINE",
"96 242 OFFCURVE",
"142 110 OFFCURVE",
"208 -23 CURVE",
"208 -23 LINE",
"274 110 OFFCURVE",
"320 242 OFFCURVE",
"386 375 CURVE",
"371 375 LINE",
"310 253 OFFCURVE",
"269 130 OFFCURVE",
"208 8 CURVE",
"147 130 OFFCURVE",
"106 254 OFFCURVE",
"45 375 CURVE"
);
}
);
width = 416;
},
{
hints = (
{
horizontal = 1;
place = "{-23, 21}";
target = up;
type = BottomGhost;
},
{
horizontal = 1;
place = "{375, -20}";
target = down;
type = TopGhost;
}
);
layerId = UUID1;
paths = (
{
closed = 1;
nodes = (
"10 437 LINE",
"89 282 OFFCURVE",
"163 129 OFFCURVE",
"247 -26 CURVE",
"247 -26 LINE",
"327 129 OFFCURVE",
"405 282 OFFCURVE",
"484 437 CURVE",
"358 437 LINE",
"247 220 OFFCURVE",
"250 219 OFFCURVE",
"247 190 CURVE",
"245 219 OFFCURVE",
"247 220 OFFCURVE",
"136 437 CURVE"
);
}
);
width = 494;
}
);
unicode = 0076;
},
{
glyphname = w;
lastChange = "2016-08-26 20:32:07 +0000";
layers = (
{
hints = (
{
horizontal = 1;
place = "{375, -20}";
target = down;
type = TopGhost;
},
{
horizontal = 1;
place = "{-23, 21}";
target = up;
type = BottomGhost;
}
);
layerId = UUID0;
paths = (
{
closed = 1;
nodes = (
"262 375 LINE",
"278 339 OFFCURVE",
"295 302 OFFCURVE",
"311 266 CURVE",
"311 266 LINE",
"277 180 OFFCURVE",
"243 94 OFFCURVE",
"208 8 CURVE",
"153 129 OFFCURVE",
"99 253 OFFCURVE",
"45 375 CURVE",
"30 375 LINE",
"89 242 OFFCURVE",
"148 110 OFFCURVE",
"208 -23 CURVE",
"245 68 OFFCURVE",
"282 160 OFFCURVE",
"319 251 CURVE",
"359 160 OFFCURVE",
"400 68 OFFCURVE",
"440 -23 CURVE",
"499 110 OFFCURVE",
"558 242 OFFCURVE",
"618 375 CURVE",
"603 375 LINE",
"549 253 OFFCURVE",
"494 130 OFFCURVE",
"440 8 CURVE SMOOTH",
"387 129 OFFCURVE",
"331 253 OFFCURVE",
"277 375 CURVE"
);
}
);
width = 648;
},
{
hints = (
{
horizontal = 1;
place = "{375, -20}";
target = down;
type = TopGhost;
},
{
horizontal = 1;
place = "{-23, 21}";
target = up;
type = BottomGhost;
}
);
layerId = UUID1;
paths = (
{
closed = 1;
nodes = (
"275 437 LINE",
"281 425 OFFCURVE",
"292 400 OFFCURVE",
"298 387 CURVE",
"298 387 LINE",
"220 215 OFFCURVE",
"215 200 OFFCURVE",
"214 190 CURVE",
"214 250 OFFCURVE",
"214 253 OFFCURVE",
"136 437 CURVE",
"20 437 LINE",
"85 282 OFFCURVE",
"149 129 OFFCURVE",
"214 -26 CURVE",
"260 78 OFFCURVE",
"300 170 OFFCURVE",
"347 274 CURVE",
"400 170 OFFCURVE",
"425 78 OFFCURVE",
"477 -26 CURVE",
"538 109 OFFCURVE",
"615 282 OFFCURVE",
"684 437 CURVE",
"568 437 LINE",
"490 255 OFFCURVE",
"477 250 OFFCURVE",
"477 190 CURVE SMOOTH",
"477 200 OFFCURVE",
"461 250 OFFCURVE",
"374 437 CURVE"
);
}
);
width = 698;
}
);
unicode = 0077;
},
{
glyphname = x;
lastChange = "2016-08-26 20:32:07 +0000";
layers = (
{
hints = (
{
horizontal = 1;
place = "{0, 21}";
target = up;
type = BottomGhost;
},
{
horizontal = 1;
place = "{374, -20}";
target = down;
type = TopGhost;
},
{
horizontal = 1;
place = "{375, -20}";
target = down;
type = TopGhost;
}
);
layerId = UUID0;
paths = (
{
closed = 1;
nodes = (
"30 375 LINE",
"76 312 OFFCURVE",
"122 250 OFFCURVE",
"168 187 CURVE",
"168 187 LINE",
"123 125 OFFCURVE",
"79 62 OFFCURVE",
"34 0 CURVE",
"52 0 LINE",
"94 58 OFFCURVE",
"135 117 OFFCURVE",
"177 175 CURVE",
"220 117 OFFCURVE",
"263 58 OFFCURVE",
"306 0 CURVE",
"322 0 LINE",
"276 62 OFFCURVE",
"231 124 OFFCURVE",
"185 186 CURVE",
"230 249 OFFCURVE",
"275 311 OFFCURVE",
"320 374 CURVE",
"303 374 LINE",
"261 315 OFFCURVE",
"219 257 OFFCURVE",
"177 198 CURVE",
"134 257 OFFCURVE",
"91 316 OFFCURVE",
"48 375 CURVE"
);
}
);
width = 352;
},
{
hints = (
{
horizontal = 1;
place = "{0, 21}";
target = up;
type = BottomGhost;
},
{
horizontal = 1;
place = "{375, -20}";
target = down;
type = TopGhost;
},
{
horizontal = 1;
place = "{375, -20}";
target = down;
type = TopGhost;
}
);
layerId = UUID1;
paths = (
{
closed = 1;
nodes = (
"33 437 LINE",
"78 371 OFFCURVE",
"134 303 OFFCURVE",
"179 236 CURVE",
"179 236 LINE",
"129 158 OFFCURVE",
"70 80 OFFCURVE",
"18 0 CURVE",
"147 0 LINE",
"179 50 OFFCURVE",
"208 81 OFFCURVE",
"239 129 CURVE",
"273 82 OFFCURVE",
"306 49 OFFCURVE",
"340 0 CURVE",
"489 0 LINE",
"445 67 OFFCURVE",
"369 164 OFFCURVE",
"322 231 CURVE",
"377 317 OFFCURVE",
"414 357 OFFCURVE",
"465 437 CURVE",
"336 437 LINE",
"306 390 OFFCURVE",
"283 370 OFFCURVE",
"254 324 CURVE",
"224 370 OFFCURVE",
"204 388 OFFCURVE",
"175 437 CURVE"
);
}
);
width = 517;
}
);
unicode = 0078;
},
{
glyphname = y;
lastChange = "2016-08-26 20:32:07 +0000";
layers = (
{
hints = (
{
horizontal = 1;
place = "{-250, 21}";
target = up;
type = BottomGhost;
},
{
horizontal = 1;
place = "{375, -20}";
target = down;
type = TopGhost;
}
);
layerId = UUID0;
paths = (
{
closed = 1;
nodes = (
"145 -180 LINE",
"386 375 LINE",
"371 375 LINE",
"310 253 OFFCURVE",
"269 130 OFFCURVE",
"208 8 CURVE",
"147 130 OFFCURVE",
"106 254 OFFCURVE",
"45 375 CURVE",
"30 375 LINE",
"92 249 OFFCURVE",
"136 124 OFFCURVE",
"197 -1 CURVE",
"162 -86 OFFCURVE",
"155 -116 OFFCURVE",
"126 -180 CURVE"
);
}
);
width = 416;
},
{
hints = (
{
horizontal = 1;
place = "{-250, 21}";
target = up;
type = BottomGhost;
},
{
horizontal = 1;
place = "{375, -20}";
target = down;
type = TopGhost;
}
);
layerId = UUID1;
paths = (
{
closed = 1;
nodes = (
"202 -210 LINE",
"524 437 LINE",
"398 437 LINE",
"287 220 OFFCURVE",
"270 179 OFFCURVE",
"267 150 CURVE",
"265 179 OFFCURVE",
"247 220 OFFCURVE",
"136 437 CURVE",
"10 437 LINE",
"70 318 OFFCURVE",
"148 160 OFFCURVE",
"209 42 CURVE",
"163 -52 OFFCURVE",
"129 -127 OFFCURVE",
"87 -210 CURVE"
);
}
);
width = 540;
}
);
unicode = 0079;
},
{
glyphname = z;
lastChange = "2016-08-26 20:32:07 +0000";
layers = (
{
hints = (
{
horizontal = 1;
place = "{405, -20}";
target = down;
type = TopGhost;
},
{
horizontal = 1;
place = "{0, 21}";
target = up;
type = BottomGhost;
}
);
layerId = UUID0;
paths = (
{
closed = 1;
nodes = (
"340 361 LINE",
"80 0 LINE",
"359 0 LINE",
"359 14 LINE",
"104 14 LINE",
"364 375 LINE",
"119 375 LINE SMOOTH",
"97 375 OFFCURVE",
"86 386 OFFCURVE",
"86 398 CURVE SMOOTH",
"86 410 LINE",
"73 410 LINE",
"73 406 LINE SMOOTH",
"73 368 OFFCURVE",
"92 361 OFFCURVE",
"133 361 CURVE SMOOTH"
);
}
);
width = 414;
},
{
hints = (
{
horizontal = 1;
place = "{405, -20}";
target = down;
type = TopGhost;
},
{
horizontal = 1;
place = "{0, 21}";
target = up;
type = BottomGhost;
}
);
layerId = UUID1;
paths = (
{
closed = 1;
nodes = (
"252 338 LINE",
"20 0 LINE",
"463 0 LINE",
"463 114 LINE",
"244 114 LINE",
"466 437 LINE",
"189 437 LINE SMOOTH",
"164 437 OFFCURVE",
"155 437 OFFCURVE",
"155 465 CURVE SMOOTH",
"155 479 LINE",
"50 479 LINE",
"50 419 LINE SMOOTH",
"50 375 OFFCURVE",
"92 338 OFFCURVE",
"140 338 CURVE SMOOTH"
);
}
);
width = 522;
}
);
unicode = 007A;
},
{
glyphname = fi;
lastChange = "2016-08-26 20:32:07 +0000";
layers = (
{
hints = (
{
horizontal = 1;
place = "{0, 21}";
target = up;
type = BottomGhost;
},
{
horizontal = 1;
place = "{520, -20}";
target = down;
type = TopGhost;
},
{
horizontal = 1;
place = "{0, 21}";
target = up;
type = BottomGhost;
},
{
horizontal = 1;
place = "{750, -20}";
target = down;
type = TopGhost;
}
);
layerId = UUID0;
paths = (
{
closed = 1;
nodes = (
"95 375 LINE",
"30 375 LINE",
"30 361 LINE",
"95 361 LINE",
"95 0 LINE",
"109 0 LINE",
"109 361 LINE",
"369 361 LINE",
"369 375 LINE",
"109 375 LINE",
"109 522 LINE SMOOTH",
"109 653 OFFCURVE",
"189 736 OFFCURVE",
"280 736 CURVE",
"280 750 LINE",
"179 746 OFFCURVE",
"95 666 OFFCURVE",
"95 518 CURVE SMOOTH"
);
},
{
closed = 1;
nodes = (
"360 0 LINE",
"374 0 LINE",
"374 375 LINE",
"360 375 LINE"
);
}
);
width = 454;
},
{
hints = (
{
horizontal = 1;
place = "{0, 21}";
target = up;
type = BottomGhost;
},
{
horizontal = 1;
place = "{573, -20}";
target = down;
type = TopGhost;
},
{
horizontal = 1;
place = "{0, 21}";
target = up;
type = BottomGhost;
},
{
horizontal = 1;
place = "{751, -20}";
target = down;
type = TopGhost;
}
);
layerId = UUID1;
paths = (
{
closed = 1;
nodes = (
"97 437 LINE",
"23 437 LINE",
"23 323 LINE",
"97 323 LINE",
"97 0 LINE",
"214 0 LINE",
"214 323 LINE",
"446 323 LINE",
"446 437 LINE",
"214 437 LINE",
"214 510 LINE SMOOTH",
"214 614 OFFCURVE",
"246 670 OFFCURVE",
"354 678 CURVE",
"354 789 LINE",
"184 784 OFFCURVE",
"97 701 OFFCURVE",
"97 515 CURVE SMOOTH"
);
},
{
closed = 1;
nodes = (
"446 0 LINE",
"562 0 LINE",
"562 437 LINE",
"446 437 LINE"
);
}
);
width = 642;
}
);
unicode = FB01;
},
{
glyphname = fl;
lastChange = "2016-08-26 20:32:07 +0000";
layers = (
{
hints = (
{
horizontal = 1;
place = "{750, -20}";
target = down;
type = TopGhost;
},
{
horizontal = 1;
place = "{0, 21}";
target = up;
type = BottomGhost;
},
{
horizontal = 1;
place = "{0, 21}";
target = up;
type = BottomGhost;
},
{
horizontal = 1;
place = "{750, -20}";
target = down;
type = TopGhost;
}
);
layerId = UUID0;
paths = (
{
closed = 1;
nodes = (
"95 372 LINE",
"30 372 LINE",
"30 358 LINE",
"95 358 LINE",
"95 0 LINE",
"109 0 LINE",
"109 358 LINE",
"239 358 LINE",
"239 372 LINE",
"109 372 LINE",
"109 522 LINE SMOOTH",
"109 653 OFFCURVE",
"189 736 OFFCURVE",
"280 736 CURVE",
"280 750 LINE",
"179 746 OFFCURVE",
"95 666 OFFCURVE",
"95 518 CURVE SMOOTH"
);
},
{
closed = 1;
nodes = (
"280 736 LINE",
"367 736 LINE",
"367 750 LINE",
"280 750 LINE"
);
},
{
closed = 1;
nodes = (
"360 0 LINE",
"374 0 LINE",
"374 750 LINE",
"360 750 LINE"
);
}
);
width = 454;
},
{
hints = (
{
horizontal = 1;
place = "{750, -20}";
target = down;
type = TopGhost;
},
{
horizontal = 1;
place = "{0, 21}";
target = up;
type = BottomGhost;
},
{
horizontal = 1;
place = "{0, 21}";
target = up;
type = BottomGhost;
},
{
horizontal = 1;
place = "{751, -20}";
target = down;
type = TopGhost;
}
);
layerId = UUID1;
paths = (
{
closed = 1;
nodes = (
"97 439 LINE",
"23 439 LINE",
"23 325 LINE",
"97 325 LINE",
"97 0 LINE",
"214 0 LINE",
"214 325 LINE",
"346 325 LINE",
"346 439 LINE",
"214 439 LINE",
"214 510 LINE SMOOTH",
"214 614 OFFCURVE",
"246 670 OFFCURVE",
"354 678 CURVE",
"354 789 LINE",
"184 784 OFFCURVE",
"97 701 OFFCURVE",
"97 515 CURVE SMOOTH"
);
},
{
closed = 1;
nodes = (
"354 678 LINE",
"432 678 LINE",
"432 789 LINE",
"354 789 LINE"
);
},
{
closed = 1;
nodes = (
"427 0 LINE",
"543 0 LINE",
"543 789 LINE",
"427 789 LINE"
);
}
);
width = 606;
}
);
unicode = FB02;
},
{
glyphname = pi;
lastChange = "2016-08-26 20:32:07 +0000";
layers = (
{
hints = (
{
horizontal = 1;
place = "{0, 21}";
target = up;
type = BottomGhost;
},
{
horizontal = 1;
place = "{573, -20}";
target = down;
type = TopGhost;
},
{
horizontal = 1;
place = "{478, 21}";
target = up;
type = BottomGhost;
},
{
horizontal = 1;
place = "{531, -20}";
target = down;
type = TopGhost;
},
{
horizontal = 1;
place = "{0, 21}";
target = up;
type = BottomGhost;
},
{
horizontal = 1;
place = "{573, -20}";
target = down;
type = TopGhost;
}
);
layerId = UUID0;
paths = (
{
closed = 1;
nodes = (
"0 306 LINE",
"51 306 LINE",
"51 0 LINE",
"65 0 LINE",
"65 306 LINE",
"214 306 LINE",
"214 0 LINE",
"228 0 LINE",
"228 306 LINE",
"266 306 LINE",
"266 320 LINE",
"0 320 LINE"
);
}
);
width = 266;
},
{
hints = (
{
horizontal = 1;
place = "{0, 21}";
target = up;
type = BottomGhost;
},
{
horizontal = 1;
place = "{573, -20}";
target = down;
type = TopGhost;
},
{
horizontal = 1;
place = "{478, 21}";
target = up;
type = BottomGhost;
},
{
horizontal = 1;
place = "{531, -20}";
target = down;
type = TopGhost;
},
{
horizontal = 1;
place = "{0, 21}";
target = up;
type = BottomGhost;
},
{
horizontal = 1;
place = "{573, -20}";
target = down;
type = TopGhost;
}
);
layerId = UUID1;
paths = (
{
closed = 1;
nodes = (
"9 247 LINE",
"67 247 LINE",
"67 0 LINE",
"192 0 LINE",
"192 247 LINE",
"244 247 LINE",
"244 0 LINE",
"368 0 LINE",
"368 247 LINE",
"431 247 LINE",
"431 368 LINE",
"9 368 LINE"
);
}
);
width = 444;
}
);
unicode = 03C0;
},
{
glyphname = zero;
lastChange = "2016-08-26 20:32:07 +0000";
layers = (
{
layerId = UUID0;
paths = (
{
closed = 1;
nodes = (
"36 327 LINE",
"35 141 OFFCURVE",
"155 -6 OFFCURVE",
"301 -7 CURVE SMOOTH",
"448 -8 OFFCURVE",
"572 139 OFFCURVE",
"573 324 CURVE SMOOTH",
"574 452 OFFCURVE",
"506 657 OFFCURVE",
"308 658 CURVE SMOOTH",
"107 659 OFFCURVE",
"37 454 OFFCURVE",
"36 327 CURVE SMOOTH"
);
},
{
closed = 1;
nodes = (
"51 328 LINE",
"52 523 OFFCURVE",
"164 645 OFFCURVE",
"307 644 CURVE SMOOTH",
"450 643 OFFCURVE",
"560 519 OFFCURVE",
"559 323 CURVE SMOOTH",
"558 130 OFFCURVE",
"431 6 OFFCURVE",
"303 7 CURVE SMOOTH",
"174 8 OFFCURVE",
"50 134 OFFCURVE",
"51 328 CURVE SMOOTH"
);
}
);
width = 616;
},
{
layerId = UUID1;
paths = (
{
closed = 1;
nodes = (
"38 335 LINE",
"38 104 OFFCURVE",
"159 -8 OFFCURVE",
"310 -9 CURVE SMOOTH",
"467 -10 OFFCURVE",
"582 108 OFFCURVE",
"584 329 CURVE SMOOTH",
"587 562 OFFCURVE",
"461 670 OFFCURVE",
"312 671 CURVE SMOOTH",
"179 672 OFFCURVE",
"38 584 OFFCURVE",
"38 335 CURVE SMOOTH"
);
},
{
closed = 1;
nodes = (
"164 331 LINE",
"165 375 OFFCURVE",
"177 550 OFFCURVE",
"313 550 CURVE SMOOTH",
"442 550 OFFCURVE",
"458 389 OFFCURVE",
"458 332 CURVE SMOOTH",
"458 219 OFFCURVE",
"395 112 OFFCURVE",
"309 113 CURVE SMOOTH",
"224 114 OFFCURVE",
"162 220 OFFCURVE",
"164 331 CURVE SMOOTH"
);
}
);
width = 628;
}
);
unicode = 0030;
},
{
glyphname = one;
lastChange = "2016-08-26 20:32:07 +0000";
layers = (
{
hints = (
{
horizontal = 1;
place = "{0, 21}";
target = up;
type = BottomGhost;
},
{
horizontal = 1;
place = "{650, -20}";
target = down;
type = TopGhost;
}
);
layerId = UUID0;
paths = (
{
closed = 1;
nodes = (
"34 636 LINE",
"147 636 LINE",
"147 0 LINE",
"161 0 LINE",
"161 650 LINE",
"34 650 LINE"
);
}
);
width = 249;
},
{
hints = (
{
horizontal = 1;
place = "{0, 21}";
target = up;
type = BottomGhost;
},
{
horizontal = 1;
place = "{650, -20}";
target = down;
type = TopGhost;
}
);
layerId = UUID1;
paths = (
{
closed = 1;
nodes = (
"35 542 LINE",
"78 542 LINE",
"78 0 LINE",
"205 0 LINE",
"205 663 LINE",
"35 663 LINE"
);
}
);
width = 293;
}
);
unicode = 0031;
},
{
glyphname = two;
lastChange = "2016-08-26 20:32:07 +0000";
layers = (
{
hints = (
{
horizontal = 1;
place = "{658, -20}";
target = down;
type = TopGhost;
},
{
horizontal = 1;
place = "{0, 21}";
target = up;
type = BottomGhost;
}
);
layerId = UUID0;
paths = (
{
closed = 1;
nodes = (
"449 0 LINE",
"449 14 LINE",
"89 14 LINE",
"89 14 LINE",
"228 158 OFFCURVE",
"403 309 OFFCURVE",
"403 464 CURVE SMOOTH",
"403 576 OFFCURVE",
"332 658 OFFCURVE",
"228 658 CURVE SMOOTH",
"113 658 OFFCURVE",
"50 576 OFFCURVE",
"50 469 CURVE SMOOTH",
"50 415 OFFCURVE",
"67 379 OFFCURVE",
"95 347 CURVE",
"98 350 OFFCURVE",
"101 352 OFFCURVE",
"104 355 CURVE",
"78 383 OFFCURVE",
"64 421 OFFCURVE",
"64 469 CURVE SMOOTH",
"64 538 OFFCURVE",
"96 644 OFFCURVE",
"228 644 CURVE SMOOTH",
"294 644 OFFCURVE",
"389 602 OFFCURVE",
"389 452 CURVE SMOOTH",
"389 326 OFFCURVE",
"225 165 OFFCURVE",
"53 0 CURVE"
);
}
);
width = 495;
},
{
hints = (
{
horizontal = 1;
place = "{658, -20}";
target = down;
type = TopGhost;
},
{
horizontal = 1;
place = "{0, 21}";
target = up;
type = BottomGhost;
}
);
layerId = UUID1;
paths = (
{
closed = 1;
nodes = (
"533 0 LINE",
"533 121 LINE",
"353 121 LINE",
"353 121 LINE",
"442 230 OFFCURVE",
"500 330 OFFCURVE",
"500 451 CURVE SMOOTH",
"500 565 OFFCURVE",
"409 671 OFFCURVE",
"272 671 CURVE SMOOTH",
"123 671 OFFCURVE",
"41 565 OFFCURVE",
"41 456 CURVE SMOOTH",
"41 407 OFFCURVE",
"74 307 OFFCURVE",
"132 279 CURVE",
"157 304 OFFCURVE",
"181 330 OFFCURVE",
"206 356 CURVE",
"182 381 OFFCURVE",
"167 413 OFFCURVE",
"167 456 CURVE SMOOTH",
"167 483 OFFCURVE",
"189 550 OFFCURVE",
"272 550 CURVE SMOOTH",
"312 550 OFFCURVE",
"374 508 OFFCURVE",
"374 439 CURVE SMOOTH",
"374 310 OFFCURVE",
"218 168 OFFCURVE",
"54 0 CURVE"
);
}
);
width = 543;
}
);
unicode = 0032;
},
{
glyphname = three;
lastChange = "2016-08-26 20:32:07 +0000";
layers = (
{
hints = (
{
horizontal = 1;
place = "{-8, 21}";
target = up;
type = BottomGhost;
},
{
horizontal = 1;
place = "{650, -20}";
target = down;
type = TopGhost;
}
);
layerId = UUID0;
paths = (
{
closed = 1;
nodes = (
"103 650 LINE",
"103 636 LINE",
"390 636 LINE",
"319 544 OFFCURVE",
"249 453 OFFCURVE",
"178 361 CURVE",
"178 361 LINE",
"196 375 OFFCURVE",
"218 384 OFFCURVE",
"239 384 CURVE SMOOTH",
"344 384 OFFCURVE",
"432 300 OFFCURVE",
"432 195 CURVE SMOOTH",
"432 93 OFFCURVE",
"344 6 OFFCURVE",
"239 6 CURVE SMOOTH",
"184 6 OFFCURVE",
"135 33 OFFCURVE",
"103 71 CURVE",
"100 67 OFFCURVE",
"96 62 OFFCURVE",
"93 58 CURVE",
"130 18 OFFCURVE",
"182 -8 OFFCURVE",
"242 -8 CURVE SMOOTH",
"354 -8 OFFCURVE",
"446 83 OFFCURVE",
"446 195 CURVE SMOOTH",
"446 316 OFFCURVE",
"344 404 OFFCURVE",
"223 398 CURVE",
"289 482 OFFCURVE",
"356 566 OFFCURVE",
"422 650 CURVE"
);
}
);
width = 515;
},
{
hints = (
{
horizontal = 1;
place = "{-8, 21}";
target = up;
type = BottomGhost;
},
{
horizontal = 1;
place = "{650, -20}";
target = down;
type = TopGhost;
}
);
layerId = UUID1;
paths = (
{
closed = 1;
nodes = (
"95 663 LINE",
"95 540 LINE",
"262 540 LINE",
"230 464 OFFCURVE",
"175 388 OFFCURVE",
"143 312 CURVE",
"143 312 LINE",
"163 322 OFFCURVE",
"184 326 OFFCURVE",
"211 326 CURVE SMOOTH",
"269 326 OFFCURVE",
"317 279 OFFCURVE",
"317 221 CURVE SMOOTH",
"317 162 OFFCURVE",
"269 113 OFFCURVE",
"211 113 CURVE SMOOTH",
"179 113 OFFCURVE",
"152 126 OFFCURVE",
"132 151 CURVE",
"102 123 OFFCURVE",
"70 95 OFFCURVE",
"40 67 CURVE",
"83 22 OFFCURVE",
"144 -8 OFFCURVE",
"210 -8 CURVE SMOOTH",
"335 -8 OFFCURVE",
"442 96 OFFCURVE",
"442 221 CURVE SMOOTH",
"442 305 OFFCURVE",
"402 375 OFFCURVE",
"333 428 CURVE",
"371 506 OFFCURVE",
"417 585 OFFCURVE",
"456 663 CURVE"
);
}
);
width = 525;
}
);
unicode = 0033;
},
{
glyphname = four;
lastChange = "2016-08-26 20:32:07 +0000";
layers = (
{
hints = (
{
horizontal = 1;
place = "{0, 21}";
target = up;
type = BottomGhost;
},
{
horizontal = 1;
place = "{658, -20}";
target = down;
type = TopGhost;
}
);
layerId = UUID0;
paths = (
{
closed = 1;
nodes = (
"389 183 LINE",
"389 0 LINE",
"403 0 LINE",
"403 183 LINE",
"500 183 LINE",
"500 197 LINE",
"403 197 LINE",
"403 658 LINE",
"281 500 OFFCURVE",
"159 341 OFFCURVE",
"37 183 CURVE"
);
},
{
closed = 1;
nodes = (
"389 197 LINE",
"67 197 LINE",
"174 337 OFFCURVE",
"282 477 OFFCURVE",
"389 617 CURVE"
);
}
);
width = 505;
},
{
hints = (
{
horizontal = 1;
place = "{0, 21}";
target = up;
type = BottomGhost;
},
{
horizontal = 1;
place = "{658, -20}";
target = down;
type = TopGhost;
}
);
layerId = UUID1;
paths = (
{
closed = 1;
nodes = (
"285 164 LINE",
"285 0 LINE",
"411 0 LINE",
"411 164 LINE",
"510 164 LINE",
"510 285 LINE",
"411 285 LINE",
"411 671 LINE",
"287 510 OFFCURVE",
"131 325 OFFCURVE",
"7 164 CURVE"
);
},
{
closed = 1;
nodes = (
"285 285 LINE",
"248 285 LINE",
"247 284 OFFCURVE",
"286 334 OFFCURVE",
"285 333 CURVE"
);
}
);
width = 522;
}
);
unicode = 0034;
},
{
glyphname = five;
lastChange = "2016-08-26 20:32:07 +0000";
layers = (
{
hints = (
{
horizontal = 1;
place = "{-8, 21}";
target = up;
type = BottomGhost;
},
{
horizontal = 1;
place = "{650, -20}";
target = down;
type = TopGhost;
}
);
layerId = UUID0;
paths = (
{
closed = 1;
nodes = (
"157 636 LINE",
"430 636 LINE",
"430 650 LINE",
"143 650 LINE",
"143 341 LINE",
"143 341 LINE",
"166 363 OFFCURVE",
"207 381 OFFCURVE",
"253 381 CURVE SMOOTH",
"359 381 OFFCURVE",
"446 298 OFFCURVE",
"446 195 CURVE SMOOTH",
"446 93 OFFCURVE",
"359 6 OFFCURVE",
"253 6 CURVE SMOOTH",
"203 6 OFFCURVE",
"158 25 OFFCURVE",
"126 58 CURVE",
"122 55 OFFCURVE",
"119 51 OFFCURVE",
"115 48 CURVE",
"152 13 OFFCURVE",
"201 -8 OFFCURVE",
"255 -8 CURVE SMOOTH",
"367 -8 OFFCURVE",
"460 83 OFFCURVE",
"460 195 CURVE SMOOTH",
"460 307 OFFCURVE",
"367 395 OFFCURVE",
"255 395 CURVE SMOOTH",
"220 395 OFFCURVE",
"187 386 OFFCURVE",
"157 372 CURVE"
);
}
);
width = 543;
},
{
hints = (
{
horizontal = 1;
place = "{-8, 21}";
target = up;
type = BottomGhost;
},
{
horizontal = 1;
place = "{650, -20}";
target = down;
type = TopGhost;
}
);
layerId = UUID1;
paths = (
{
closed = 1;
nodes = (
"253 542 LINE",
"439 542 LINE",
"439 663 LINE",
"146 663 LINE",
"146 289 LINE",
"146 289 LINE",
"183 328 OFFCURVE",
"226 328 OFFCURVE",
"258 328 CURVE SMOOTH",
"315 328 OFFCURVE",
"364 280 OFFCURVE",
"364 221 CURVE SMOOTH",
"364 162 OFFCURVE",
"315 113 OFFCURVE",
"259 113 CURVE SMOOTH",
"231 113 OFFCURVE",
"207 125 OFFCURVE",
"189 141 CURVE",
"160 112 OFFCURVE",
"128 86 OFFCURVE",
"98 57 CURVE",
"139 16 OFFCURVE",
"195 -8 OFFCURVE",
"256 -8 CURVE SMOOTH",
"382 -8 OFFCURVE",
"488 93 OFFCURVE",
"488 226 CURVE SMOOTH",
"488 346 OFFCURVE",
"401 449 OFFCURVE",
"257 449 CURVE SMOOTH",
"251 449 OFFCURVE",
"255 449 OFFCURVE",
"253 449 CURVE"
);
}
);
width = 553;
}
);
unicode = 0035;
},
{
glyphname = six;
lastChange = "2016-08-26 20:32:07 +0000";
layers = (
{
hints = (
{
horizontal = 1;
place = "{-8, 21}";
target = up;
type = BottomGhost;
},
{
horizontal = 1;
place = "{633, -20}";
target = down;
type = TopGhost;
}
);
layerId = UUID0;
paths = (
{
closed = 1;
nodes = (
"50 193 LINE SMOOTH",
"50 82 OFFCURVE",
"141 -8 OFFCURVE",
"254 -8 CURVE SMOOTH",
"367 -8 OFFCURVE",
"458 82 OFFCURVE",
"458 193 CURVE SMOOTH",
"458 304 OFFCURVE",
"367 395 OFFCURVE",
"254 395 CURVE SMOOTH",
"187 395 OFFCURVE",
"128 363 OFFCURVE",
"91 314 CURVE",
"122 388 OFFCURVE",
"214 502 OFFCURVE",
"392 620 CURVE",
"389 624 OFFCURVE",
"385 629 OFFCURVE",
"382 633 CURVE",
"233 524 OFFCURVE",
"50 387 OFFCURVE",
"50 193 CURVE SMOOTH"
);
},
{
closed = 1;
nodes = (
"63 193 LINE SMOOTH",
"63 297 OFFCURVE",
"148 381 OFFCURVE",
"253 381 CURVE SMOOTH",
"358 381 OFFCURVE",
"444 297 OFFCURVE",
"444 193 CURVE SMOOTH",
"444 89 OFFCURVE",
"358 6 OFFCURVE",
"253 6 CURVE SMOOTH",
"148 6 OFFCURVE",
"63 89 OFFCURVE",
"63 193 CURVE SMOOTH"
);
}
);
width = 520;
},
{
hints = (
{
horizontal = 1;
place = "{-8, 21}";
target = up;
type = BottomGhost;
},
{
horizontal = 1;
place = "{637, -20}";
target = down;
type = TopGhost;
}
);
layerId = UUID1;
paths = (
{
closed = 1;
nodes = (
"48 222 LINE SMOOTH",
"48 52 OFFCURVE",
"184 -8 OFFCURVE",
"278 -8 CURVE SMOOTH",
"402 -8 OFFCURVE",
"509 96 OFFCURVE",
"509 223 CURVE SMOOTH",
"509 350 OFFCURVE",
"402 449 OFFCURVE",
"277 449 CURVE SMOOTH",
"276 449 OFFCURVE",
"275 449 OFFCURVE",
"273 449 CURVE",
"300 471 OFFCURVE",
"418 534 OFFCURVE",
"452 557 CURVE",
"427 588 OFFCURVE",
"401 621 OFFCURVE",
"375 652 CURVE",
"280 583 OFFCURVE",
"48 444 OFFCURVE",
"48 222 CURVE SMOOTH"
);
},
{
closed = 1;
nodes = (
"178 222 LINE SMOOTH",
"178 281 OFFCURVE",
"222 328 OFFCURVE",
"278 328 CURVE SMOOTH",
"334 328 OFFCURVE",
"384 281 OFFCURVE",
"384 222 CURVE SMOOTH",
"384 164 OFFCURVE",
"335 113 OFFCURVE",
"278 113 CURVE SMOOTH",
"221 113 OFFCURVE",
"178 164 OFFCURVE",
"178 222 CURVE SMOOTH"
);
}
);
width = 531;
}
);
unicode = 0036;
},
{
glyphname = seven;
lastChange = "2016-08-26 20:32:07 +0000";
layers = (
{
hints = (
{
horizontal = 1;
place = "{0, 21}";
target = up;
type = BottomGhost;
},
{
horizontal = 1;
place = "{650, -20}";
target = down;
type = TopGhost;
}
);
layerId = UUID0;
paths = (
{
closed = 1;
nodes = (
"14 650 LINE",
"14 636 LINE",
"392 636 LINE",
"296 424 OFFCURVE",
"201 212 OFFCURVE",
"105 0 CURVE",
"123 0 LINE",
"220 217 OFFCURVE",
"318 433 OFFCURVE",
"415 650 CURVE"
);
}
);
width = 469;
},
{
hints = (
{
horizontal = 1;
place = "{0, 21}";
target = up;
type = BottomGhost;
},
{
horizontal = 1;
place = "{650, -20}";
target = down;
type = TopGhost;
}
);
layerId = UUID1;
paths = (
{
closed = 1;
nodes = (
"14 663 LINE",
"14 540 LINE",
"248 540 LINE",
"181 357 OFFCURVE",
"109 158 OFFCURVE",
"53 0 CURVE",
"195 0 LINE",
"276 221 OFFCURVE",
"353 427 OFFCURVE",
"442 663 CURVE"
);
}
);
width = 478;
}
);
unicode = 0037;
},
{
glyphname = eight;
lastChange = "2016-08-26 20:32:07 +0000";
layers = (
{
hints = (
{
place = "{53, 69}";
},
{
place = "{382, 78}";
},
{
horizontal = 1;
place = "{-8, 21}";
target = up;
type = BottomGhost;
},
{
horizontal = 1;
place = "{658, -20}";
target = down;
type = TopGhost;
}
);
layerId = UUID0;
paths = (
{
closed = 1;
nodes = (
"53 195 LINE SMOOTH",
"53 83 OFFCURVE",
"144 -8 OFFCURVE",
"255 -8 CURVE SMOOTH",
"367 -8 OFFCURVE",
"460 83 OFFCURVE",
"460 195 CURVE SMOOTH",
"460 290 OFFCURVE",
"393 368 OFFCURVE",
"304 389 CURVE",
"358 408 OFFCURVE",
"396 456 OFFCURVE",
"396 514 CURVE SMOOTH",
"396 593 OFFCURVE",
"332 658 OFFCURVE",
"252 658 CURVE SMOOTH",
"173 658 OFFCURVE",
"108 595 OFFCURVE",
"108 518 CURVE SMOOTH",
"108 457 OFFCURVE",
"148 407 OFFCURVE",
"204 389 CURVE",
"117 367 OFFCURVE",
"53 289 OFFCURVE",
"53 195 CURVE SMOOTH"
);
},
{
closed = 1;
nodes = (
"67 195 LINE SMOOTH",
"67 298 OFFCURVE",
"149 381 OFFCURVE",
"253 381 CURVE SMOOTH",
"359 381 OFFCURVE",
"446 298 OFFCURVE",
"446 195 CURVE SMOOTH",
"446 93 OFFCURVE",
"359 5 OFFCURVE",
"253 5 CURVE SMOOTH",
"149 5 OFFCURVE",
"67 93 OFFCURVE",
"67 195 CURVE SMOOTH"
);
},
{
closed = 1;
nodes = (
"122 511 LINE SMOOTH",
"122 582 OFFCURVE",
"180 644 OFFCURVE",
"254 644 CURVE SMOOTH",
"327 644 OFFCURVE",
"382 582 OFFCURVE",
"382 511 CURVE SMOOTH",
"382 445 OFFCURVE",
"327 396 OFFCURVE",
"254 396 CURVE SMOOTH",
"180 396 OFFCURVE",
"122 445 OFFCURVE",
"122 511 CURVE SMOOTH"
);
}
);
width = 510;
},
{
hints = (
{
place = "{36, 144}";
},
{
place = "{330, 142}";
},
{
horizontal = 1;
place = "{-8, 21}";
target = up;
type = BottomGhost;
},
{
horizontal = 1;
place = "{658, -20}";
target = down;
type = TopGhost;
}
);
layerId = UUID1;
paths = (
{
closed = 1;
nodes = (
"27 215 LINE SMOOTH",
"27 99 OFFCURVE",
"111 -8 OFFCURVE",
"257 -8 CURVE SMOOTH",
"402 -8 OFFCURVE",
"489 99 OFFCURVE",
"489 215 CURVE SMOOTH",
"489 313 OFFCURVE",
"441 369 OFFCURVE",
"394 400 CURVE",
"426 432 OFFCURVE",
"431 467 OFFCURVE",
"431 493 CURVE SMOOTH",
"431 597 OFFCURVE",
"353 671 OFFCURVE",
"259 671 CURVE SMOOTH",
"165 671 OFFCURVE",
"90 597 OFFCURVE",
"90 489 CURVE SMOOTH",
"90 467 OFFCURVE",
"93 431 OFFCURVE",
"123 400 CURVE",
"76 372 OFFCURVE",
"27 315 OFFCURVE",
"27 215 CURVE SMOOTH"
);
},
{
closed = 1;
nodes = (
"156 221 LINE SMOOTH",
"156 283 OFFCURVE",
"208 330 OFFCURVE",
"264 328 CURVE SMOOTH",
"320 326 OFFCURVE",
"364 278 OFFCURVE",
"364 221 CURVE SMOOTH",
"364 162 OFFCURVE",
"315 114 OFFCURVE",
"258 114 CURVE SMOOTH",
"202 114 OFFCURVE",
"156 162 OFFCURVE",
"156 221 CURVE SMOOTH"
);
},
{
closed = 1;
nodes = (
"211 499 LINE SMOOTH",
"211 526 OFFCURVE",
"237 550 OFFCURVE",
"262 550 CURVE SMOOTH",
"287 550 OFFCURVE",
"312 526 OFFCURVE",
"312 499 CURVE SMOOTH",
"312 472 OFFCURVE",
"286 449 OFFCURVE",
"262 449 CURVE SMOOTH",
"238 449 OFFCURVE",
"211 472 OFFCURVE",
"211 499 CURVE SMOOTH"
);
}
);
width = 521;
}
);
unicode = 0038;
},
{
glyphname = nine;
lastChange = "2016-08-26 20:32:07 +0000";
layers = (
{
hints = (
{
horizontal = 1;
place = "{633, -20}";
target = down;
type = TopGhost;
},
{
horizontal = 1;
place = "{-8, 21}";
target = up;
type = BottomGhost;
}
);
layerId = UUID0;
paths = (
{
closed = 1;
nodes = (
"458 432 LINE",
"458 543 OFFCURVE",
"367 633 OFFCURVE",
"254 633 CURVE SMOOTH",
"141 633 OFFCURVE",
"50 543 OFFCURVE",
"50 432 CURVE SMOOTH",
"50 321 OFFCURVE",
"141 230 OFFCURVE",
"254 230 CURVE SMOOTH",
"321 230 OFFCURVE",
"380 262 OFFCURVE",
"417 311 CURVE",
"386 237 OFFCURVE",
"294 123 OFFCURVE",
"116 5 CURVE",
"119 1 OFFCURVE",
"123 -4 OFFCURVE",
"126 -8 CURVE",
"275 101 OFFCURVE",
"458 238 OFFCURVE",
"458 432 CURVE"
);
},
{
closed = 1;
nodes = (
"445 432 LINE",
"445 328 OFFCURVE",
"360 244 OFFCURVE",
"255 244 CURVE SMOOTH",
"150 244 OFFCURVE",
"64 328 OFFCURVE",
"64 432 CURVE SMOOTH",
"64 536 OFFCURVE",
"150 619 OFFCURVE",
"255 619 CURVE SMOOTH",
"360 619 OFFCURVE",
"445 536 OFFCURVE",
"445 432 CURVE"
);
}
);
width = 525;
},
{
hints = (
{
horizontal = 1;
place = "{636, -20}";
target = down;
type = TopGhost;
},
{
horizontal = 1;
place = "{-9, 21}";
target = up;
type = BottomGhost;
}
);
layerId = UUID1;
paths = (
{
closed = 1;
nodes = (
"509 422 LINE",
"509 592 OFFCURVE",
"373 652 OFFCURVE",
"279 652 CURVE SMOOTH",
"155 652 OFFCURVE",
"48 548 OFFCURVE",
"48 421 CURVE SMOOTH",
"48 294 OFFCURVE",
"155 195 OFFCURVE",
"280 195 CURVE SMOOTH",
"281 195 OFFCURVE",
"282 195 OFFCURVE",
"284 195 CURVE",
"257 173 OFFCURVE",
"139 110 OFFCURVE",
"105 87 CURVE",
"130 56 OFFCURVE",
"156 23 OFFCURVE",
"182 -8 CURVE",
"277 61 OFFCURVE",
"509 200 OFFCURVE",
"509 422 CURVE"
);
},
{
closed = 1;
nodes = (
"379 422 LINE",
"379 363 OFFCURVE",
"335 316 OFFCURVE",
"279 316 CURVE SMOOTH",
"223 316 OFFCURVE",
"173 363 OFFCURVE",
"173 422 CURVE SMOOTH",
"173 480 OFFCURVE",
"222 531 OFFCURVE",
"279 531 CURVE SMOOTH",
"336 531 OFFCURVE",
"379 480 OFFCURVE",
"379 422 CURVE"
);
}
);
width = 536;
}
);
unicode = 0039;
},
{
glyphname = fraction;
lastChange = "2016-08-26 20:32:07 +0000";
layers = (
{
hints = (
{
horizontal = 1;
place = "{306, 21}";
target = up;
type = BottomGhost;
},
{
horizontal = 1;
place = "{1061, -20}";
target = down;
type = TopGhost;
}
);
layerId = UUID0;
paths = (
{
closed = 1;
nodes = (
"282 755 LINE",
"189 503 OFFCURVE",
"97 252 OFFCURVE",
"4 0 CURVE",
"18 0 LINE",
"111 252 OFFCURVE",
"203 503 OFFCURVE",
"296 755 CURVE"
);
}
);
width = 300;
},
{
hints = (
{
horizontal = 1;
place = "{181, 21}";
target = up;
type = BottomGhost;
},
{
horizontal = 1;
place = "{936, -20}";
target = down;
type = TopGhost;
}
);
layerId = UUID1;
paths = (
{
closed = 1;
nodes = (
"229 770 LINE",
"134 513 OFFCURVE",
"40 257 OFFCURVE",
"-55 0 CURVE",
"71 0 LINE",
"166 257 OFFCURVE",
"260 513 OFFCURVE",
"355 770 CURVE"
);
}
);
width = 300;
}
);
unicode = 2044;
},
{
glyphname = asterisk;
lastChange = "2016-08-26 20:32:07 +0000";
layers = (
{
hints = (
{
horizontal = 1;
place = "{720, -20}";
target = down;
type = TopGhost;
},
{
horizontal = 1;
place = "{434, 21}";
target = up;
type = BottomGhost;
}
);
layerId = UUID0;
paths = (
{
closed = 1;
nodes = (
"158 434 LINE",
"172 434 LINE",
"173 477 OFFCURVE",
"173 519 OFFCURVE",
"174 562 CURVE",
"211 540 OFFCURVE",
"248 518 OFFCURVE",
"285 496 CURVE",
"288 501 OFFCURVE",
"291 506 OFFCURVE",
"294 511 CURVE",
"257 532 OFFCURVE",
"219 554 OFFCURVE",
"182 575 CURVE",
"182 575 LINE",
"220 597 OFFCURVE",
"257 619 OFFCURVE",
"295 641 CURVE",
"293 645 OFFCURVE",
"290 649 OFFCURVE",
"288 653 CURVE",
"250 632 OFFCURVE",
"212 610 OFFCURVE",
"174 589 CURVE",
"175 633 OFFCURVE",
"175 676 OFFCURVE",
"176 720 CURVE",
"158 720 LINE",
"158 589 LINE",
"121 611 OFFCURVE",
"83 632 OFFCURVE",
"46 654 CURVE",
"44 650 OFFCURVE",
"41 646 OFFCURVE",
"39 642 CURVE",
"76 620 OFFCURVE",
"113 598 OFFCURVE",
"150 576 CURVE",
"113 555 OFFCURVE",
"76 534 OFFCURVE",
"39 513 CURVE",
"42 508 OFFCURVE",
"45 503 OFFCURVE",
"48 498 CURVE",
"85 519 OFFCURVE",
"121 540 OFFCURVE",
"158 561 CURVE"
);
}
);
width = 335;
},
{
hints = (
{
horizontal = 1;
place = "{720, -20}";
target = down;
type = TopGhost;
},
{
horizontal = 1;
place = "{434, 21}";
target = up;
type = BottomGhost;
}
);
layerId = UUID1;
paths = (
{
closed = 1;
nodes = (
"128 434 LINE",
"208 434 LINE",
"208 457 OFFCURVE",
"209 480 OFFCURVE",
"209 503 CURVE",
"230 491 OFFCURVE",
"250 478 OFFCURVE",
"271 466 CURVE",
"285 490 OFFCURVE",
"299 515 OFFCURVE",
"313 539 CURVE",
"292 551 OFFCURVE",
"271 563 OFFCURVE",
"250 575 CURVE",
"250 575 LINE",
"272 587 OFFCURVE",
"293 600 OFFCURVE",
"315 612 CURVE",
"302 635 OFFCURVE",
"288 658 OFFCURVE",
"275 681 CURVE",
"254 669 OFFCURVE",
"232 657 OFFCURVE",
"211 645 CURVE",
"211 670 OFFCURVE",
"212 695 OFFCURVE",
"212 720 CURVE",
"128 720 LINE",
"128 645 LINE",
"107 657 OFFCURVE",
"86 670 OFFCURVE",
"65 682 CURVE",
"52 659 OFFCURVE",
"39 636 OFFCURVE",
"26 613 CURVE",
"46 601 OFFCURVE",
"67 588 OFFCURVE",
"87 576 CURVE",
"66 565 OFFCURVE",
"46 553 OFFCURVE",
"25 542 CURVE",
"39 518 OFFCURVE",
"53 493 OFFCURVE",
"67 469 CURVE",
"87 481 OFFCURVE",
"108 492 OFFCURVE",
"128 504 CURVE"
);
}
);
width = 335;
}
);
unicode = 002A;
},
{
glyphname = backslash;
lastChange = "2016-08-26 20:32:07 +0000";
layers = (
{
hints = (
{
horizontal = 1;
place = "{736, -20}";
target = down;
type = TopGhost;
},
{
horizontal = 1;
place = "{-19, 21}";
target = up;
type = BottomGhost;
}
);
layerId = UUID0;
paths = (
{
closed = 1;
nodes = (
"17 736 LINE",
"110 484 OFFCURVE",
"202 233 OFFCURVE",
"295 -19 CURVE",
"309 -19 LINE",
"216 233 OFFCURVE",
"124 484 OFFCURVE",
"31 736 CURVE"
);
}
);
width = 320;
},
{
hints = (
{
horizontal = 1;
place = "{736, -20}";
target = down;
type = TopGhost;
},
{
horizontal = 1;
place = "{-19, 21}";
target = up;
type = BottomGhost;
}
);
layerId = UUID1;
paths = (
{
closed = 1;
nodes = (
"-10 751 LINE",
"85 494 OFFCURVE",
"179 238 OFFCURVE",
"274 -19 CURVE",
"416 -19 LINE",
"321 238 OFFCURVE",
"227 494 OFFCURVE",
"132 751 CURVE"
);
}
);
width = 430;
}
);
unicode = 005C;
},
{
glyphname = bullet;
lastChange = "2016-08-26 20:32:07 +0000";
layers = (
{
hints = (
{
place = "{174, 131}";
},
{
horizontal = 1;
place = "{235, 131}";
}
);
layerId = UUID0;
paths = (
{
closed = 1;
nodes = (
"174 300 LINE SMOOTH",
"174 264 OFFCURVE",
"203 235 OFFCURVE",
"239 235 CURVE SMOOTH",
"276 235 OFFCURVE",
"305 264 OFFCURVE",
"305 300 CURVE SMOOTH",
"305 337 OFFCURVE",
"276 366 OFFCURVE",
"239 366 CURVE SMOOTH",
"203 366 OFFCURVE",
"174 337 OFFCURVE",
"174 300 CURVE SMOOTH"
);
}
);
width = 479;
},
{
hints = (
{
place = "{113, 254}";
},
{
horizontal = 1;
place = "{174, 254}";
}
);
layerId = UUID1;
paths = (
{
closed = 1;
nodes = (
"80 306 LINE SMOOTH",
"80 213 OFFCURVE",
"153 142 OFFCURVE",
"244 142 CURVE SMOOTH",
"336 142 OFFCURVE",
"410 213 OFFCURVE",
"410 306 CURVE SMOOTH",
"410 398 OFFCURVE",
"336 473 OFFCURVE",
"244 473 CURVE SMOOTH",
"153 473 OFFCURVE",
"80 398 OFFCURVE",
"80 306 CURVE SMOOTH"
);
}
);
width = 488;
}
);
unicode = 2022;
},
{
glyphname = colon;
lastChange = "2016-08-26 20:32:07 +0000";
layers = (
{
hints = (
{
place = "{65, 40}";
},
{
horizontal = 1;
place = "{0, 21}";
target = up;
type = BottomGhost;
},
{
horizontal = 1;
place = "{290, -20}";
target = down;
type = TopGhost;
}
);
layerId = UUID0;
paths = (
{
closed = 1;
nodes = (
"65 270 LINE SMOOTH",
"65 259 OFFCURVE",
"74 250 OFFCURVE",
"85 250 CURVE SMOOTH",
"96 250 OFFCURVE",
"105 259 OFFCURVE",
"105 270 CURVE SMOOTH",
"105 281 OFFCURVE",
"96 290 OFFCURVE",
"85 290 CURVE SMOOTH",
"74 290 OFFCURVE",
"65 281 OFFCURVE",
"65 270 CURVE SMOOTH"
);
},
{
closed = 1;
nodes = (
"65 20 LINE SMOOTH",
"65 9 OFFCURVE",
"74 0 OFFCURVE",
"85 0 CURVE SMOOTH",
"96 0 OFFCURVE",
"105 9 OFFCURVE",
"105 20 CURVE SMOOTH",
"105 31 OFFCURVE",
"96 40 OFFCURVE",
"85 40 CURVE SMOOTH",
"74 40 OFFCURVE",
"65 31 OFFCURVE",
"65 20 CURVE SMOOTH"
);
}
);
width = 175;
},
{
hints = (
{
place = "{33, 103}";
},
{
horizontal = 1;
place = "{0, 21}";
target = up;
type = BottomGhost;
},
{
horizontal = 1;
place = "{355, -20}";
target = down;
type = TopGhost;
}
);
layerId = UUID1;
paths = (
{
closed = 1;
nodes = (
"15 357 LINE SMOOTH",
"15 313 OFFCURVE",
"51 285 OFFCURVE",
"87 285 CURVE SMOOTH",
"120 285 OFFCURVE",
"157 313 OFFCURVE",
"157 357 CURVE SMOOTH",
"157 398 OFFCURVE",
"120 430 OFFCURVE",
"87 430 CURVE SMOOTH",
"51 430 OFFCURVE",
"15 398 OFFCURVE",
"15 357 CURVE SMOOTH"
);
},
{
closed = 1;
nodes = (
"15 72 LINE SMOOTH",
"15 28 OFFCURVE",
"51 0 OFFCURVE",
"87 0 CURVE SMOOTH",
"120 0 OFFCURVE",
"157 28 OFFCURVE",
"157 72 CURVE SMOOTH",
"157 113 OFFCURVE",
"120 145 OFFCURVE",
"87 145 CURVE SMOOTH",
"51 145 OFFCURVE",
"15 113 OFFCURVE",
"15 72 CURVE SMOOTH"
);
}
);
width = 179;
}
);
unicode = 003A;
},
{
glyphname = comma;
lastChange = "2016-08-26 20:32:07 +0000";
layers = (
{
hints = (
{
horizontal = 1;
place = "{86, -20}";
target = down;
type = TopGhost;
},
{
horizontal = 1;
place = "{-120, 21}";
target = up;
type = BottomGhost;
}
);
layerId = UUID0;
paths = (
{
closed = 1;
nodes = (
"104 86 LINE",
"78 17 OFFCURVE",
"53 -51 OFFCURVE",
"27 -120 CURVE",
"41 -120 LINE",
"70 -51 OFFCURVE",
"98 17 OFFCURVE",
"127 86 CURVE"
);
}
);
width = 200;
},
{
hints = (
{
horizontal = 1;
place = "{86, -20}";
target = down;
type = TopGhost;
},
{
horizontal = 1;
place = "{-120, 21}";
target = up;
type = BottomGhost;
}
);
layerId = UUID1;
paths = (
{
closed = 1;
nodes = (
"67 88 LINE",
"40 17 OFFCURVE",
"15 -52 OFFCURVE",
"-12 -122 CURVE",
"100 -122 LINE",
"129 -52 OFFCURVE",
"158 17 OFFCURVE",
"188 88 CURVE"
);
}
);
width = 205;
}
);
unicode = 002C;
},
{
glyphname = ellipsis;
lastChange = "2016-08-26 20:32:07 +0000";
layers = (
{
hints = (
{
horizontal = 1;
place = "{0, 21}";
target = up;
type = BottomGhost;
},
{
horizontal = 1;
place = "{40, -20}";
target = down;
type = TopGhost;
},
{
horizontal = 1;
place = "{0, 21}";
target = up;
type = BottomGhost;
},
{
horizontal = 1;
place = "{40, -20}";
target = down;
type = TopGhost;
},
{
horizontal = 1;
place = "{0, 21}";
target = up;
type = BottomGhost;
},
{
horizontal = 1;
place = "{40, -20}";
target = down;
type = TopGhost;
}
);
layerId = UUID0;
paths = (
{
closed = 1;
nodes = (
"66 20 LINE SMOOTH",
"66 9 OFFCURVE",
"75 0 OFFCURVE",
"86 0 CURVE SMOOTH",
"97 0 OFFCURVE",
"106 9 OFFCURVE",
"106 20 CURVE SMOOTH",
"106 31 OFFCURVE",
"97 40 OFFCURVE",
"86 40 CURVE SMOOTH",
"75 40 OFFCURVE",
"66 31 OFFCURVE",
"66 20 CURVE SMOOTH"
);
},
{
closed = 1;
nodes = (
"229 20 LINE SMOOTH",
"229 9 OFFCURVE",
"238 0 OFFCURVE",
"249 0 CURVE SMOOTH",
"260 0 OFFCURVE",
"269 9 OFFCURVE",
"269 20 CURVE SMOOTH",
"269 31 OFFCURVE",
"260 40 OFFCURVE",
"249 40 CURVE SMOOTH",
"238 40 OFFCURVE",
"229 31 OFFCURVE",
"229 20 CURVE SMOOTH"
);
},
{
closed = 1;
nodes = (
"392 20 LINE SMOOTH",
"392 9 OFFCURVE",
"401 0 OFFCURVE",
"412 0 CURVE SMOOTH",
"423 0 OFFCURVE",
"432 9 OFFCURVE",
"432 20 CURVE SMOOTH",
"432 31 OFFCURVE",
"423 40 OFFCURVE",
"412 40 CURVE SMOOTH",
"401 40 OFFCURVE",
"392 31 OFFCURVE",
"392 20 CURVE SMOOTH"
);
}
);
width = 489;
},
{
hints = (
{
horizontal = 1;
place = "{0, 21}";
target = up;
type = BottomGhost;
},
{
horizontal = 1;
place = "{105, -20}";
target = down;
type = TopGhost;
},
{
horizontal = 1;
place = "{0, 21}";
target = up;
type = BottomGhost;
},
{
horizontal = 1;
place = "{105, -20}";
target = down;
type = TopGhost;
},
{
horizontal = 1;
place = "{0, 21}";
target = up;
type = BottomGhost;
},
{
horizontal = 1;
place = "{105, -20}";
target = down;
type = TopGhost;
}
);
layerId = UUID1;
paths = (
{
closed = 1;
nodes = (
"15 72 LINE SMOOTH",
"15 28 OFFCURVE",
"51 0 OFFCURVE",
"87 0 CURVE SMOOTH",
"120 0 OFFCURVE",
"157 28 OFFCURVE",
"157 72 CURVE SMOOTH",
"157 113 OFFCURVE",
"120 145 OFFCURVE",
"87 145 CURVE SMOOTH",
"51 145 OFFCURVE",
"15 113 OFFCURVE",
"15 72 CURVE SMOOTH"
);
},
{
closed = 1;
nodes = (
"182 72 LINE SMOOTH",
"182 28 OFFCURVE",
"218 0 OFFCURVE",
"254 0 CURVE SMOOTH",
"287 0 OFFCURVE",
"324 28 OFFCURVE",
"324 72 CURVE SMOOTH",
"324 113 OFFCURVE",
"287 145 OFFCURVE",
"254 145 CURVE SMOOTH",
"218 145 OFFCURVE",
"182 113 OFFCURVE",
"182 72 CURVE SMOOTH"
);
},
{
closed = 1;
nodes = (
"349 72 LINE SMOOTH",
"349 28 OFFCURVE",
"385 0 OFFCURVE",
"421 0 CURVE SMOOTH",
"454 0 OFFCURVE",
"491 28 OFFCURVE",
"491 72 CURVE SMOOTH",
"491 113 OFFCURVE",
"454 145 OFFCURVE",
"421 145 CURVE SMOOTH",
"385 145 OFFCURVE",
"349 113 OFFCURVE",
"349 72 CURVE SMOOTH"
);
}
);
width = 501;
}
);
unicode = 2026;
},
{
glyphname = exclam;
lastChange = "2016-08-26 20:32:07 +0000";
layers = (
{
hints = (
{
horizontal = 1;
place = "{750, -20}";
target = down;
type = TopGhost;
},
{
horizontal = 1;
place = "{36, 21}";
target = up;
type = BottomGhost;
}
);
layerId = UUID0;
paths = (
{
closed = 1;
nodes = (
"81 65 LINE",
"81 56 LINE",
"81 48 LINE",
"93 36 LINE",
"100 36 LINE",
"100 36 LINE",
"108 36 LINE",
"120 48 LINE",
"120 56 LINE",
"120 65 LINE",
"108 76 LINE",
"100 76 LINE",
"93 76 LINE"
);
},
{
closed = 1;
nodes = (
"93 166 LINE",
"107 166 LINE",
"107 750 LINE",
"93 750 LINE"
);
}
);
width = 201;
},
{
hints = (
{
horizontal = 1;
place = "{750, -20}";
target = down;
type = TopGhost;
},
{
horizontal = 1;
place = "{0, 21}";
target = up;
type = BottomGhost;
}
);
layerId = UUID1;
paths = (
{
closed = 1;
nodes = (
"30 84 LINE",
"30 52 LINE",
"30 20 LINE",
"74 -21 LINE",
"102 -21 LINE",
"102 -21 LINE",
"128 -21 LINE",
"172 20 LINE",
"172 52 LINE",
"172 84 LINE",
"128 124 LINE",
"102 124 LINE",
"74 124 LINE"
);
},
{
closed = 1;
nodes = (
"39 169 LINE",
"164 169 LINE",
"164 765 LINE",
"39 765 LINE"
);
}
);
width = 205;
}
);
unicode = 0021;
},
{
glyphname = numbersign;
lastChange = "2016-08-26 20:32:07 +0000";
layers = (
{
hints = (
{
horizontal = 1;
place = "{225, 196}";
},
{
horizontal = 1;
place = "{0, 21}";
target = up;
type = BottomGhost;
},
{
horizontal = 1;
place = "{643, -20}";
target = down;
type = TopGhost;
}
);
layerId = UUID0;
paths = (
{
closed = 1;
nodes = (
"197 643 LINE",
"188 569 OFFCURVE",
"179 495 OFFCURVE",
"170 421 CURVE",
"53 421 LINE",
"53 416 OFFCURVE",
"52 412 OFFCURVE",
"52 407 CURVE",
"168 407 LINE",
"161 351 OFFCURVE",
"155 295 OFFCURVE",
"148 239 CURVE",
"30 239 LINE",
"30 234 OFFCURVE",
"29 230 OFFCURVE",
"29 225 CURVE",
"146 225 LINE",
"137 150 OFFCURVE",
"129 75 OFFCURVE",
"120 0 CURVE",
"134 0 LINE",
"143 75 OFFCURVE",
"151 150 OFFCURVE",
"160 225 CURVE",
"330 225 LINE",
"321 150 OFFCURVE",
"313 75 OFFCURVE",
"304 0 CURVE",
"318 0 LINE",
"327 75 OFFCURVE",
"335 150 OFFCURVE",
"344 225 CURVE",
"480 225 LINE",
"480 230 OFFCURVE",
"481 234 OFFCURVE",
"481 239 CURVE",
"346 239 LINE",
"353 295 OFFCURVE",
"359 351 OFFCURVE",
"366 407 CURVE",
"503 407 LINE",
"503 412 OFFCURVE",
"504 416 OFFCURVE",
"504 421 CURVE",
"368 421 LINE",
"377 495 OFFCURVE",
"386 569 OFFCURVE",
"395 643 CURVE",
"381 643 LINE",
"372 569 OFFCURVE",
"363 495 OFFCURVE",
"354 421 CURVE",
"184 421 LINE",
"193 495 OFFCURVE",
"202 569 OFFCURVE",
"211 643 CURVE"
);
},
{
closed = 1;
nodes = (
"352 407 LINE",
"345 351 OFFCURVE",
"339 295 OFFCURVE",
"332 239 CURVE",
"162 239 LINE",
"169 295 OFFCURVE",
"175 351 OFFCURVE",
"182 407 CURVE"
);
}
);
width = 571;
},
{
hints = (
{
horizontal = 1;
place = "{188, 264}";
},
{
horizontal = 1;
place = "{0, 21}";
target = up;
type = BottomGhost;
},
{
horizontal = 1;
place = "{643, -20}";
target = down;
type = TopGhost;
}
);
layerId = UUID1;
paths = (
{
closed = 1;
nodes = (
"161 656 LINE",
"153 596 OFFCURVE",
"146 539 OFFCURVE",
"138 479 CURVE",
"59 479 LINE",
"54 439 OFFCURVE",
"51 398 OFFCURVE",
"46 358 CURVE",
"125 358 LINE",
"122 336 OFFCURVE",
"120 314 OFFCURVE",
"117 292 CURVE",
"38 292 LINE",
"34 251 OFFCURVE",
"28 211 OFFCURVE",
"23 170 CURVE",
"102 170 LINE",
"96 113 OFFCURVE",
"88 57 OFFCURVE",
"82 0 CURVE",
"209 0 LINE",
"214 57 OFFCURVE",
"223 113 OFFCURVE",
"229 170 CURVE",
"290 170 LINE",
"284 113 OFFCURVE",
"276 57 OFFCURVE",
"270 0 CURVE",
"396 0 LINE",
"402 57 OFFCURVE",
"410 113 OFFCURVE",
"416 170 CURVE",
"501 170 LINE",
"505 211 OFFCURVE",
"511 251 OFFCURVE",
"516 292 CURVE",
"431 292 LINE",
"433 314 OFFCURVE",
"436 336 OFFCURVE",
"439 358 CURVE",
"524 358 LINE",
"529 398 OFFCURVE",
"532 439 OFFCURVE",
"536 479 CURVE",
"452 479 LINE",
"460 539 OFFCURVE",
"467 596 OFFCURVE",
"475 656 CURVE",
"348 656 LINE",
"341 596 OFFCURVE",
"333 539 OFFCURVE",
"326 479 CURVE",
"264 479 LINE",
"272 539 OFFCURVE",
"279 596 OFFCURVE",
"287 656 CURVE"
);
},
{
closed = 1;
nodes = (
"312 358 LINE",
"310 336 OFFCURVE",
"307 314 OFFCURVE",
"305 292 CURVE",
"243 292 LINE",
"246 314 OFFCURVE",
"249 336 OFFCURVE",
"251 358 CURVE"
);
}
);
width = 582;
}
);
unicode = 0023;
},
{
glyphname = period;
lastChange = "2016-08-26 20:32:07 +0000";
layers = (
{
hints = (
{
horizontal = 1;
place = "{0, 21}";
target = up;
type = BottomGhost;
},
{
horizontal = 1;
place = "{40, -20}";
target = down;
type = TopGhost;
}
);
layerId = UUID0;
paths = (
{
closed = 1;
nodes = (
"66 20 LINE SMOOTH",
"66 9 OFFCURVE",
"75 0 OFFCURVE",
"86 0 CURVE SMOOTH",
"97 0 OFFCURVE",
"106 9 OFFCURVE",
"106 20 CURVE SMOOTH",
"106 31 OFFCURVE",
"97 40 OFFCURVE",
"86 40 CURVE SMOOTH",
"75 40 OFFCURVE",
"66 31 OFFCURVE",
"66 20 CURVE SMOOTH"
);
}
);
width = 163;
},
{
hints = (
{
horizontal = 1;
place = "{0, 21}";
target = up;
type = BottomGhost;
},
{
horizontal = 1;
place = "{105, -20}";
target = down;
type = TopGhost;
}
);
layerId = UUID1;
paths = (
{
closed = 1;
nodes = (
"15 72 LINE SMOOTH",
"15 28 OFFCURVE",
"51 0 OFFCURVE",
"87 0 CURVE SMOOTH",
"120 0 OFFCURVE",
"157 28 OFFCURVE",
"157 72 CURVE SMOOTH",
"157 113 OFFCURVE",
"120 145 OFFCURVE",
"87 145 CURVE SMOOTH",
"51 145 OFFCURVE",
"15 113 OFFCURVE",
"15 72 CURVE SMOOTH"
);
}
);
width = 167;
}
);
unicode = 002E;
},
{
glyphname = question;
lastChange = "2016-08-26 20:32:07 +0000";
layers = (
{
hints = (
{
horizontal = 1;
place = "{25, 21}";
target = up;
type = BottomGhost;
},
{
horizontal = 1;
place = "{732, -20}";
target = down;
type = TopGhost;
}
);
layerId = UUID0;
paths = (
{
closed = 1;
nodes = (
"208 164 LINE",
"222 164 LINE",
"222 242 LINE SMOOTH",
"222 330 OFFCURVE",
"262 332 OFFCURVE",
"314 370 CURVE SMOOTH",
"374 413 OFFCURVE",
"412 466 OFFCURVE",
"412 537 CURVE SMOOTH",
"412 644 OFFCURVE",
"326 732 OFFCURVE",
"216 732 CURVE SMOOTH",
"130 732 OFFCURVE",
"57 676 OFFCURVE",
"31 599 CURVE",
"35 598 OFFCURVE",
"40 597 OFFCURVE",
"44 596 CURVE",
"44 596 LINE",
"67 669 OFFCURVE",
"137 718 OFFCURVE",
"216 718 CURVE SMOOTH",
"318 718 OFFCURVE",
"398 641 OFFCURVE",
"398 537 CURVE SMOOTH",
"398 488 OFFCURVE",
"380 444 OFFCURVE",
"339 408 CURVE SMOOTH",
"274 351 OFFCURVE",
"208 343 OFFCURVE",
"208 261 CURVE SMOOTH"
);
},
{
closed = 1;
nodes = (
"215 25 LINE SMOOTH",
"225 25 OFFCURVE",
"235 34 OFFCURVE",
"235 45 CURVE SMOOTH",
"235 57 OFFCURVE",
"225 65 OFFCURVE",
"215 65 CURVE SMOOTH",
"206 65 OFFCURVE",
"196 57 OFFCURVE",
"196 45 CURVE SMOOTH",
"196 34 OFFCURVE",
"206 25 OFFCURVE",
"215 25 CURVE SMOOTH"
);
}
);
width = 452;
},
{
hints = (
{
horizontal = 1;
place = "{0, 21}";
target = up;
type = BottomGhost;
},
{
horizontal = 1;
place = "{732, -20}";
target = down;
type = TopGhost;
}
);
layerId = UUID1;
paths = (
{
closed = 1;
nodes = (
"141 167 LINE",
"267 167 LINE",
"267 247 LINE SMOOTH",
"267 309 OFFCURVE",
"332 346 OFFCURVE",
"361 368 CURVE SMOOTH",
"423 415 OFFCURVE",
"461 471 OFFCURVE",
"461 548 CURVE SMOOTH",
"461 657 OFFCURVE",
"373 747 OFFCURVE",
"261 747 CURVE SMOOTH",
"93 747 OFFCURVE",
"63 627 OFFCURVE",
"48 579 CURVE",
"84 565 OFFCURVE",
"121 551 OFFCURVE",
"157 538 CURVE",
"157 538 LINE",
"176 599 OFFCURVE",
"188 625 OFFCURVE",
"261 625 CURVE SMOOTH",
"307 625 OFFCURVE",
"333 591 OFFCURVE",
"333 548 CURVE SMOOTH",
"333 498 OFFCURVE",
"307 455 OFFCURVE",
"255 417 CURVE SMOOTH",
"196 373 OFFCURVE",
"141 355 OFFCURVE",
"141 266 CURVE SMOOTH"
);
},
{
closed = 1;
nodes = (
"202 -14 LINE SMOOTH",
"236 -14 OFFCURVE",
"272 14 OFFCURVE",
"272 57 CURVE SMOOTH",
"272 98 OFFCURVE",
"236 130 OFFCURVE",
"202 130 CURVE SMOOTH",
"166 130 OFFCURVE",
"130 98 OFFCURVE",
"130 57 CURVE SMOOTH",
"130 14 OFFCURVE",
"166 -14 OFFCURVE",
"202 -14 CURVE SMOOTH"
);
}
);
width = 462;
}
);
unicode = 003F;
},
{
glyphname = quotedbl;
lastChange = "2016-08-26 20:32:07 +0000";
layers = (
{
hints = (
{
place = "{63, 151}";
},
{
horizontal = 1;
place = "{472, 21}";
target = up;
type = BottomGhost;
},
{
horizontal = 1;
place = "{720, -20}";
target = down;
type = TopGhost;
}
);
layerId = UUID0;
paths = (
{
closed = 1;
nodes = (
"63 720 LINE",
"63 472 LINE",
"77 472 LINE",
"78 555 OFFCURVE",
"80 637 OFFCURVE",
"81 720 CURVE"
);
},
{
closed = 1;
nodes = (
"196 720 LINE",
"196 472 LINE",
"210 472 LINE",
"211 555 OFFCURVE",
"213 637 OFFCURVE",
"214 720 CURVE"
);
}
);
width = 293;
},
{
hints = (
{
place = "{63, 216}";
},
{
horizontal = 1;
place = "{472, 21}";
target = up;
type = BottomGhost;
},
{
horizontal = 1;
place = "{720, -20}";
target = down;
type = TopGhost;
}
);
layerId = UUID1;
paths = (
{
closed = 1;
nodes = (
"64 734 LINE",
"64 481 LINE",
"182 481 LINE",
"183 566 OFFCURVE",
"185 650 OFFCURVE",
"186 734 CURVE"
);
},
{
closed = 1;
nodes = (
"200 734 LINE",
"200 481 LINE",
"318 481 LINE",
"319 566 OFFCURVE",
"321 650 OFFCURVE",
"322 734 CURVE"
);
}
);
width = 366;
}
);
unicode = 0022;
},
{
glyphname = quotesingle;
lastChange = "2016-08-26 20:32:07 +0000";
layers = (
{
hints = (
{
horizontal = 1;
place = "{472, 21}";
target = up;
type = BottomGhost;
},
{
horizontal = 1;
place = "{720, -20}";
target = down;
type = TopGhost;
}
);
layerId = UUID0;
paths = (
{
closed = 1;
nodes = (
"67 720 LINE",
"67 472 LINE",
"81 472 LINE",
"82 555 OFFCURVE",
"84 637 OFFCURVE",
"85 720 CURVE"
);
}
);
width = 147;
},
{
hints = (
{
horizontal = 1;
place = "{472, 21}";
target = up;
type = BottomGhost;
},
{
horizontal = 1;
place = "{720, -20}";
target = down;
type = TopGhost;
}
);
layerId = UUID1;
paths = (
{
closed = 1;
nodes = (
"28 734 LINE",
"28 481 LINE",
"148 481 LINE",
"149 566 OFFCURVE",
"151 650 OFFCURVE",
"152 734 CURVE"
);
}
);
width = 175;
}
);
unicode = 0027;
},
{
glyphname = semicolon;
lastChange = "2016-08-26 20:32:07 +0000";
layers = (
{
hints = (
{
horizontal = 1;
place = "{-120, 21}";
target = up;
type = BottomGhost;
},
{
horizontal = 1;
place = "{290, -20}";
target = down;
type = TopGhost;
}
);
layerId = UUID0;
paths = (
{
closed = 1;
nodes = (
"88 270 LINE SMOOTH",
"88 259 OFFCURVE",
"97 250 OFFCURVE",
"108 250 CURVE SMOOTH",
"119 250 OFFCURVE",
"128 259 OFFCURVE",
"128 270 CURVE SMOOTH",
"128 281 OFFCURVE",
"119 290 OFFCURVE",
"108 290 CURVE SMOOTH",
"97 290 OFFCURVE",
"88 281 OFFCURVE",
"88 270 CURVE SMOOTH"
);
},
{
closed = 1;
nodes = (
"89 86 LINE",
"63 17 OFFCURVE",
"38 -51 OFFCURVE",
"12 -120 CURVE",
"26 -120 LINE",
"55 -51 OFFCURVE",
"83 17 OFFCURVE",
"112 86 CURVE"
);
}
);
width = 201;
},
{
hints = (
{
horizontal = 1;
place = "{-120, 21}";
target = up;
type = BottomGhost;
},
{
horizontal = 1;
place = "{355, -20}";
target = down;
type = TopGhost;
}
);
layerId = UUID1;
paths = (
{
closed = 1;
nodes = (
"52 327 LINE SMOOTH",
"52 283 OFFCURVE",
"88 255 OFFCURVE",
"123 255 CURVE SMOOTH",
"157 255 OFFCURVE",
"193 283 OFFCURVE",
"193 327 CURVE SMOOTH",
"193 368 OFFCURVE",
"157 400 OFFCURVE",
"123 400 CURVE SMOOTH",
"88 400 OFFCURVE",
"52 368 OFFCURVE",
"52 327 CURVE SMOOTH"
);
},
{
closed = 1;
nodes = (
"53 88 LINE",
"26 17 OFFCURVE",
"1 -52 OFFCURVE",
"-26 -122 CURVE",
"86 -122 LINE",
"115 -52 OFFCURVE",
"144 17 OFFCURVE",
"174 88 CURVE"
);
}
);
width = 205;
}
);
unicode = 003B;
},
{
glyphname = slash;
lastChange = "2016-08-26 20:32:07 +0000";
layers = (
{
hints = (
{
horizontal = 1;
place = "{-19, 21}";
target = up;
type = BottomGhost;
},
{
horizontal = 1;
place = "{736, -20}";
target = down;
type = TopGhost;
}
);
layerId = UUID0;
paths = (
{
closed = 1;
nodes = (
"295 736 LINE",
"202 484 OFFCURVE",
"110 233 OFFCURVE",
"17 -19 CURVE",
"31 -19 LINE",
"124 233 OFFCURVE",
"216 484 OFFCURVE",
"309 736 CURVE"
);
}
);
width = 322;
},
{
hints = (
{
horizontal = 1;
place = "{-19, 21}";
target = up;
type = BottomGhost;
},
{
horizontal = 1;
place = "{736, -20}";
target = down;
type = TopGhost;
}
);
layerId = UUID1;
paths = (
{
closed = 1;
nodes = (
"301 751 LINE",
"206 494 OFFCURVE",
"112 238 OFFCURVE",
"17 -19 CURVE",
"143 -19 LINE",
"238 238 OFFCURVE",
"332 494 OFFCURVE",
"427 751 CURVE"
);
}
);
width = 421;
}
);
unicode = 002F;
},
{
glyphname = underscore;
lastChange = "2016-08-26 20:32:07 +0000";
layers = (
{
hints = (
{
horizontal = 1;
place = "{14, -20}";
target = down;
type = TopGhost;
},
{
horizontal = 1;
place = "{0, 21}";
target = up;
type = BottomGhost;
}
);
layerId = UUID0;
paths = (
{
closed = 1;
nodes = (
"100 0 LINE",
"500 0 LINE",
"500 14 LINE",
"100 14 LINE"
);
}
);
width = 600;
},
{
hints = (
{
horizontal = 1;
place = "{81, -20}";
target = down;
type = TopGhost;
},
{
horizontal = 1;
place = "{0, 21}";
target = up;
type = BottomGhost;
}
);
layerId = UUID1;
paths = (
{
closed = 1;
nodes = (
"102 0 LINE",
"510 0 LINE",
"510 121 LINE",
"102 121 LINE"
);
}
);
width = 612;
}
);
unicode = 005F;
},
{
glyphname = braceleft;
lastChange = "2016-08-26 20:32:07 +0000";
layers = (
{
hints = (
{
horizontal = 1;
place = "{287, 24}";
}
);
layerId = UUID0;
paths = (
{
closed = 1;
nodes = (
"232 732 LINE",
"232 746 LINE",
"195 746 LINE SMOOTH",
"152 746 OFFCURVE",
"109 749 OFFCURVE",
"109 628 CURVE SMOOTH",
"109 446 LINE SMOOTH",
"109 392 OFFCURVE",
"95 314 OFFCURVE",
"30 311 CURVE",
"30 287 LINE",
"30 287 LINE",
"95 284 OFFCURVE",
"109 206 OFFCURVE",
"109 152 CURVE SMOOTH",
"109 6 LINE SMOOTH",
"109 -152 OFFCURVE",
"142 -148 OFFCURVE",
"195 -148 CURVE SMOOTH",
"232 -148 LINE",
"232 -134 LINE",
"175 -134 LINE SMOOTH",
"134 -134 OFFCURVE",
"123 -102 OFFCURVE",
"123 -22 CURVE SMOOTH",
"123 128 LINE SMOOTH",
"123 251 OFFCURVE",
"92 279 OFFCURVE",
"57 299 CURVE",
"92 318 OFFCURVE",
"123 345 OFFCURVE",
"123 470 CURVE SMOOTH",
"123 620 LINE SMOOTH",
"123 700 OFFCURVE",
"134 732 OFFCURVE",
"175 732 CURVE SMOOTH"
);
}
);
width = 272;
},
{
hints = (
{
horizontal = 1;
place = "{256, 81}";
}
);
layerId = UUID1;
paths = (
{
closed = 1;
nodes = (
"330 639 LINE",
"330 761 LINE",
"251 761 LINE SMOOTH",
"173 761 OFFCURVE",
"112 769 OFFCURVE",
"112 641 CURVE SMOOTH",
"112 497 LINE SMOOTH",
"112 441 OFFCURVE",
"97 362 OFFCURVE",
"31 359 CURVE",
"31 243 LINE",
"31 243 LINE",
"97 240 OFFCURVE",
"112 161 OFFCURVE",
"112 105 CURVE SMOOTH",
"112 -53 LINE SMOOTH",
"112 -161 OFFCURVE",
"182 -153 OFFCURVE",
"251 -153 CURVE SMOOTH",
"330 -153 LINE",
"330 -31 LINE",
"293 -31 LINE SMOOTH",
"251 -31 OFFCURVE",
"239 -22 OFFCURVE",
"239 69 CURVE SMOOTH",
"239 188 LINE SMOOTH",
"239 243 OFFCURVE",
"195 289 OFFCURVE",
"174 303 CURVE",
"195 320 OFFCURVE",
"239 362 OFFCURVE",
"239 420 CURVE SMOOTH",
"239 540 LINE SMOOTH",
"239 631 OFFCURVE",
"251 639 OFFCURVE",
"293 639 CURVE SMOOTH"
);
}
);
width = 355;
}
);
unicode = 007B;
},
{
glyphname = braceright;
lastChange = "2016-08-26 20:32:07 +0000";
layers = (
{
hints = (
{
horizontal = 1;
place = "{287, 24}";
}
);
layerId = UUID0;
paths = (
{
closed = 1;
nodes = (
"88 -134 LINE",
"88 -148 LINE",
"125 -148 LINE SMOOTH",
"168 -148 OFFCURVE",
"211 -153 OFFCURVE",
"211 -30 CURVE SMOOTH",
"211 116 LINE SMOOTH",
"211 161 OFFCURVE",
"206 283 OFFCURVE",
"290 287 CURVE",
"290 311 LINE",
"290 311 LINE",
"206 315 OFFCURVE",
"211 436 OFFCURVE",
"211 482 CURVE SMOOTH",
"211 628 LINE SMOOTH",
"211 750 OFFCURVE",
"169 746 OFFCURVE",
"125 746 CURVE SMOOTH",
"88 746 LINE",
"88 732 LINE",
"145 732 LINE SMOOTH",
"186 732 OFFCURVE",
"197 700 OFFCURVE",
"197 620 CURVE SMOOTH",
"197 470 LINE SMOOTH",
"197 345 OFFCURVE",
"228 318 OFFCURVE",
"263 299 CURVE",
"238 285 OFFCURVE",
"197 255 OFFCURVE",
"197 165 CURVE SMOOTH",
"197 -22 LINE SMOOTH",
"197 -102 OFFCURVE",
"186 -134 OFFCURVE",
"145 -134 CURVE SMOOTH"
);
}
);
width = 320;
},
{
hints = (
{
horizontal = 1;
place = "{256, 81}";
}
);
layerId = UUID1;
paths = (
{
closed = 1;
nodes = (
"-3 -31 LINE",
"-3 -153 LINE",
"76 -153 LINE SMOOTH",
"154 -153 OFFCURVE",
"215 -159 OFFCURVE",
"215 -32 CURVE SMOOTH",
"215 126 LINE SMOOTH",
"215 187 OFFCURVE",
"242 242 OFFCURVE",
"296 243 CURVE",
"296 359 LINE",
"296 359 LINE",
"242 360 OFFCURVE",
"215 416 OFFCURVE",
"215 476 CURVE SMOOTH",
"215 641 LINE SMOOTH",
"215 770 OFFCURVE",
"150 761 OFFCURVE",
"76 761 CURVE SMOOTH",
"-3 761 LINE",
"-3 639 LINE",
"34 639 LINE SMOOTH",
"76 639 OFFCURVE",
"87 631 OFFCURVE",
"87 540 CURVE SMOOTH",
"87 420 LINE SMOOTH",
"87 362 OFFCURVE",
"132 320 OFFCURVE",
"153 303 CURVE",
"128 286 OFFCURVE",
"87 244 OFFCURVE",
"87 167 CURVE SMOOTH",
"87 69 LINE SMOOTH",
"87 -22 OFFCURVE",
"76 -31 OFFCURVE",
"34 -31 CURVE SMOOTH"
);
}
);
width = 327;
}
);
unicode = 007D;
},
{
glyphname = bracketleft;
lastChange = "2016-08-26 20:32:07 +0000";
layers = (
{
hints = (
{
horizontal = 1;
place = "{-149, 21}";
target = up;
type = BottomGhost;
},
{
horizontal = 1;
place = "{746, -20}";
target = down;
type = TopGhost;
}
);
layerId = UUID0;
paths = (
{
closed = 1;
nodes = (
"83 -149 LINE",
"246 -149 LINE",
"246 -135 LINE",
"99 -135 LINE",
"99 732 LINE",
"246 732 LINE",
"246 746 LINE",
"83 746 LINE"
);
}
);
width = 338;
},
{
hints = (
{
horizontal = 1;
place = "{-149, 21}";
target = up;
type = BottomGhost;
},
{
horizontal = 1;
place = "{746, -20}";
target = down;
type = TopGhost;
}
);
layerId = UUID1;
paths = (
{
closed = 1;
nodes = (
"85 -152 LINE",
"298 -152 LINE",
"298 -31 LINE",
"209 -31 LINE",
"209 639 LINE",
"298 639 LINE",
"298 761 LINE",
"85 761 LINE"
);
}
);
width = 345;
}
);
unicode = 005B;
},
{
glyphname = bracketright;
lastChange = "2016-08-26 20:32:07 +0000";
layers = (
{
hints = (
{
horizontal = 1;
place = "{746, -20}";
target = down;
type = TopGhost;
},
{
horizontal = 1;
place = "{-149, 21}";
target = up;
type = BottomGhost;
}
);
layerId = UUID0;
paths = (
{
closed = 1;
nodes = (
"88 732 LINE",
"235 732 LINE",
"235 -135 LINE",
"88 -135 LINE",
"88 -149 LINE",
"251 -149 LINE",
"251 746 LINE",
"88 746 LINE"
);
}
);
width = 342;
},
{
hints = (
{
horizontal = 1;
place = "{746, -20}";
target = down;
type = TopGhost;
},
{
horizontal = 1;
place = "{-149, 21}";
target = up;
type = BottomGhost;
}
);
layerId = UUID1;
paths = (
{
closed = 1;
nodes = (
"43 639 LINE",
"132 639 LINE",
"132 -31 LINE",
"43 -31 LINE",
"43 -152 LINE",
"256 -152 LINE",
"256 761 LINE",
"43 761 LINE"
);
}
);
width = 349;
}
);
unicode = 005D;
},
{
glyphname = parenleft;
lastChange = "2016-08-26 20:32:07 +0000";
layers = (
{
hints = (
{
horizontal = 1;
place = "{-163, 21}";
target = up;
type = BottomGhost;
},
{
horizontal = 1;
place = "{747, -20}";
target = down;
type = TopGhost;
}
);
layerId = UUID0;
paths = (
{
closed = 1;
nodes = (
"147 292 LINE SMOOTH",
"147 92 OFFCURVE",
"228 -74 OFFCURVE",
"312 -163 CURVE",
"313 -155 OFFCURVE",
"314 -148 OFFCURVE",
"315 -140 CURVE",
"238 -52 OFFCURVE",
"161 102 OFFCURVE",
"161 292 CURVE SMOOTH",
"161 482 OFFCURVE",
"238 636 OFFCURVE",
"315 724 CURVE",
"314 732 OFFCURVE",
"313 739 OFFCURVE",
"312 747 CURVE",
"228 658 OFFCURVE",
"147 492 OFFCURVE",
"147 292 CURVE SMOOTH"
);
}
);
width = 394;
},
{
hints = (
{
horizontal = 1;
place = "{-164, 21}";
target = up;
type = BottomGhost;
},
{
horizontal = 1;
place = "{746, -20}";
target = down;
type = TopGhost;
}
);
layerId = UUID1;
paths = (
{
closed = 1;
nodes = (
"99 296 LINE SMOOTH",
"99 92 OFFCURVE",
"182 -77 OFFCURVE",
"267 -168 CURVE",
"305 -160 OFFCURVE",
"345 -153 OFFCURVE",
"382 -144 CURVE",
"304 -55 OFFCURVE",
"225 102 OFFCURVE",
"225 296 CURVE SMOOTH",
"225 490 OFFCURVE",
"304 647 OFFCURVE",
"382 737 CURVE",
"345 745 OFFCURVE",
"305 752 OFFCURVE",
"267 760 CURVE",
"182 670 OFFCURVE",
"99 500 OFFCURVE",
"99 296 CURVE SMOOTH"
);
}
);
width = 450;
}
);
unicode = 0028;
},
{
glyphname = parenright;
lastChange = "2016-08-26 20:32:07 +0000";
layers = (
{
hints = (
{
horizontal = 1;
place = "{747, -20}";
target = down;
type = TopGhost;
},
{
horizontal = 1;
place = "{-163, 21}";
target = up;
type = BottomGhost;
}
);
layerId = UUID0;
paths = (
{
closed = 1;
nodes = (
"279 292 LINE SMOOTH",
"279 492 OFFCURVE",
"198 658 OFFCURVE",
"114 747 CURVE",
"113 739 OFFCURVE",
"112 732 OFFCURVE",
"111 724 CURVE",
"188 636 OFFCURVE",
"265 482 OFFCURVE",
"265 292 CURVE SMOOTH",
"265 102 OFFCURVE",
"188 -52 OFFCURVE",
"111 -140 CURVE",
"112 -148 OFFCURVE",
"113 -155 OFFCURVE",
"114 -163 CURVE",
"198 -74 OFFCURVE",
"279 92 OFFCURVE",
"279 292 CURVE SMOOTH"
);
}
);
width = 400;
},
{
hints = (
{
horizontal = 1;
place = "{743, -20}";
target = down;
type = TopGhost;
},
{
horizontal = 1;
place = "{-167, 21}";
target = up;
type = BottomGhost;
}
);
layerId = UUID1;
paths = (
{
closed = 1;
nodes = (
"337 291 LINE SMOOTH",
"337 495 OFFCURVE",
"255 665 OFFCURVE",
"169 756 CURVE",
"131 747 OFFCURVE",
"92 737 OFFCURVE",
"54 729 CURVE",
"133 639 OFFCURVE",
"211 482 OFFCURVE",
"211 288 CURVE SMOOTH",
"211 94 OFFCURVE",
"133 -63 OFFCURVE",
"54 -152 CURVE",
"92 -159 OFFCURVE",
"131 -166 OFFCURVE",
"169 -173 CURVE",
"255 -82 OFFCURVE",
"337 87 OFFCURVE",
"337 291 CURVE SMOOTH"
);
}
);
width = 408;
}
);
unicode = 0029;
},
{
glyphname = emdash;
lastChange = "2016-08-26 20:32:07 +0000";
layers = (
{
hints = (
{
horizontal = 1;
place = "{179, 21}";
target = up;
type = BottomGhost;
},
{
horizontal = 1;
place = "{193, -20}";
target = down;
type = TopGhost;
}
);
layerId = UUID0;
paths = (
{
closed = 1;
nodes = (
"99 179 LINE",
"601 179 LINE",
"601 193 LINE",
"99 193 LINE"
);
}
);
width = 700;
},
{
hints = (
{
horizontal = 1;
place = "{174, 21}";
target = up;
type = BottomGhost;
},
{
horizontal = 1;
place = "{255, -20}";
target = down;
type = TopGhost;
}
);
layerId = UUID1;
paths = (
{
closed = 1;
nodes = (
"101 165 LINE",
"613 165 LINE",
"613 286 LINE",
"101 286 LINE"
);
}
);
width = 714;
}
);
unicode = 2014;
},
{
glyphname = endash;
lastChange = "2016-08-26 20:32:07 +0000";
layers = (
{
hints = (
{
horizontal = 1;
place = "{179, 21}";
target = up;
type = BottomGhost;
},
{
horizontal = 1;
place = "{193, -20}";
target = down;
type = TopGhost;
}
);
layerId = UUID0;
paths = (
{
closed = 1;
nodes = (
"100 179 LINE",
"401 179 LINE",
"401 193 LINE",
"100 193 LINE"
);
}
);
width = 509;
},
{
hints = (
{
horizontal = 1;
place = "{174, 21}";
target = up;
type = BottomGhost;
},
{
horizontal = 1;
place = "{255, -20}";
target = down;
type = TopGhost;
}
);
layerId = UUID1;
paths = (
{
closed = 1;
nodes = (
"102 165 LINE",
"409 165 LINE",
"409 286 LINE",
"102 286 LINE"
);
}
);
width = 519;
}
);
unicode = 2013;
},
{
glyphname = hyphen;
lastChange = "2016-08-26 20:32:07 +0000";
layers = (
{
hints = (
{
horizontal = 1;
place = "{184, 21}";
target = up;
type = BottomGhost;
},
{
horizontal = 1;
place = "{198, -20}";
target = down;
type = TopGhost;
}
);
layerId = UUID0;
paths = (
{
closed = 1;
nodes = (
"53 184 LINE",
"237 184 LINE",
"237 198 LINE",
"53 198 LINE"
);
}
);
width = 300;
},
{
hints = (
{
horizontal = 1;
place = "{147, 21}";
target = up;
type = BottomGhost;
},
{
horizontal = 1;
place = "{228, -20}";
target = down;
type = TopGhost;
}
);
layerId = UUID1;
paths = (
{
closed = 1;
nodes = (
"54 168 LINE",
"242 168 LINE",
"242 290 LINE",
"54 290 LINE"
);
}
);
width = 306;
}
);
unicode = 002D;
},
{
glyphname = guillemetleft;
lastChange = "2016-08-26 20:32:07 +0000";
layers = (
{
hints = (
{
horizontal = 1;
place = "{400, -20}";
target = down;
type = TopGhost;
},
{
horizontal = 1;
place = "{77, 21}";
target = up;
type = BottomGhost;
}
);
layerId = UUID0;
paths = (
{
closed = 1;
nodes = (
"288 77 LINE",
"288 93 LINE",
"241 142 OFFCURVE",
"193 190 OFFCURVE",
"146 239 CURVE",
"193 287 OFFCURVE",
"241 335 OFFCURVE",
"288 383 CURVE",
"288 400 LINE",
"231 346 OFFCURVE",
"174 293 OFFCURVE",
"117 239 CURVE"
);
},
{
closed = 1;
nodes = (
"459 77 LINE",
"459 93 LINE",
"412 142 OFFCURVE",
"364 190 OFFCURVE",
"317 239 CURVE",
"364 287 OFFCURVE",
"412 335 OFFCURVE",
"459 383 CURVE",
"459 400 LINE",
"402 346 OFFCURVE",
"345 293 OFFCURVE",
"288 239 CURVE"
);
}
);
width = 601;
},
{
hints = (
{
horizontal = 1;
place = "{400, -20}";
target = down;
type = TopGhost;
},
{
horizontal = 1;
place = "{77, 21}";
target = up;
type = BottomGhost;
}
);
layerId = UUID1;
paths = (
{
closed = 1;
nodes = (
"293 39 LINE",
"293 181 LINE",
"293 181 OFFCURVE",
"252 244 OFFCURVE",
"252 244 CURVE",
"252 244 OFFCURVE",
"293 306 OFFCURVE",
"293 306 CURVE",
"293 448 LINE",
"293 448 OFFCURVE",
"119 244 OFFCURVE",
"119 244 CURVE"
);
},
{
closed = 1;
nodes = (
"468 39 LINE",
"468 181 LINE",
"468 181 OFFCURVE",
"426 244 OFFCURVE",
"426 244 CURVE",
"426 244 OFFCURVE",
"468 307 OFFCURVE",
"468 307 CURVE",
"468 448 LINE",
"468 448 OFFCURVE",
"293 244 OFFCURVE",
"293 244 CURVE"
);
}
);
width = 613;
}
);
unicode = 00AB;
},
{
glyphname = guilsinglleft;
lastChange = "2016-08-26 20:32:07 +0000";
layers = (
{
hints = (
{
horizontal = 1;
place = "{400, -20}";
target = down;
type = TopGhost;
},
{
horizontal = 1;
place = "{77, 21}";
target = up;
type = BottomGhost;
}
);
layerId = UUID0;
paths = (
{
closed = 1;
nodes = (
"288 77 LINE",
"288 93 LINE",
"241 142 OFFCURVE",
"193 190 OFFCURVE",
"146 239 CURVE",
"193 287 OFFCURVE",
"241 335 OFFCURVE",
"288 383 CURVE",
"288 400 LINE",
"231 346 OFFCURVE",
"174 293 OFFCURVE",
"117 239 CURVE"
);
}
);
width = 392;
},
{
hints = (
{
horizontal = 1;
place = "{400, -20}";
target = down;
type = TopGhost;
},
{
horizontal = 1;
place = "{77, 21}";
target = up;
type = BottomGhost;
}
);
layerId = UUID1;
paths = (
{
closed = 1;
nodes = (
"293 39 LINE",
"293 181 LINE",
"293 181 OFFCURVE",
"252 244 OFFCURVE",
"252 244 CURVE",
"252 244 OFFCURVE",
"293 306 OFFCURVE",
"293 306 CURVE",
"293 448 LINE",
"293 448 OFFCURVE",
"119 244 OFFCURVE",
"119 244 CURVE"
);
}
);
width = 399;
}
);
unicode = 2039;
},
{
glyphname = quotedblbase;
lastChange = "2016-08-26 20:32:07 +0000";
layers = (
{
hints = (
{
horizontal = 1;
place = "{-47, 21}";
target = up;
type = BottomGhost;
},
{
horizontal = 1;
place = "{92, -20}";
target = down;
type = TopGhost;
}
);
layerId = UUID0;
paths = (
{
closed = 1;
nodes = (
"26 -47 LINE",
"65 -12 OFFCURVE",
"83 39 OFFCURVE",
"72 92 CURVE",
"66 90 OFFCURVE",
"59 87 OFFCURVE",
"53 85 CURVE",
"62 39 OFFCURVE",
"48 -2 OFFCURVE",
"20 -29 CURVE",
"22 -35 OFFCURVE",
"24 -41 OFFCURVE",
"26 -47 CURVE"
);
},
{
closed = 1;
nodes = (
"130 -47 LINE",
"169 -12 OFFCURVE",
"187 39 OFFCURVE",
"176 92 CURVE",
"170 90 OFFCURVE",
"163 87 OFFCURVE",
"157 85 CURVE",
"166 39 OFFCURVE",
"152 -2 OFFCURVE",
"124 -29 CURVE",
"126 -35 OFFCURVE",
"128 -41 OFFCURVE",
"130 -47 CURVE"
);
}
);
width = 234;
},
{
hints = (
{
horizontal = 1;
place = "{-53, 21}";
target = up;
type = BottomGhost;
},
{
horizontal = 1;
place = "{92, -20}";
target = down;
type = TopGhost;
}
);
layerId = UUID1;
paths = (
{
closed = 1;
nodes = (
"81 -58 LINE",
"118 -19 OFFCURVE",
"136 37 OFFCURVE",
"125 94 CURVE",
"101 92 OFFCURVE",
"76 89 OFFCURVE",
"53 87 CURVE",
"62 40 OFFCURVE",
"48 -2 OFFCURVE",
"19 -30 CURVE",
"40 -39 OFFCURVE",
"60 -48 OFFCURVE",
"81 -58 CURVE"
);
},
{
closed = 1;
nodes = (
"187 -58 LINE",
"224 -19 OFFCURVE",
"242 37 OFFCURVE",
"231 94 CURVE",
"207 92 OFFCURVE",
"182 89 OFFCURVE",
"159 87 CURVE",
"168 40 OFFCURVE",
"154 -2 OFFCURVE",
"125 -30 CURVE",
"146 -39 OFFCURVE",
"166 -48 OFFCURVE",
"187 -58 CURVE"
);
}
);
width = 410;
}
);
unicode = 201E;
},
{
glyphname = quotedblleft;
lastChange = "2016-08-26 20:32:07 +0000";
layers = (
{
hints = (
{
horizontal = 1;
place = "{711, -20}";
target = down;
type = TopGhost;
},
{
horizontal = 1;
place = "{572, 21}";
target = up;
type = BottomGhost;
}
);
layerId = UUID0;
paths = (
{
closed = 1;
nodes = (
"83 590 LINE",
"55 617 OFFCURVE",
"41 658 OFFCURVE",
"50 704 CURVE",
"44 706 OFFCURVE",
"37 709 OFFCURVE",
"31 711 CURVE",
"20 658 OFFCURVE",
"38 607 OFFCURVE",
"77 572 CURVE",
"79 578 OFFCURVE",
"81 584 OFFCURVE",
"83 590 CURVE"
);
},
{
closed = 1;
nodes = (
"187 590 LINE",
"159 617 OFFCURVE",
"145 658 OFFCURVE",
"154 704 CURVE",
"148 706 OFFCURVE",
"141 709 OFFCURVE",
"135 711 CURVE",
"124 658 OFFCURVE",
"142 607 OFFCURVE",
"181 572 CURVE",
"183 578 OFFCURVE",
"185 584 OFFCURVE",
"187 590 CURVE"
);
}
);
width = 249;
},
{
hints = (
{
horizontal = 1;
place = "{711, -20}";
target = down;
type = TopGhost;
},
{
horizontal = 1;
place = "{566, 21}";
target = up;
type = BottomGhost;
}
);
layerId = UUID1;
paths = (
{
closed = 1;
nodes = (
"137 602 LINE",
"109 629 OFFCURVE",
"94 671 OFFCURVE",
"103 718 CURVE",
"80 720 OFFCURVE",
"55 723 OFFCURVE",
"31 725 CURVE",
"20 668 OFFCURVE",
"38 613 OFFCURVE",
"75 574 CURVE",
"96 583 OFFCURVE",
"116 592 OFFCURVE",
"137 602 CURVE"
);
},
{
closed = 1;
nodes = (
"243 602 LINE",
"215 629 OFFCURVE",
"200 671 OFFCURVE",
"209 718 CURVE",
"186 720 OFFCURVE",
"161 723 OFFCURVE",
"137 725 CURVE",
"126 668 OFFCURVE",
"144 613 OFFCURVE",
"181 574 CURVE",
"202 583 OFFCURVE",
"222 592 OFFCURVE",
"243 602 CURVE"
);
}
);
width = 253;
}
);
unicode = 201C;
},
{
glyphname = quotedblright;
lastChange = "2016-08-26 20:32:07 +0000";
layers = (
{
hints = (
{
horizontal = 1;
place = "{572, 21}";
target = up;
type = BottomGhost;
},
{
horizontal = 1;
place = "{711, -20}";
target = down;
type = TopGhost;
}
);
layerId = UUID0;
paths = (
{
closed = 1;
nodes = (
"50 572 LINE",
"89 607 OFFCURVE",
"107 658 OFFCURVE",
"96 711 CURVE",
"90 709 OFFCURVE",
"83 706 OFFCURVE",
"77 704 CURVE",
"86 658 OFFCURVE",
"72 617 OFFCURVE",
"44 590 CURVE",
"46 584 OFFCURVE",
"48 578 OFFCURVE",
"50 572 CURVE"
);
},
{
closed = 1;
nodes = (
"154 572 LINE",
"193 607 OFFCURVE",
"211 658 OFFCURVE",
"200 711 CURVE",
"194 709 OFFCURVE",
"187 706 OFFCURVE",
"181 704 CURVE",
"190 658 OFFCURVE",
"176 617 OFFCURVE",
"148 590 CURVE",
"150 584 OFFCURVE",
"152 578 OFFCURVE",
"154 572 CURVE"
);
}
);
width = 248;
},
{
hints = (
{
horizontal = 1;
place = "{566, 21}";
target = up;
type = BottomGhost;
},
{
horizontal = 1;
place = "{711, -20}";
target = down;
type = TopGhost;
}
);
layerId = UUID1;
paths = (
{
closed = 1;
nodes = (
"54 574 LINE",
"91 613 OFFCURVE",
"109 668 OFFCURVE",
"98 725 CURVE",
"74 723 OFFCURVE",
"49 720 OFFCURVE",
"26 718 CURVE",
"35 671 OFFCURVE",
"21 629 OFFCURVE",
"-8 602 CURVE",
"13 592 OFFCURVE",
"33 583 OFFCURVE",
"54 574 CURVE"
);
},
{
closed = 1;
nodes = (
"160 574 LINE",
"197 613 OFFCURVE",
"215 668 OFFCURVE",
"204 725 CURVE",
"180 723 OFFCURVE",
"155 720 OFFCURVE",
"132 718 CURVE",
"141 671 OFFCURVE",
"127 629 OFFCURVE",
"98 602 CURVE",
"119 592 OFFCURVE",
"139 583 OFFCURVE",
"160 574 CURVE"
);
}
);
width = 253;
}
);
unicode = 201D;
},
{
glyphname = quoteleft;
lastChange = "2016-08-26 20:32:07 +0000";
layers = (
{
hints = (
{
horizontal = 1;
place = "{711, -20}";
target = down;
type = TopGhost;
},
{
horizontal = 1;
place = "{572, 21}";
target = up;
type = BottomGhost;
}
);
layerId = UUID0;
paths = (
{
closed = 1;
nodes = (
"92 590 LINE",
"64 617 OFFCURVE",
"50 658 OFFCURVE",
"59 704 CURVE",
"53 706 OFFCURVE",
"46 709 OFFCURVE",
"40 711 CURVE",
"29 658 OFFCURVE",
"47 607 OFFCURVE",
"86 572 CURVE",
"88 578 OFFCURVE",
"90 584 OFFCURVE",
"92 590 CURVE"
);
}
);
width = 164;
},
{
hints = (
{
horizontal = 1;
place = "{711, -20}";
target = down;
type = TopGhost;
},
{
horizontal = 1;
place = "{566, 21}";
target = up;
type = BottomGhost;
}
);
layerId = UUID1;
paths = (
{
closed = 1;
nodes = (
"132 602 LINE",
"104 629 OFFCURVE",
"89 671 OFFCURVE",
"98 718 CURVE",
"75 720 OFFCURVE",
"50 723 OFFCURVE",
"26 725 CURVE",
"15 668 OFFCURVE",
"33 613 OFFCURVE",
"70 574 CURVE",
"91 583 OFFCURVE",
"111 592 OFFCURVE",
"132 602 CURVE"
);
}
);
width = 167;
}
);
unicode = 2018;
},
{
glyphname = quoteright;
lastChange = "2016-08-26 20:32:07 +0000";
layers = (
{
hints = (
{
horizontal = 1;
place = "{572, 21}";
target = up;
type = BottomGhost;
},
{
horizontal = 1;
place = "{711, -20}";
target = down;
type = TopGhost;
}
);
layerId = UUID0;
paths = (
{
closed = 1;
nodes = (
"65 572 LINE",
"104 607 OFFCURVE",
"122 658 OFFCURVE",
"111 711 CURVE",
"105 709 OFFCURVE",
"98 706 OFFCURVE",
"92 704 CURVE",
"101 658 OFFCURVE",
"87 617 OFFCURVE",
"59 590 CURVE",
"61 584 OFFCURVE",
"63 578 OFFCURVE",
"65 572 CURVE"
);
}
);
width = 164;
},
{
hints = (
{
horizontal = 1;
place = "{566, 21}";
target = up;
type = BottomGhost;
},
{
horizontal = 1;
place = "{711, -20}";
target = down;
type = TopGhost;
}
);
layerId = UUID1;
paths = (
{
closed = 1;
nodes = (
"84 574 LINE",
"121 613 OFFCURVE",
"139 668 OFFCURVE",
"128 725 CURVE",
"104 723 OFFCURVE",
"79 720 OFFCURVE",
"56 718 CURVE",
"65 671 OFFCURVE",
"51 629 OFFCURVE",
"22 602 CURVE",
"43 592 OFFCURVE",
"63 583 OFFCURVE",
"84 574 CURVE"
);
}
);
width = 167;
}
);
unicode = 2019;
},
{
glyphname = quotesinglbase;
lastChange = "2016-08-26 20:32:07 +0000";
layers = (
{
hints = (
{
horizontal = 1;
place = "{-47, 21}";
target = up;
type = BottomGhost;
},
{
horizontal = 1;
place = "{92, -20}";
target = down;
type = TopGhost;
}
);
layerId = UUID0;
paths = (
{
closed = 1;
nodes = (
"26 -47 LINE",
"65 -12 OFFCURVE",
"83 39 OFFCURVE",
"72 92 CURVE",
"66 90 OFFCURVE",
"59 87 OFFCURVE",
"53 85 CURVE",
"62 39 OFFCURVE",
"48 -2 OFFCURVE",
"20 -29 CURVE",
"22 -35 OFFCURVE",
"24 -41 OFFCURVE",
"26 -47 CURVE"
);
}
);
width = 146;
},
{
hints = (
{
horizontal = 1;
place = "{-53, 21}";
target = up;
type = BottomGhost;
},
{
horizontal = 1;
place = "{92, -20}";
target = down;
type = TopGhost;
}
);
layerId = UUID1;
paths = (
{
closed = 1;
nodes = (
"81 -58 LINE",
"118 -19 OFFCURVE",
"136 37 OFFCURVE",
"125 94 CURVE",
"101 92 OFFCURVE",
"76 89 OFFCURVE",
"53 87 CURVE",
"62 40 OFFCURVE",
"48 -2 OFFCURVE",
"19 -30 CURVE",
"40 -39 OFFCURVE",
"60 -48 OFFCURVE",
"81 -58 CURVE"
);
}
);
width = 149;
}
);
unicode = 201A;
},
{
glyphname = cent;
lastChange = "2016-08-26 20:32:07 +0000";
layers = (
{
hints = (
{
place = "{36, 193}";
},
{
horizontal = 1;
place = "{438, -20}";
target = down;
type = TopGhost;
},
{
horizontal = 1;
place = "{-68, 21}";
target = up;
type = BottomGhost;
}
);
layerId = UUID0;
paths = (
{
closed = 1;
nodes = (
"343 47 LINE",
"312 23 OFFCURVE",
"273 8 OFFCURVE",
"230 8 CURVE SMOOTH",
"130 8 OFFCURVE",
"50 88 OFFCURVE",
"50 188 CURVE SMOOTH",
"50 288 OFFCURVE",
"130 369 OFFCURVE",
"230 369 CURVE SMOOTH",
"273 369 OFFCURVE",
"312 354 OFFCURVE",
"343 329 CURVE",
"346 333 OFFCURVE",
"350 336 OFFCURVE",
"353 340 CURVE",
"320 367 OFFCURVE",
"277 383 OFFCURVE",
"230 383 CURVE SMOOTH",
"122 383 OFFCURVE",
"36 296 OFFCURVE",
"36 188 CURVE SMOOTH",
"36 80 OFFCURVE",
"122 -6 OFFCURVE",
"230 -6 CURVE SMOOTH",
"277 -6 OFFCURVE",
"319 10 OFFCURVE",
"353 37 CURVE",
"350 40 OFFCURVE",
"346 44 OFFCURVE",
"343 47 CURVE"
);
},
{
closed = 1;
nodes = (
"215 -68 LINE",
"229 -68 LINE",
"229 438 LINE",
"215 438 LINE"
);
}
);
width = 379;
},
{
hints = (
{
place = "{36, 227}";
},
{
horizontal = 1;
place = "{438, -20}";
target = down;
type = TopGhost;
},
{
horizontal = 1;
place = "{-68, 21}";
target = up;
type = BottomGhost;
}
);
layerId = UUID1;
paths = (
{
closed = 1;
nodes = (
"355 127 LINE",
"336 111 OFFCURVE",
"310 102 OFFCURVE",
"279 102 CURVE SMOOTH",
"207 102 OFFCURVE",
"160 154 OFFCURVE",
"160 219 CURVE SMOOTH",
"160 287 OFFCURVE",
"207 335 OFFCURVE",
"279 335 CURVE SMOOTH",
"309 335 OFFCURVE",
"336 326 OFFCURVE",
"355 311 CURVE",
"380 341 OFFCURVE",
"405 369 OFFCURVE",
"429 398 CURVE",
"388 429 OFFCURVE",
"337 449 OFFCURVE",
"279 449 CURVE SMOOTH",
"149 449 OFFCURVE",
"44 345 OFFCURVE",
"44 219 CURVE SMOOTH",
"44 93 OFFCURVE",
"149 -12 OFFCURVE",
"279 -12 CURVE SMOOTH",
"335 -12 OFFCURVE",
"386 8 OFFCURVE",
"425 39 CURVE",
"401 69 OFFCURVE",
"380 97 OFFCURVE",
"355 127 CURVE"
);
},
{
closed = 1;
nodes = (
"209 -68 LINE",
"293 -68 LINE",
"293 506 LINE",
"209 506 LINE"
);
}
);
width = 385;
}
);
unicode = 00A2;
},
{
glyphname = currency;
lastChange = "2016-08-26 20:32:07 +0000";
layers = (
{
hints = (
{
horizontal = 1;
place = "{219, 21}";
target = up;
type = BottomGhost;
},
{
horizontal = 1;
place = "{496, -20}";
target = down;
type = TopGhost;
}
);
layerId = UUID0;
paths = (
{
closed = 1;
nodes = (
"385 485 LINE",
"375 495 LINE",
"337 457 LINE",
"337 457 LINE",
"314 480 OFFCURVE",
"282 494 OFFCURVE",
"247 494 CURVE SMOOTH",
"212 494 OFFCURVE",
"180 480 OFFCURVE",
"157 458 CURVE",
"119 496 LINE",
"109 486 LINE",
"122 473 OFFCURVE",
"134 461 OFFCURVE",
"147 448 CURVE",
"127 424 OFFCURVE",
"115 394 OFFCURVE",
"115 361 CURVE SMOOTH",
"115 361 LINE SMOOTH",
"115 326 OFFCURVE",
"128 294 OFFCURVE",
"150 270 CURVE",
"109 229 LINE",
"119 219 LINE",
"160 260 LINE",
"160 260 LINE",
"183 240 OFFCURVE",
"214 228 OFFCURVE",
"247 228 CURVE SMOOTH",
"280 228 OFFCURVE",
"311 240 OFFCURVE",
"334 261 CURVE",
"348 247 OFFCURVE",
"361 234 OFFCURVE",
"375 220 CURVE",
"385 230 LINE",
"344 271 LINE",
"365 295 OFFCURVE",
"379 326 OFFCURVE",
"379 361 CURVE SMOOTH",
"379 394 OFFCURVE",
"367 424 OFFCURVE",
"347 447 CURVE"
);
},
{
closed = 1;
nodes = (
"129 361 LINE SMOOTH",
"129 427 OFFCURVE",
"182 480 OFFCURVE",
"247 480 CURVE SMOOTH",
"312 480 OFFCURVE",
"365 427 OFFCURVE",
"365 361 CURVE SMOOTH",
"365 295 OFFCURVE",
"312 242 OFFCURVE",
"247 242 CURVE SMOOTH",
"182 242 OFFCURVE",
"129 295 OFFCURVE",
"129 361 CURVE SMOOTH"
);
}
);
width = 500;
},
{
hints = (
{
horizontal = 1;
place = "{196, 21}";
target = up;
type = BottomGhost;
},
{
horizontal = 1;
place = "{522, -20}";
target = down;
type = TopGhost;
}
);
layerId = UUID1;
paths = (
{
closed = 1;
nodes = (
"410 463 LINE",
"351 522 LINE",
"327 498 LINE",
"327 498 LINE",
"303 511 OFFCURVE",
"276 519 OFFCURVE",
"247 519 CURVE SMOOTH",
"218 519 OFFCURVE",
"193 510 OFFCURVE",
"168 498 CURVE",
"144 522 LINE",
"85 463 LINE",
"93 455 OFFCURVE",
"100 447 OFFCURVE",
"108 439 CURVE",
"95 416 OFFCURVE",
"87 390 OFFCURVE",
"87 361 CURVE SMOOTH",
"87 361 LINE SMOOTH",
"87 331 OFFCURVE",
"95 303 OFFCURVE",
"109 279 CURVE",
"85 255 LINE",
"144 196 LINE",
"169 221 LINE",
"169 221 LINE",
"192 209 OFFCURVE",
"218 202 OFFCURVE",
"247 202 CURVE SMOOTH",
"276 202 OFFCURVE",
"303 209 OFFCURVE",
"326 222 CURVE",
"335 214 OFFCURVE",
"343 205 OFFCURVE",
"352 197 CURVE",
"411 256 LINE",
"387 280 LINE",
"402 304 OFFCURVE",
"410 331 OFFCURVE",
"410 361 CURVE SMOOTH",
"410 389 OFFCURVE",
"402 417 OFFCURVE",
"388 441 CURVE"
);
},
{
closed = 1;
nodes = (
"171 360 LINE SMOOTH",
"171 403 OFFCURVE",
"206 438 OFFCURVE",
"248 438 CURVE SMOOTH",
"291 438 OFFCURVE",
"326 403 OFFCURVE",
"326 360 CURVE SMOOTH",
"326 318 OFFCURVE",
"291 283 OFFCURVE",
"248 283 CURVE SMOOTH",
"206 283 OFFCURVE",
"171 318 OFFCURVE",
"171 360 CURVE SMOOTH"
);
}
);
width = 500;
}
);
unicode = 00A4;
},
{
glyphname = dollar;
lastChange = "2016-08-26 20:32:07 +0000";
layers = (
{
hints = (
{
place = "{100, 178}";
},
{
place = "{264, 220}";
},
{
horizontal = 1;
place = "{764, -20}";
target = down;
type = TopGhost;
},
{
horizontal = 1;
place = "{-68, 21}";
target = up;
type = BottomGhost;
},
{
horizontal = 1;
place = "{704, -20}";
target = down;
type = TopGhost;
},
{
horizontal = 1;
place = "{-8, 21}";
target = up;
type = BottomGhost;
}
);
layerId = UUID0;
paths = (
{
closed = 1;
nodes = (
"453 667 LINE",
"453 667 LINE",
"405 689 OFFCURVE",
"329 704 OFFCURVE",
"281 704 CURVE SMOOTH",
"177 704 OFFCURVE",
"95 635 OFFCURVE",
"95 543 CURVE SMOOTH",
"95 345 OFFCURVE",
"475 425 OFFCURVE",
"475 187 CURVE SMOOTH",
"475 65 OFFCURVE",
"374 6 OFFCURVE",
"275 6 CURVE SMOOTH",
"193 6 OFFCURVE",
"112 47 OFFCURVE",
"72 76 CURVE",
"64 63 LINE",
"87 49 OFFCURVE",
"163 -8 OFFCURVE",
"272 -8 CURVE SMOOTH",
"397 -8 OFFCURVE",
"489 66 OFFCURVE",
"489 188 CURVE SMOOTH",
"489 437 OFFCURVE",
"109 360 OFFCURVE",
"109 546 CURVE SMOOTH",
"109 624 OFFCURVE",
"177 691 OFFCURVE",
"287 691 CURVE SMOOTH",
"345 691 OFFCURVE",
"411 672 OFFCURVE",
"447 656 CURVE"
);
},
{
closed = 1;
nodes = (
"264 -68 LINE",
"278 -68 LINE",
"278 764 LINE",
"264 764 LINE"
);
}
);
width = 567;
},
{
hints = (
{
place = "{74, 242}";
},
{
place = "{232, 252}";
},
{
horizontal = 1;
place = "{764, -20}";
target = down;
type = TopGhost;
},
{
horizontal = 1;
place = "{-68, 21}";
target = up;
type = BottomGhost;
},
{
horizontal = 1;
place = "{704, -20}";
target = down;
type = TopGhost;
},
{
horizontal = 1;
place = "{-8, 21}";
target = up;
type = BottomGhost;
}
);
layerId = UUID1;
paths = (
{
closed = 1;
nodes = (
"550 693 LINE",
"550 693 LINE",
"550 693 OFFCURVE",
"445 740 OFFCURVE",
"329 740 CURVE SMOOTH",
"149 740 OFFCURVE",
"70 627 OFFCURVE",
"70 524 CURVE SMOOTH",
"70 307 OFFCURVE",
"424 332 OFFCURVE",
"424 216 CURVE SMOOTH",
"424 147 OFFCURVE",
"299 138 OFFCURVE",
"264 138 CURVE SMOOTH",
"223 138 OFFCURVE",
"155 150 OFFCURVE",
"96 181 CURVE",
"31 50 LINE",
"74 24 OFFCURVE",
"150 -8 OFFCURVE",
"267 -8 CURVE SMOOTH",
"456 -8 OFFCURVE",
"572 77 OFFCURVE",
"572 214 CURVE SMOOTH",
"572 452 OFFCURVE",
"218 421 OFFCURVE",
"218 534 CURVE SMOOTH",
"218 575 OFFCURVE",
"265 603 OFFCURVE",
"338 603 CURVE SMOOTH",
"383 603 OFFCURVE",
"436 592 OFFCURVE",
"497 571 CURVE"
);
},
{
closed = 1;
nodes = (
"272 -68 LINE",
"356 -68 LINE",
"356 804 LINE",
"272 804 LINE"
);
}
);
width = 567;
}
);
unicode = 0024;
},
{
glyphname = euro;
lastChange = "2016-08-26 20:32:07 +0000";
layers = (
{
hints = (
{
horizontal = 1;
place = "{150, 208}";
}
);
layerId = UUID0;
paths = (
{
closed = 1;
nodes = (
"477 634 LINE",
"470 639 OFFCURVE",
"431 658 OFFCURVE",
"378 658 CURVE SMOOTH",
"177 658 OFFCURVE",
"107 454 OFFCURVE",
"106 327 CURVE SMOOTH",
"105 141 OFFCURVE",
"225 -6 OFFCURVE",
"371 -7 CURVE SMOOTH",
"414 -7 OFFCURVE",
"455 5 OFFCURVE",
"491 27 CURVE",
"479 35 LINE",
"446 17 OFFCURVE",
"409 7 OFFCURVE",
"373 7 CURVE SMOOTH",
"244 8 OFFCURVE",
"120 134 OFFCURVE",
"121 328 CURVE SMOOTH",
"122 523 OFFCURVE",
"234 645 OFFCURVE",
"377 644 CURVE SMOOTH",
"411 644 OFFCURVE",
"442 637 OFFCURVE",
"471 624 CURVE"
);
},
{
closed = 1;
nodes = (
"44 379 LINE",
"371 379 LINE",
"371 393 LINE",
"44 393 LINE"
);
},
{
closed = 1;
nodes = (
"45 273 LINE",
"371 273 LINE",
"371 287 LINE",
"45 287 LINE"
);
}
);
width = 616;
},
{
hints = (
{
horizontal = 1;
place = "{112, 275}";
}
);
layerId = UUID1;
paths = (
{
closed = 1;
nodes = (
"502 638 LINE",
"463 660 OFFCURVE",
"419 671 OFFCURVE",
"372 671 CURVE SMOOTH",
"239 672 OFFCURVE",
"98 584 OFFCURVE",
"98 335 CURVE SMOOTH",
"98 103 OFFCURVE",
"219 -8 OFFCURVE",
"371 -9 CURVE SMOOTH",
"416 -9 OFFCURVE",
"458 0 OFFCURVE",
"495 20 CURVE",
"436 136 LINE",
"416 121 OFFCURVE",
"393 113 OFFCURVE",
"370 113 CURVE SMOOTH",
"314 113 OFFCURVE",
"224 163 OFFCURVE",
"224 359 CURVE SMOOTH",
"224 453 OFFCURVE",
"245 550 OFFCURVE",
"369 550 CURVE SMOOTH",
"404 550 OFFCURVE",
"425 542 OFFCURVE",
"446 527 CURVE"
);
},
{
closed = 1;
nodes = (
"32 348 LINE",
"421 348 LINE",
"421 411 LINE",
"32 411 LINE"
);
},
{
closed = 1;
nodes = (
"33 240 LINE",
"421 240 LINE",
"421 303 LINE",
"33 303 LINE"
);
}
);
width = 652;
}
);
unicode = 20AC;
},
